<svg xmlns="http://www.w3.org/2000/svg" xmlns:xlink="http://www.w3.org/1999/xlink" width="110.2" height="110.2" viewBox="0 0 110.2 110.2">
  <defs>
    <style>
      .cls-1 {
        fill: url(#radial-gradient);
      }

      .cls-2 {
        fill: #595959;
        fill-opacity: 0;
      }

      .cls-3 {
        fill: #999;
      }
    </style>
    <radialGradient id="radial-gradient" cx="55.1" cy="55.1" r="51.25" gradientUnits="userSpaceOnUse">
      <stop offset="0.53" stop-color="#fff"/>
      <stop offset="0.73" stop-color="#fff"/>
      <stop offset="0.75" stop-color="#fff"/>
      <stop offset="0.81" stop-color="#fcfcfc"/>
      <stop offset="0.85" stop-color="#f2f2f2"/>
      <stop offset="0.89" stop-color="#e1e0e0"/>
      <stop offset="0.93" stop-color="#c9c8c8"/>
      <stop offset="0.94" stop-color="#c5c4c4"/>
    </radialGradient>
  </defs>
  <title>acs-awards-exceptional</title>
  <g id="Layer_5" data-name="Layer 5">
    <circle class="cls-1" cx="55.1" cy="55.1" r="51.25"/>
  </g>
  <g id="Layer_4" data-name="Layer 4">
    <path class="cls-2" d="M0,0V110.2H110.2V0ZM107.65,55.11A52.55,52.55,0,1,1,78.14,7.86a52.56,52.56,0,0,1,29.51,47.25Z" transform="translate(0 0)"/>
    <path class="cls-3" d="M78.14,7.86a52.56,52.56,0,1,0,29.51,47.25h0A52.56,52.56,0,0,0,78.14,7.86ZM88.73,88.73A47.58,47.58,0,1,1,33,12.93a46.9,46.9,0,0,1,4.69-2.13,47.44,47.44,0,0,1,8.2-2.39,49.28,49.28,0,0,1,5-.7,47.52,47.52,0,0,1,7.45-.06,46.42,46.42,0,0,1,5,.61,48.06,48.06,0,0,1,9.13,2.56A49.11,49.11,0,0,1,77.17,13,47.6,47.6,0,0,1,88.73,88.73Z" transform="translate(0 0)"/>
    <path class="cls-3" d="M80.12,58.93A2.3,2.3,0,0,0,78,57.41H61.89L56.77,38.19a2.29,2.29,0,0,0-4.46.14L48.49,57.41H32.24a2.29,2.29,0,0,0-1.43,4.08l12.6,10.08L37.1,86.72A2.28,2.28,0,0,0,37.37,89a2.43,2.43,0,0,0,.48.48,2.25,2.25,0,0,0,1.4.45,2.32,2.32,0,0,0,1.41-.51L54.62,78l15.3,11.48a2.3,2.3,0,0,0,1.08.43,2.26,2.26,0,0,0,1.7-.46,2.32,2.32,0,0,0,.59-.7,2.26,2.26,0,0,0,.11-2L67.09,71.55,79.41,61.47A2.29,2.29,0,0,0,80.12,58.93ZM62.87,69.09a2.29,2.29,0,0,0-.66,2.65l3.74,9-10-7.52a2.3,2.3,0,0,0-2.82.06L44.84,80l3.46-8.29a2.3,2.3,0,0,0-.68-2.67L38.76,62H50.37a2.28,2.28,0,0,0,2.24-1.84l2.26-11.3,3.05,11.44A2.3,2.3,0,0,0,60.13,62H71.55Z" transform="translate(0 0)"/>
    <path class="cls-3" d="M60.86,32a2.5,2.5,0,0,0,2.5-2.5V14.85a40.93,40.93,0,0,0-5-.69V29.5A2.5,2.5,0,0,0,60.86,32Z" transform="translate(0 0)"/>
    <path class="cls-3" d="M68.08,47.33a2.5,2.5,0,0,0,2.92-2l4.89-25.67a42,42,0,0,0-4.64-2.35L66.09,44.4A2.5,2.5,0,0,0,68.08,47.33Z" transform="translate(0 0)"/>
    <path class="cls-3" d="M48.41,32a2.5,2.5,0,0,0,2.5-2.5V14.23a41.06,41.06,0,0,0-5,.83V29.5A2.5,2.5,0,0,0,48.41,32Z" transform="translate(0 0)"/>
    <path class="cls-3" d="M42.12,47.33a2.5,2.5,0,0,0,2-2.93h0L39,17.32a42,42,0,0,0-4.64,2.35L39.2,45.34A2.5,2.5,0,0,0,42.12,47.33Z" transform="translate(0 0)"/>
  </g>
</svg>
