<svg id="Layer_3" data-name="Layer 3" xmlns="http://www.w3.org/2000/svg" width="110.2" height="110.2" viewBox="0 0 110.2 110.2">
  <defs>
    <style>
      .cls-1 {
        fill: #999;
      }

      .cls-2 {
        fill: #595959;
        fill-opacity: 0;
      }
    </style>
  </defs>
  <title>acs-awards-innovation</title>
  <path class="cls-1" d="M55.1,2.54a52.56,52.56,0,1,0,52.55,52.57h0A52.57,52.57,0,0,0,55.1,2.54ZM88.73,88.73A47.58,47.58,0,1,1,102.65,55.1,47.58,47.58,0,0,1,88.73,88.73Z"/>
  <rect class="cls-2" width="110.2" height="110.2"/>
  <g>
    <path class="cls-1" d="M58.78,80.34H51.22a2.5,2.5,0,0,0,0,5h7.56a2.5,2.5,0,0,0,0-5Z"/>
    <path class="cls-1" d="M56.26,87.06H53.74a2.5,2.5,0,0,0,0,5h2.52a2.5,2.5,0,0,0,0-5Z"/>
    <path class="cls-1" d="M55,33.78a20.31,20.31,0,0,0-7.07,39.36.41.41,0,0,0,0,.11v3a1.87,1.87,0,0,0,1.87,1.87H60.41a1.87,1.87,0,0,0,1.87-1.87v-3c0-.06,0-.12,0-.18A20.41,20.41,0,0,0,71,66.65,20.32,20.32,0,0,0,55,33.78ZM67.06,63.56a15.36,15.36,0,0,1-8.23,5.38A2.49,2.49,0,0,0,57,71.36v1.43H53V71.36a2.49,2.49,0,0,0-1.87-2.42,15.36,15.36,0,0,1-8.23-5.38,15.33,15.33,0,1,1,24.12,0Z"/>
    <path class="cls-1" d="M27.32,50.14h-5a2.5,2.5,0,0,0,0,5h5a2.5,2.5,0,1,0,0-5Z"/>
    <path class="cls-1" d="M37.89,38.05a2.5,2.5,0,0,0,0-3.54L31.6,28.22a2.5,2.5,0,1,0-3.54,3.53l6.3,6.3A2.5,2.5,0,0,0,37.89,38.05Z"/>
    <path class="cls-1" d="M55,30a2.5,2.5,0,0,0,2.5-2.5v-5a2.5,2.5,0,1,0-5,0v5A2.5,2.5,0,0,0,55,30Z"/>
    <path class="cls-1" d="M81.94,28.22a2.5,2.5,0,0,0-3.54,0l-6.29,6.29a2.5,2.5,0,1,0,3.53,3.54l6.3-6.3A2.5,2.5,0,0,0,81.94,28.22Z"/>
    <path class="cls-1" d="M87.72,50.14h-5a2.5,2.5,0,0,0,0,5h5a2.5,2.5,0,0,0,0-5Z"/>
  </g>
</svg>
