<svg id="Layer_2" data-name="Layer 2" xmlns="http://www.w3.org/2000/svg" width="110.2" height="110.2" viewBox="0 0 110.2 110.2">
  <defs>
    <style>
      .cls-1, .cls-2 {
        fill: #595959;
      }

      .cls-1 {
        fill-opacity: 0;
      }
    </style>
  </defs>
  <title>acs-awards-involved</title>
  <rect class="cls-1" width="110.2" height="110.2"/>
  <g>
    <path class="cls-2" d="M33.15,76.24c3.39-1.19,7-2.39,10.45-3.69a2.5,2.5,0,0,0,1.61-2.34V61.47a2.48,2.48,0,0,0-1.37-2.22h0A8.38,8.38,0,0,1,41.42,57a11.59,11.59,0,0,1-2.23-7.28A2.47,2.47,0,0,0,38.46,48a2.52,2.52,0,0,0-1.22-.66,3.94,3.94,0,0,1,0-2.48,2.49,2.49,0,0,0,1.95-2.44,2.71,2.71,0,0,0,0-.57,2.82,2.82,0,0,0-.15-.68c-.21-.75-.52-1.73-.78-2.83a13.23,13.23,0,0,1-.46-3.13,5,5,0,0,1,.09-1A1.5,1.5,0,0,1,38,33.9l.09-.09a1.48,1.48,0,0,1,.69-.11,5.46,5.46,0,0,1,1.14.13A2.49,2.49,0,0,0,42.79,32a2.05,2.05,0,0,1,.71-1A8.7,8.7,0,0,1,47,29.28a20.8,20.8,0,0,1,5.33-.65,19,19,0,0,1,6.79,1.13,6.52,6.52,0,0,1,2,1.18,2.05,2.05,0,0,1,.71,1h0A7.77,7.77,0,0,1,62,33.8a15.12,15.12,0,0,1-.93,4.75c-.24.71-.49,1.34-.7,1.89-.1.27-.2.52-.28.79a3.81,3.81,0,0,0-.13.45,2.94,2.94,0,0,0-.08.72,2.51,2.51,0,0,0,.73,1.77,2.62,2.62,0,0,0,1.22.67,3.94,3.94,0,0,1,0,2.48,2.47,2.47,0,0,0-1.95,2.43,13.15,13.15,0,0,1-2.12,7.71A8,8,0,0,1,56.45,59a3.57,3.57,0,0,1-.38.3H56a2.5,2.5,0,0,0-1.22,2.14v8.74a2.49,2.49,0,0,0,1.62,2.34c5.82,2.2,11.35,4,15.46,5.7a27.16,27.16,0,0,1,4.88,2.52A6.75,6.75,0,0,1,78,81.87a2.42,2.42,0,0,1,.48.78,26.14,26.14,0,0,1,.9,4.48,7.79,7.79,0,0,0,.13,1A39.82,39.82,0,0,0,84,84.32a24,24,0,0,0-.77-3.25h0a7.3,7.3,0,0,0-1.47-2.49,15.09,15.09,0,0,0-4.15-3.12,68.11,68.11,0,0,0-8.76-3.72c-2.84-1-5.93-2.1-9.1-3.27V62.7a12.64,12.64,0,0,0,2.12-2.38,17.44,17.44,0,0,0,3-8.88,5.35,5.35,0,0,0,1.77-2.59,8.41,8.41,0,0,0,.44-2.77,8.12,8.12,0,0,0-.82-3.69,5.63,5.63,0,0,0-.8-1.13c.23-.62.5-1.36.74-2.2A18.43,18.43,0,0,0,67,33.8a12.63,12.63,0,0,0-.36-3h0a7.2,7.2,0,0,0-2.21-3.55,13.63,13.63,0,0,0-5.53-2.77,25.57,25.57,0,0,0-6.63-.82,23.87,23.87,0,0,0-8.65,1.49,11.83,11.83,0,0,0-3.51,2.1,7.58,7.58,0,0,0-1.28,1.49H38.7a6.54,6.54,0,0,0-2.72.54,5,5,0,0,0-1.64,1.16A5.9,5.9,0,0,0,33,32.82a9,9,0,0,0-.3,2.41,20.19,20.19,0,0,0,.81,5.12c.07.3.15.57.23.83a5.61,5.61,0,0,0-1.32,2.16A8.49,8.49,0,0,0,32,46.08a8.08,8.08,0,0,0,.82,3.68,4.83,4.83,0,0,0,1.4,1.68h0a17.14,17.14,0,0,0,1,4.7A15,15,0,0,0,39,61.89c.4.37.77.67,1.1.92v5.66c-4.59,1.67-9.64,3.27-13.93,5a40.84,40.84,0,0,0-6.3,3,40.39,40.39,0,0,0,2.88,4.11c.44-.27.93-.55,1.48-.83A78.75,78.75,0,0,1,33.15,76.24Z"/>
    <path class="cls-2" d="M77.27,67V64.34a13,13,0,0,0,2.4-2.17,13.94,13.94,0,0,0,2.51-4.23,16.94,16.94,0,0,0,1-4.66h0A5.35,5.35,0,0,0,85,50.69a8.5,8.5,0,0,0,.43-2.78,8.08,8.08,0,0,0-.82-3.68,4.88,4.88,0,0,0-.84-1.18c.25-.7.53-1.56.8-2.54A20.55,20.55,0,0,0,85.41,35a12.3,12.3,0,0,0-.36-3.08A8.27,8.27,0,0,0,83.59,29a13.48,13.48,0,0,0-4-3.48A11.57,11.57,0,0,0,73.85,24a9.79,9.79,0,0,0-5.47,1.67,2.5,2.5,0,0,0,2.77,4.16,4.65,4.65,0,0,1,2.7-.83,6,6,0,0,1,2.18.43,8.51,8.51,0,0,1,2.9,1.91,5.73,5.73,0,0,1,.91,1.11,2.67,2.67,0,0,1,.36.74A7.86,7.86,0,0,1,80.41,35a18.22,18.22,0,0,1-1,5.17c-.24.79-.49,1.49-.7,2.07l-.28.83a2.25,2.25,0,0,1-.11.45,3.27,3.27,0,0,0-.08.7,2.53,2.53,0,0,0,2,2.44,3.94,3.94,0,0,1,0,2.48,2.62,2.62,0,0,0-1.22.67,2.55,2.55,0,0,0-.73,1.77,12.49,12.49,0,0,1-.78,4.57A9.06,9.06,0,0,1,75,59.76a7.11,7.11,0,0,1-1,.73l-.25.14h0a2.5,2.5,0,0,0-1.48,2.28v5.83a2.51,2.51,0,0,0,1.62,2.34c5.73,2.15,11.4,4.27,15.72,6.34a38.91,38.91,0,0,0,2.47-4.35c-1.67-.81-3.48-1.61-5.39-2.4C83.71,69.46,80.5,68.24,77.27,67Z"/>
  </g>
  <path class="cls-2" d="M55.1,2.54a52.56,52.56,0,1,0,52.55,52.57h0A52.57,52.57,0,0,0,55.1,2.54ZM88.73,88.73A47.58,47.58,0,1,1,102.65,55.1,47.58,47.58,0,0,1,88.73,88.73Z"/>
</svg>
