<svg xmlns="http://www.w3.org/2000/svg" xmlns:xlink="http://www.w3.org/1999/xlink" width="110.2" height="110.2" viewBox="0 0 110.2 110.2">
  <defs>
    <style>
      .cls-1 {
        fill: url(#radial-gradient);
      }

      .cls-2 {
        fill: #595959;
        fill-opacity: 0;
      }

      .cls-3 {
        fill: #999;
      }
    </style>
    <radialGradient id="radial-gradient" cx="55.1" cy="55.1" r="51.25" gradientUnits="userSpaceOnUse">
      <stop offset="0.53" stop-color="#fff"/>
      <stop offset="0.73" stop-color="#fff"/>
      <stop offset="0.75" stop-color="#fff"/>
      <stop offset="0.81" stop-color="#fcfcfc"/>
      <stop offset="0.85" stop-color="#f2f2f2"/>
      <stop offset="0.89" stop-color="#e1e0e0"/>
      <stop offset="0.93" stop-color="#c9c8c8"/>
      <stop offset="0.94" stop-color="#c5c4c4"/>
    </radialGradient>
  </defs>
  <title>acs-awards-genuine</title>
  <g id="Layer_5" data-name="Layer 5">
    <circle class="cls-1" cx="55.1" cy="55.1" r="51.25"/>
  </g>
  <g id="Layer_1" data-name="Layer 1">
    <rect class="cls-2" width="110.2" height="110.2"/>
    <g>
      <path class="cls-3" d="M55.1,2.54a52.56,52.56,0,1,0,52.55,52.57h0A52.57,52.57,0,0,0,55.1,2.54ZM88.73,88.73A47.58,47.58,0,1,1,102.65,55.1,47.58,47.58,0,0,1,88.73,88.73Z"/>
      <path class="cls-3" d="M67.19,35.19a13.25,13.25,0,0,0-8.84,3.41,16.3,16.3,0,0,0-3.25,4,16.3,16.3,0,0,0-3.25-4A13.22,13.22,0,0,0,43,35.19a13.91,13.91,0,0,0-10,4.32,16.12,16.12,0,0,0-4.38,11.4,16.82,16.82,0,0,0,1.19,5.9,37.53,37.53,0,0,0,5.91,9.68A94.35,94.35,0,0,0,47.43,78.26c3.53,3,6.16,4.95,6.2,5a2.49,2.49,0,0,0,2.94,0A116.53,116.53,0,0,0,68.83,72.67a64.88,64.88,0,0,0,8.56-10.22,30.79,30.79,0,0,0,3-5.64,16.82,16.82,0,0,0,1.19-5.9,16.12,16.12,0,0,0-4.38-11.4A13.92,13.92,0,0,0,67.19,35.19ZM75.68,55a32.48,32.48,0,0,1-5.13,8.33,89.57,89.57,0,0,1-11,11.12c-1.69,1.46-3.17,2.65-4.23,3.47l-.18.14a114.06,114.06,0,0,1-10.75-9.5,58.66,58.66,0,0,1-7.55-9.16,25,25,0,0,1-2.33-4.54,11.42,11.42,0,0,1-.81-4,11.16,11.16,0,0,1,3-7.92A9,9,0,0,1,43,40.19a8.25,8.25,0,0,1,5.52,2.16A14.44,14.44,0,0,1,52.67,50a2.5,2.5,0,0,0,4.86,0,14.49,14.49,0,0,1,4.14-7.66,8.25,8.25,0,0,1,5.52-2.16A9,9,0,0,1,73.57,43a11.16,11.16,0,0,1,3,7.92A11.72,11.72,0,0,1,75.68,55Z"/>
    </g>
  </g>
</svg>
