<svg id="Layer_18" data-name="Layer 18" xmlns="http://www.w3.org/2000/svg" width="109.98" height="110.2" viewBox="0 0 109.98 110.2">
  <title>fullscreen-icon</title>
  <path d="M0,.17C.57.12,1.14,0,1.7,0H54.45L34.28,20.07,55.12,40.75,41.29,54.59l-20-20.26L.71,54.94l-.65-.3V.1Z" transform="translate(0 0)"/>
  <path d="M109.91,110.13l-51.64-.07H55.41L75.9,89.94,55,69.27,68.8,55.48,88.94,75.73l20.92-21c.07,1.07.11,1.46.11,1.85q0,26.15,0,52.3a11.29,11.29,0,0,1-.12,1.28Z" transform="translate(0 0)"/>
</svg>
