<svg id="Layer_8" data-name="Layer 8" xmlns="http://www.w3.org/2000/svg" width="110.2" height="110.2" viewBox="0 0 110.2 110.2">
  <defs>
    <style>
      .cls-1 {
        fill: #fff;
      }

      .cls-2 {
        fill: #231f20;
      }
    </style>
  </defs>
  <title>select-date</title>
  <rect class="cls-1" width="110.2" height="110.2"/>
  <g>
    <path class="cls-2" d="M106.64,10.38a3,3,0,0,0-2.08-.86H90.44V5.64A2.94,2.94,0,0,0,87.51,2.7H73.86a2.94,2.94,0,0,0-2.94,2.94V9.52H39.28V5.64A2.94,2.94,0,0,0,36.34,2.7H22.69a2.94,2.94,0,0,0-2.93,2.94V9.52H5.64A2.94,2.94,0,0,0,2.7,12.46v92.1a2.94,2.94,0,0,0,2.94,2.94h98.92a2.94,2.94,0,0,0,2.94-2.94V12.46A3,3,0,0,0,106.64,10.38ZM76.8,8.58h7.77V19.76H76.8Zm-51.17,0H33.4V19.76H25.63ZM19.76,15.4v7.29a2.94,2.94,0,0,0,2.93,2.94H36.34a2.94,2.94,0,0,0,2.94-2.94V15.4H70.92v7.29a2.94,2.94,0,0,0,2.94,2.94H87.51a2.94,2.94,0,0,0,2.93-2.94V15.4h11.18v18h-93v-18ZM8.58,101.62V39.28h93v62.34Z"/>
    <path class="cls-2" d="M96,56.33a2.94,2.94,0,1,0,0-5.87H80.21V44.35a2.94,2.94,0,1,0-5.88,0v6.11h-18V44.35a2.94,2.94,0,1,0-5.87,0v6.11h-18V44.35a2.94,2.94,0,1,0-5.87,0v6.11H14.24a2.94,2.94,0,1,0,0,5.87H26.58V67.51H14.24a2.94,2.94,0,0,0,0,5.88H26.58V84.57H14.24a2.94,2.94,0,1,0,0,5.87H26.58V96a2.94,2.94,0,1,0,5.87,0V90.44h18V96a2.94,2.94,0,1,0,5.87,0V90.44h18V96a2.94,2.94,0,0,0,5.88,0V90.44H96a2.94,2.94,0,1,0,0-5.87H80.21V73.39H96a2.94,2.94,0,1,0,0-5.88H80.21V56.33Zm-63.51,0h18V67.51h-18Zm0,28.24V73.39h18V84.57Zm41.88,0h-18V73.39h18Zm0-17.06h-18V56.33h18Z"/>
  </g>
</svg>
