<svg id="Layer_1" data-name="Layer 1" xmlns="http://www.w3.org/2000/svg" xmlns:xlink="http://www.w3.org/1999/xlink" width="880.5" height="411.25" viewBox="0 0 880.5 411.25">
  <defs>
    <style>
      .cls-1 {
        fill: none;
      }

      .cls-2 {
        fill: #0a2a40;
      }

      .cls-3 {
        clip-path: url(#clip-path);
      }

      .cls-4 {
        fill: #ffdd0e;
      }

      .cls-5 {
        fill: #fff;
      }
    </style>
    <clipPath id="clip-path">
      <rect class="cls-1" x="-9" y="-7" width="911.71" height="424.63"/>
    </clipPath>
  </defs>
  <title>table-performance-zones</title>
  <path class="cls-2" d="M738.5,29.5h142v48h-142Zm-142,0h142v48h-142Zm-142,0h142v48h-142Zm-142,0h142v48h-142Zm-142,0h142v48h-142Zm0-29.5h710V29.5h-710ZM0,0H170.5V77.5H0Z"/>
  <path class="cls-2" d="M0,355.62H170.5v55.63H0ZM0,300H170.5v55.62H0Zm0-55.63H170.5V300H0Zm0-55.62H170.5v55.62H0Zm0-55.63H170.5v55.63H0ZM0,77.5H170.5v55.62H0Z"/>
  <g class="cls-3">
    <g>
      <path class="cls-4" d="M228.8,161.49c.7,1.59,1.3,3.21,1.88,4.85,1.18-1.49,2.38-3,3.64-4.41,5.66-6.5,17.3-18.42,26.59-17.92,2.77.16,2.69,1,.37,2.11-10,4.78-18.34,17.7-24.11,26.9-1.45,2.32-3.52,6.35-5.89,7.62a5.1,5.1,0,0,1-4.93-.33c-2.68-1.75-5.88-10.39-7.74-13.67a5.71,5.71,0,1,1,10.08-5.36,2.12,2.12,0,0,1,.11.21"/>
      <path class="cls-4" d="M367.8,161.49c.7,1.59,1.3,3.21,1.88,4.85,1.18-1.49,2.38-3,3.64-4.41,5.66-6.5,17.3-18.42,26.59-17.92,2.77.16,2.69,1,.37,2.11-10,4.78-18.34,17.7-24.11,26.9-1.45,2.32-3.52,6.35-5.89,7.62a5.1,5.1,0,0,1-4.93-.33c-2.68-1.75-5.88-10.39-7.74-13.67a5.71,5.71,0,0,1,10.08-5.36,2.12,2.12,0,0,1,.11.21"/>
      <path class="cls-4" d="M367.8,218.49c.7,1.59,1.3,3.21,1.88,4.85,1.18-1.49,2.38-3,3.64-4.41,5.66-6.5,17.3-18.42,26.59-17.92,2.77.16,2.69,1,.37,2.11-10,4.78-18.34,17.7-24.11,26.9-1.45,2.32-3.52,6.35-5.89,7.62a5.1,5.1,0,0,1-4.93-.33c-2.68-1.75-5.88-10.39-7.74-13.67a5.71,5.71,0,0,1,10.08-5.36,2.12,2.12,0,0,1,.11.21"/>
      <path class="cls-4" d="M511.8,218.49c.7,1.59,1.3,3.21,1.88,4.85,1.18-1.49,2.38-3,3.64-4.41,5.66-6.5,17.3-18.42,26.59-17.92,2.77.16,2.69,1,.37,2.11-10,4.78-18.34,17.7-24.11,26.9-1.45,2.32-3.52,6.35-5.89,7.62a5.1,5.1,0,0,1-4.93-.33c-2.68-1.75-5.88-10.39-7.74-13.67a5.71,5.71,0,0,1,10.08-5.36,2.12,2.12,0,0,1,.11.21"/>
      <path class="cls-4" d="M511.8,105.49c.7,1.59,1.3,3.21,1.88,4.85,1.18-1.49,2.38-3,3.64-4.41,5.66-6.5,17.3-18.42,26.59-17.92,2.77.16,2.69,1,.37,2.11-10,4.78-18.34,17.7-24.11,26.9-1.45,2.32-3.52,6.35-5.89,7.62a5.1,5.1,0,0,1-4.93-.33c-2.68-1.75-5.88-10.39-7.74-13.67a5.71,5.71,0,0,1,10.08-5.36,2.12,2.12,0,0,1,.11.21"/>
      <path class="cls-4" d="M796.8,105.49c.7,1.59,1.3,3.21,1.88,4.85,1.18-1.49,2.38-3,3.64-4.41,5.66-6.5,17.3-18.42,26.59-17.92,2.77.16,2.69,1,.37,2.11-10,4.78-18.34,17.7-24.11,26.9-1.45,2.32-3.52,6.35-5.89,7.62a5.1,5.1,0,0,1-4.93-.33c-2.68-1.75-5.88-10.39-7.74-13.67a5.71,5.71,0,0,1,10.19-5.15"/>
      <path class="cls-4" d="M511.8,274.49c.7,1.59,1.3,3.21,1.88,4.85,1.18-1.49,2.38-3,3.64-4.41,5.66-6.5,17.3-18.42,26.59-17.92,2.77.16,2.69,1,.37,2.11-10,4.78-18.34,17.7-24.11,26.9-1.45,2.32-3.52,6.35-5.89,7.62a5.1,5.1,0,0,1-4.93-.33c-2.68-1.75-5.88-10.39-7.74-13.67a5.71,5.71,0,0,1,10.19-5.15"/>
      <path class="cls-4" d="M511.8,384.36c.7,1.59,1.3,3.21,1.88,4.85,1.18-1.49,2.38-3,3.64-4.41,5.66-6.5,17.3-18.42,26.59-17.92,2.77.15,2.69,1,.37,2.11-10,4.78-18.34,17.7-24.11,26.9-1.45,2.32-3.52,6.35-5.89,7.61a5.07,5.07,0,0,1-4.93-.32c-2.68-1.75-5.88-10.39-7.74-13.67a5.71,5.71,0,0,1,10.19-5.15"/>
      <path class="cls-4" d="M654.8,218.49c.7,1.59,1.3,3.21,1.88,4.85,1.18-1.49,2.38-3,3.64-4.41,5.66-6.5,17.3-18.42,26.59-17.92,2.77.16,2.69,1,.37,2.11-10,4.78-18.34,17.7-24.11,26.9-1.45,2.32-3.52,6.35-5.89,7.62a5.1,5.1,0,0,1-4.93-.33c-2.68-1.75-5.88-10.39-7.74-13.67a5.71,5.71,0,0,1,10.19-5.15"/>
      <path class="cls-4" d="M654.8,328.49c.7,1.59,1.3,3.21,1.88,4.85,1.18-1.49,2.38-3,3.64-4.41,5.66-6.5,17.3-18.42,26.59-17.92,2.77.16,2.69,1,.37,2.11-10,4.78-18.34,17.7-24.11,26.9-1.45,2.32-3.52,6.35-5.89,7.62a5.1,5.1,0,0,1-4.93-.33c-2.68-1.75-5.88-10.39-7.74-13.67a5.71,5.71,0,0,1,10.19-5.15"/>
      <path class="cls-4" d="M654.8,161.49c.7,1.59,1.3,3.21,1.88,4.85,1.18-1.49,2.38-3,3.64-4.41,5.66-6.5,17.3-18.42,26.59-17.92,2.77.16,2.69,1,.37,2.11-10,4.78-18.34,17.7-24.11,26.9-1.45,2.32-3.52,6.35-5.89,7.62a5.1,5.1,0,0,1-4.93-.33c-2.68-1.75-5.88-10.39-7.74-13.67a5.71,5.71,0,0,1,10.19-5.15"/>
      <path class="cls-4" d="M796.8,161.49c.7,1.59,1.3,3.21,1.88,4.85,1.18-1.49,2.38-3,3.64-4.41,5.66-6.5,17.3-18.42,26.59-17.92,2.77.16,2.69,1,.37,2.11-10,4.78-18.34,17.7-24.11,26.9-1.45,2.32-3.52,6.35-5.89,7.62a5.1,5.1,0,0,1-4.93-.33c-2.68-1.75-5.88-10.39-7.74-13.67a5.71,5.71,0,0,1,10.19-5.15"/>
      <path class="cls-4" d="M796.8,274.49c.7,1.59,1.3,3.21,1.88,4.85,1.18-1.49,2.38-3,3.64-4.41,5.66-6.5,17.3-18.42,26.59-17.92,2.77.16,2.69,1,.37,2.11-10,4.78-18.34,17.7-24.11,26.9-1.45,2.32-3.52,6.35-5.89,7.62a5.1,5.1,0,0,1-4.93-.33c-2.68-1.75-5.88-10.39-7.74-13.67a5.71,5.71,0,0,1,10.19-5.15"/>
      <path class="cls-4" d="M796.8,384.36c.7,1.59,1.3,3.21,1.88,4.85,1.18-1.49,2.38-3,3.64-4.41,5.66-6.5,17.3-18.42,26.59-17.92,2.77.15,2.69,1,.37,2.11-10,4.78-18.34,17.7-24.11,26.9-1.45,2.32-3.52,6.35-5.89,7.61a5.07,5.07,0,0,1-4.93-.32c-2.68-1.75-5.88-10.39-7.74-13.67a5.71,5.71,0,0,1,10.19-5.15"/>
      <path class="cls-4" d="M228.8,384.36c.7,1.59,1.3,3.21,1.88,4.85,1.18-1.49,2.38-3,3.64-4.41,5.66-6.5,17.3-18.42,26.59-17.92,2.77.15,2.69,1,.37,2.11-10,4.78-18.34,17.7-24.11,26.9-1.45,2.32-3.52,6.35-5.89,7.61a5.07,5.07,0,0,1-4.93-.32c-2.68-1.75-5.88-10.39-7.74-13.67a5.71,5.71,0,1,1,10.08-5.36,2.12,2.12,0,0,1,.11.21"/>
      <path class="cls-5" d="M97.47,397.88c0-.08,0-.08-.09-.07a2.11,2.11,0,0,1-.75.13c-.71,0-1-.42-1-1.15v-4.5h1.72a.08.08,0,0,0,.09-.07v-1c0-.08,0-.11-.09-.11h-1.7a15.65,15.65,0,0,1,.1-2.27c0-.07,0-.08-.1-.07l-1.09.18a.15.15,0,0,0-.11.11c-.06.35-.13,1.46-.14,2.05H93.22c-.08,0-.11,0-.11.11v.91c0,.08,0,.12.11.13h1.13V397c0,1.54.7,2.1,1.87,2.1a2.92,2.92,0,0,0,1.2-.23c.08,0,.09-.09.09-.16Zm-11.9.92c0,.08,0,.12.1.12H86.8c.08,0,.1,0,.1-.12v-5.66a2.56,2.56,0,0,1,2-1c1.12,0,1.65.82,1.65,2v4.59c0,.09,0,.13.11.13h1.12c.08,0,.11,0,.11-.12V394c0-2.53-1.47-3.09-2.61-3.09A3.34,3.34,0,0,0,86.83,392a5.29,5.29,0,0,0-.09-.8.13.13,0,0,0-.15-.1h-1c-.08,0-.09,0-.09.1,0,.27.06,1.16.06,1.71Zm-6.91-4.6a2.18,2.18,0,0,1,2.13-2.12,1.86,1.86,0,0,1,1.88,1.84V394a.49.49,0,0,1,0,.17,5.57,5.57,0,0,1-1,0Zm3.47,1a13,13,0,0,0,1.65-.07.1.1,0,0,0,.11-.09h0a3.82,3.82,0,0,0,.06-.83A3.06,3.06,0,0,0,81.08,391h-.25c-2.22,0-3.53,1.87-3.53,4.11,0,1.95,1,4,3.76,4a4.85,4.85,0,0,0,2.25-.47.22.22,0,0,0,.08-.16v-.91c0-.06,0-.1-.08-.06a4.62,4.62,0,0,1-2,.43,2.5,2.5,0,0,1-2.67-2.31,2.81,2.81,0,0,1,0-.41Zm-16.35,3.68c.08,0,.09,0,.09-.1V393a2.62,2.62,0,0,1,1.94-.9c1,0,1.6.71,1.6,1.92v4.72c0,.08,0,.12.11.12h1.12c.08,0,.11,0,.11-.12v-4.68a5.55,5.55,0,0,0-.08-1,2.62,2.62,0,0,1,2-.93c1.14,0,1.63.88,1.63,2v4.67a.11.11,0,0,0,.1.12h1.12c.08,0,.11,0,.11-.1v-4.78c0-2.44-1.41-3.06-2.59-3.06a3.66,3.66,0,0,0-2.67,1.17A2.25,2.25,0,0,0,68.24,391a3.39,3.39,0,0,0-2.4,1,4.91,4.91,0,0,0-.1-.77.13.13,0,0,0-.12-.08h-1c-.08,0-.1,0-.1.1,0,.3.07.88.07,1.58v6c0,.08,0,.12.09.12Zm-8.15-4.72A2.18,2.18,0,0,1,59.76,392a1.87,1.87,0,0,1,1.89,1.85V394a.49.49,0,0,1,0,.17,5.57,5.57,0,0,1-1,0Zm3.48,1a12.78,12.78,0,0,0,1.64-.07c.07,0,.12,0,.12-.09a3.82,3.82,0,0,0,.06-.83A3.06,3.06,0,0,0,60.06,391h-.25c-2.22,0-3.54,1.87-3.54,4.11,0,1.95,1,4,3.76,4a5,5,0,0,0,2.26-.47.22.22,0,0,0,.08-.16v-.91c0-.06,0-.1-.08-.06a4.62,4.62,0,0,1-2,.43,2.48,2.48,0,0,1-2.67-2.29,3.09,3.09,0,0,1,0-.43Zm-8.55,3.72c.08,0,.11,0,.15-.1.35-1,2.3-6.32,2.76-7.57,0-.08,0-.11-.06-.11H54.35a.12.12,0,0,0-.13.08c-1.41,4.1-2,5.81-2.19,6.46h0c-.17-.65-.75-2.4-2.09-6.44,0-.07,0-.1-.13-.1H48.58c-.08,0-.08,0-.07.11.39,1.07,2.36,6.61,2.69,7.59a.14.14,0,0,0,.15.08Zm-8.62-6.79c1.66,0,2.35,1.43,2.35,2.91,0,2-1.12,2.88-2.26,2.88-1.52,0-2.36-1.29-2.36-2.92s.92-2.87,2.27-2.87m.06-1.15a3.74,3.74,0,0,0-3.66,3.82,1.85,1.85,0,0,0,0,.23c0,2,1.11,4.05,3.68,4.05,2.15,0,3.65-1.64,3.65-4.07s-1.39-4-3.65-4m-8.33.16c-.07,0-.08,0-.08.1.05.44.08,1.37.08,2v5.52c0,.08,0,.12.11.12H37c.06,0,.09,0,.09-.1v-5.31a3,3,0,0,1,2.51-1.17c.1,0,.11,0,.11-.1V391c0-.09,0-.11-.11-.11A3.34,3.34,0,0,0,37,392.31a7,7,0,0,0-.12-1.11c0-.08,0-.11-.15-.11Zm-5.59,1a2.42,2.42,0,0,1,2.56,2.27,2,2,0,0,1,0,.42,3,3,0,0,1-2.94,3.06h-.21a3.47,3.47,0,0,1-.91-.09v-5.43a4.15,4.15,0,0,1,1.48-.25m.16-1.17a8.15,8.15,0,0,0-3,.64.06.06,0,0,0,0,.06v10.71c0,.08,0,.09.08.09l1.17-.13c.08,0,.08,0,.08-.11V399a4.43,4.43,0,0,0,.81.07,4.28,4.28,0,0,0,4.57-4c0-.12,0-.23,0-.35A3.55,3.55,0,0,0,30.65,391a3.23,3.23,0,0,0-.44,0m-15,7.94c.08,0,.09,0,.09-.1v-5.76a2.62,2.62,0,0,1,1.94-.9c1,0,1.6.71,1.6,1.92v4.72c0,.08,0,.12.11.12h1.1c.08,0,.11,0,.11-.12v-4.71a5.55,5.55,0,0,0-.08-1,2.62,2.62,0,0,1,2-.93c1.14,0,1.63.88,1.63,2v4.67a.11.11,0,0,0,.1.12h1.12c.08,0,.11,0,.11-.1v-4.78c0-2.44-1.41-3.06-2.59-3.06a3.66,3.66,0,0,0-2.67,1.17A2.25,2.25,0,0,0,17.65,391a3.39,3.39,0,0,0-2.4,1,4.91,4.91,0,0,0-.1-.77.13.13,0,0,0-.12-.08H14c-.08,0-.1,0-.1.1,0,.3.07.88.07,1.58v6c0,.08,0,.12.09.12Zm-3.59-10.48c0-.07,0-.1-.09-.1H10.35c-.06,0-.09,0-.09.11v10.35c0,.08,0,.12.11.12h1.12c.08,0,.09,0,.09-.12Z"/>
      <path class="cls-5" d="M134.45,373.31c.08.05.13,0,.13-.08v-1c0-.06,0-.13-.08-.16a4.16,4.16,0,0,0-1.87-.35c-1.75,0-2.72,1-2.72,2.16s.67,1.79,2.27,2.4c1.1.43,1.45.78,1.45,1.38s-.49,1-1.52,1A3.93,3.93,0,0,1,130,378s-.09,0-.09.08v1.07a.14.14,0,0,0,.08.14,4.52,4.52,0,0,0,2.14.47c1.67,0,2.87-.82,2.87-2.29,0-1.14-.66-1.79-2.28-2.42-1.2-.48-1.48-.81-1.48-1.29s.35-1,1.4-1a3.89,3.89,0,0,1,1.86.47m-6.4-1.31c0-.07,0-.1-.1-.1h-1.12c-.08,0-.11,0-.11.1v5.94a2.41,2.41,0,0,1-1.85.81c-1.12,0-1.7-.75-1.7-2V372c0-.07,0-.1-.08-.1H122c-.08,0-.11,0-.11.1v4.86c0,2.32,1.28,3,2.64,3a3.14,3.14,0,0,0,2.32-.93,5.46,5.46,0,0,0,.1.69.11.11,0,0,0,.13.08h1c.08,0,.1,0,.1-.1a9.49,9.49,0,0,1-.1-1.6Zm-11.57.89c1.67,0,2.35,1.43,2.35,2.91,0,2-1.12,2.88-2.25,2.88-1.52,0-2.37-1.29-2.37-2.92s.93-2.87,2.27-2.87m.07-1.15a3.73,3.73,0,0,0-3.69,3.79,2.35,2.35,0,0,0,0,.26c0,2,1.1,4,3.68,4,2.14,0,3.64-1.64,3.64-4.07s-1.39-4-3.64-4m-5.38.26c0-.07,0-.1-.1-.1H110c-.08,0-.11,0-.11.1v6a2.41,2.41,0,0,1-1.85.81c-1.12,0-1.7-.75-1.7-2V372c0-.07,0-.1-.08-.1h-1.14c-.08,0-.11,0-.11.1v4.86c0,2.32,1.28,3,2.64,3a3.14,3.14,0,0,0,2.32-.93,5.46,5.46,0,0,0,.1.69.11.11,0,0,0,.13.08h1c.08,0,.1,0,.1-.1a9.49,9.49,0,0,1-.1-1.6Zm-14.75,7.56q0,.12.09.12h1.14c.08,0,.1,0,.1-.12v-5.6a2.56,2.56,0,0,1,2-1c1.12,0,1.64.82,1.64,2v4.59c0,.09,0,.13.12.13h1.12c.08,0,.11,0,.11-.12v-4.6c0-2.53-1.47-3.09-2.61-3.09a3.34,3.34,0,0,0-2.45,1.06,5.29,5.29,0,0,0-.09-.8c0-.07-.07-.1-.15-.1h-1c-.08,0-.1,0-.1.1,0,.27.07,1.16.07,1.71Zm-2.93-9.2a.77.77,0,0,0,.82-.72v-.09a.77.77,0,0,0-.7-.82h-.1a.79.79,0,0,0-.82.76v.06a.75.75,0,0,0,.69.81h.11m-.67,9.19a.12.12,0,0,0,.11.13h1.12c.1,0,.11,0,.11-.12v-7.56c0-.08,0-.1-.09-.1H92.93c-.08,0-.11,0-.11.11Zm-1.46-.91c0-.08,0-.08-.09-.07a2.17,2.17,0,0,1-.76.13c-.7,0-1-.42-1-1.15V373H91.2c.07,0,.1,0,.1-.09v-.95c0-.08,0-.11-.1-.11H89.51c0-.78,0-1.71.09-2.27,0-.07,0-.08-.09-.07l-1.09.18a.13.13,0,0,0-.11.11c-.07.35-.13,1.46-.15,2H87.08c-.08,0-.12,0-.12.11v1c0,.08,0,.12.12.13h1.08v4.69c0,1.54.71,2.1,1.88,2.1a2.92,2.92,0,0,0,1.2-.23c.08,0,.09-.09.09-.16Zm-11.9.92q0,.12.09.12h1.14c.08,0,.1,0,.1-.12v-5.6a2.56,2.56,0,0,1,2-1c1.12,0,1.64.82,1.64,2v4.59c0,.09,0,.13.12.13h1.12c.08,0,.11,0,.11-.12v-4.6c0-2.53-1.47-3.09-2.61-3.09a3.34,3.34,0,0,0-2.45,1.06,5.29,5.29,0,0,0-.09-.8c0-.07-.07-.1-.15-.1h-1c-.08,0-.1,0-.1.1,0,.27.07,1.16.07,1.71Zm-5.38-6.6c1.67,0,2.35,1.43,2.35,2.91,0,2-1.12,2.88-2.25,2.88-1.52,0-2.37-1.29-2.37-2.92s.93-2.87,2.27-2.87m.07-1.15a3.73,3.73,0,0,0-3.69,3.79,2.35,2.35,0,0,0,0,.26c0,2,1.1,4,3.68,4,2.14,0,3.64-1.64,3.64-4.07s-1.39-4-3.64-4m-4.71,6.66c0-.08,0-.08-.09-.07a5.43,5.43,0,0,1-2,.29,4.24,4.24,0,0,1,0-8.48h0a4.57,4.57,0,0,1,2,.37s.11,0,.11-.08v-1.07c0-.07,0-.12-.08-.13a4.87,4.87,0,0,0-2-.29c-3.41,0-5.62,2.22-5.62,5.42a5.1,5.1,0,0,0,4.69,5.48,5.77,5.77,0,0,0,.72,0,5.66,5.66,0,0,0,2.16-.31c.07,0,.08-.08.08-.16Zm-13.17-3.92c.07,0,.1,0,.12-.1l.17-1c0-.07,0-.1-.08-.1H51.35A2.61,2.61,0,0,1,50,371.4c0-.9.64-1.33,1.66-1.33a3.26,3.26,0,0,1,1.68.4c.06,0,.11,0,.11-.07v-1a.17.17,0,0,0-.06-.16,3.79,3.79,0,0,0-1.76-.34c-1.7,0-3,.92-3,2.52a3,3,0,0,0,1.09,2.16,3.17,3.17,0,0,0,1,6.24,3.8,3.8,0,0,0,1.79-.32c.07,0,.1-.05.1-.13v-1c0-.07,0-.1-.08-.08a3.61,3.61,0,0,1-1.62.32,2.1,2.1,0,0,1-2.31-1.87s0-.09,0-.13a2,2,0,0,1,1.91-2,12,12,0,0,1,3,3.36c1.1,1.68,1.76,2,2.7,2a1.89,1.89,0,0,0,.74-.12c.08,0,.08-.06.08-.16v-.94c0-.08,0-.1-.08-.08a1.77,1.77,0,0,1-.46,0c-.72,0-1.19-.39-1.89-1.43a17.51,17.51,0,0,0-2.25-2.76Zm-19.15.48a2.18,2.18,0,0,1,2.13-2.05,1.87,1.87,0,0,1,1.89,1.85v.06a.49.49,0,0,1,0,.17,5.57,5.57,0,0,1-1,0Zm3.48,1a12.78,12.78,0,0,0,1.64-.07c.07,0,.12,0,.12-.09a3.82,3.82,0,0,0,.06-.83,3.06,3.06,0,0,0-2.9-3.2h-.17c-2.22,0-3.54,1.87-3.54,4.11,0,1.95,1,4,3.76,4a5,5,0,0,0,2.26-.47.22.22,0,0,0,.08-.16v-.91c0-.06,0-.1-.08-.06a4.62,4.62,0,0,1-2,.43,2.48,2.48,0,0,1-2.67-2.29,3.09,3.09,0,0,1,0-.43ZM32.47,378c0,1.5.75,1.78,1.53,1.78a1.89,1.89,0,0,0,.74-.12c.06,0,.08,0,.08-.12v-.84q0-.09-.06-.09a1.71,1.71,0,0,1-.32,0c-.39,0-.64-.15-.64-.77v-9.65c0-.06,0-.1-.1-.1H32.58c-.08,0-.11,0-.11.1Zm-2.24-3.31a2.7,2.7,0,0,0-2.37-3,3.13,3.13,0,0,0-.53,0,5.23,5.23,0,0,0-2.27.48.13.13,0,0,0-.08.13v1a.1.1,0,0,0,.07.09h0a4.34,4.34,0,0,1,2-.48,1.57,1.57,0,0,1,1.79,1.33,1.23,1.23,0,0,1,0,.27v.34H27.8c-2,0-3.57.75-3.57,2.44s1.28,2.52,3,2.52a6.63,6.63,0,0,0,3-.69v-.07a4.82,4.82,0,0,1,0-.76Zm-1.3,3.73a3.59,3.59,0,0,1-1.45.27c-1.41,0-1.91-.71-1.91-1.43,0-.89.75-1.42,2.31-1.42a8.39,8.39,0,0,1,1,.06Zm-5.82,0s0-.08-.1-.07a4,4,0,0,1-1.49.23,2.86,2.86,0,1,1,0-5.72,3.74,3.74,0,0,1,1.48.24c.06,0,.11,0,.11-.06v-1c0-.08,0-.11-.07-.14a4.35,4.35,0,0,0-5.48,2.79,4,4,0,0,0-.21,1.09,3.77,3.77,0,0,0,3.53,4h.47a4.9,4.9,0,0,0,1.74-.26c.07,0,.07-.05.07-.11Zm-10.76,1.42c2.33,0,3.63-1.25,3.63-3,0-1.2-.58-2.19-2.54-3l-.69-.29c-1.43-.61-1.84-1.15-1.84-1.87s.45-1.54,2.11-1.54a4.66,4.66,0,0,1,2.35.53c.08,0,.13,0,.13-.07v-1.07a.15.15,0,0,0-.08-.16,5.37,5.37,0,0,0-2.37-.43c-2.16,0-3.44,1.18-3.44,2.85,0,1.07.45,2.08,2.43,2.93l.71.28c1.45.66,1.89,1.22,1.89,2,0,1-.71,1.65-2.24,1.65a5,5,0,0,1-2.74-.78H9.55v1.16c0,.09,0,.16.09.19a5.56,5.56,0,0,0,2.71.62"/>
      <path class="cls-5" d="M62.72,338.53a2.18,2.18,0,0,1,2.13-2.11,1.87,1.87,0,0,1,1.89,1.85v.05a.54.54,0,0,1,0,.18,8.34,8.34,0,0,1-1,0Zm3.47,1a15.17,15.17,0,0,0,1.65-.06.1.1,0,0,0,.11-.09h0a3.29,3.29,0,0,0,.07-.83,3.06,3.06,0,0,0-2.87-3.22H64.9c-2.23,0-3.54,1.88-3.54,4.12,0,1.95,1,4,3.76,4a5,5,0,0,0,2.26-.46.17.17,0,0,0,.08-.16v-.94c0-.06,0-.09-.08-.06a4.62,4.62,0,0,1-2,.43A2.48,2.48,0,0,1,62.71,340a3.09,3.09,0,0,1,0-.43Zm-5.79,2.53c0-.05,0-.08-.09-.06a4,4,0,0,1-1.49.22,2.86,2.86,0,0,1,0-5.71,3.69,3.69,0,0,1,1.47.24c.06,0,.11,0,.11-.07v-1c0-.08,0-.12-.06-.15a3.92,3.92,0,0,0-1.52-.21,4,4,0,0,0-4.18,3.82v.26a3.77,3.77,0,0,0,3.53,4,2.94,2.94,0,0,0,.42,0,5,5,0,0,0,1.75-.26c.06,0,.06,0,.06-.11Zm-13.76,1.09c0,.08,0,.11.1.11h1.14c.08,0,.09,0,.09-.11v-5.67a2.58,2.58,0,0,1,2-1c1.12,0,1.65.81,1.65,2v4.59c0,.1,0,.13.11.13h1.12c.08,0,.11,0,.11-.11v-4.74c0-2.53-1.47-3.09-2.6-3.09a3.35,3.35,0,0,0-2.45,1.06,4.27,4.27,0,0,0-.1-.8.15.15,0,0,0-.14-.1h-1c-.08,0-.1,0-.1.1,0,.27.06,1.17.06,1.71Zm-6.91-4.61a2.18,2.18,0,0,1,2.13-2.11,1.87,1.87,0,0,1,1.89,1.85v.05a.54.54,0,0,1,0,.18,8.34,8.34,0,0,1-1,0Zm3.47,1a15.17,15.17,0,0,0,1.65-.06.1.1,0,0,0,.11-.09h0a3.29,3.29,0,0,0,.07-.83,3.06,3.06,0,0,0-2.87-3.22h-.25c-2.23,0-3.54,1.88-3.54,4.12,0,1.95,1,4,3.76,4a5,5,0,0,0,2.26-.46.17.17,0,0,0,.08-.16v-.95c0-.06,0-.09-.08-.06a4.62,4.62,0,0,1-2,.43A2.48,2.48,0,0,1,39.72,340a3.09,3.09,0,0,1,0-.43Zm-6.52-4c0-.06,0-.1-.1-.1H35.46c-.08,0-.11,0-.11.1v5.84a2.37,2.37,0,0,1-1.86.82c-1.12,0-1.69-.76-1.69-2v-4.67c0-.06,0-.1-.08-.1H30.58c-.08,0-.11,0-.11.1v4.83c0,2.32,1.28,3,2.64,3a3.14,3.14,0,0,0,2.32-.93,4.08,4.08,0,0,0,.09.69c0,.06,0,.08.13.08h1c.08,0,.09,0,.09-.1a10.73,10.73,0,0,1-.09-1.6Zm-9.92,6.06c0,1.51.75,1.78,1.53,1.78a2.08,2.08,0,0,0,.74-.11.11.11,0,0,0,.08-.13v-.83c0-.07,0-.1-.07-.1a1.13,1.13,0,0,1-.32.05c-.38,0-.62-.14-.62-.77v-9.66c0-.06,0-.09-.11-.09H26.87c-.08,0-.11,0-.11.09Zm-4.1-5v6.51c0,.08,0,.11.1.11h1.13c.08,0,.1,0,.1-.11v-6.51h1.53c.07,0,.1,0,.1-.12v-1s0-.08-.1-.08H24v-.78c0-1.54.49-1.89,1.21-1.89a1.42,1.42,0,0,1,.58.1.08.08,0,0,0,.1-.06v-1a.16.16,0,0,0-.08-.13,2.19,2.19,0,0,0-.72-.09,2.17,2.17,0,0,0-2.07,1.2,4.2,4.2,0,0,0-.35,2v.7h-1s-.08,0-.08.1v.94c0,.08,0,.12.08.12ZM14,343.16c0,.08,0,.11.09.11h1.14c.08,0,.09,0,.09-.11v-5.67a2.58,2.58,0,0,1,2-1c1.12,0,1.65.81,1.65,2v4.59c0,.1,0,.13.11.13h1.12c.08,0,.12,0,.12-.11v-4.74c0-2.53-1.48-3.09-2.61-3.09a3.35,3.35,0,0,0-2.45,1.06,4.27,4.27,0,0,0-.1-.8.15.15,0,0,0-.14-.1H14c-.08,0-.1,0-.1.1,0,.27.07,1.17.07,1.71ZM11.6,332.79c0-.06,0-.1-.09-.1H10.35q-.09,0-.09.12v10.35c0,.08,0,.11.11.11h1.12c.08,0,.09,0,.09-.11Z"/>
      <path class="cls-5" d="M146.91,318.88c.07,0,.1,0,.11-.1l.18-1c0-.06,0-.09-.08-.09H142c-.72-.52-1.35-1.16-1.35-1.86,0-.9.64-1.33,1.67-1.33a3.26,3.26,0,0,1,1.68.4c.06,0,.11,0,.11-.06v-1a.23.23,0,0,0-.06-.16,3.81,3.81,0,0,0-1.76-.33c-1.7,0-2.95.91-2.95,2.51A3,3,0,0,0,140.4,318a3.2,3.2,0,0,0-2.43,3.06,3.16,3.16,0,0,0,3.12,3.2l.35,0a3.8,3.8,0,0,0,1.79-.32c.07,0,.1-.05.1-.13v-1c0-.06,0-.09-.08-.08a3.61,3.61,0,0,1-1.62.32,2.1,2.1,0,0,1-2.27-1.91,2.26,2.26,0,0,1,0-.26,2,2,0,0,1,1.91-2,12,12,0,0,1,3,3.36c1.1,1.68,1.76,1.95,2.7,1.95a1.71,1.71,0,0,0,.74-.11c.08,0,.08-.07.08-.16V323c0-.08,0-.09-.08-.08a1.83,1.83,0,0,1-.47.05c-.72,0-1.18-.38-1.88-1.42a17.18,17.18,0,0,0-2.28-2.69Zm-19.15.48a2.17,2.17,0,0,1,2.13-2.11,1.87,1.87,0,0,1,1.89,1.85v0a.54.54,0,0,1,0,.18,8.34,8.34,0,0,1-1,0Zm3.47,1a15.17,15.17,0,0,0,1.65-.06.11.11,0,0,0,.11-.1,4.57,4.57,0,0,0,.07-.83,3.06,3.06,0,0,0-2.9-3.22h-.22c-2.23,0-3.54,1.88-3.54,4.12,0,2,1,4,3.76,4a5,5,0,0,0,2.26-.46.21.21,0,0,0,.08-.16v-.92c0-.06,0-.09-.08-.06a4.62,4.62,0,0,1-2,.43,2.49,2.49,0,0,1-2.68-2.3,2.94,2.94,0,0,1,0-.42Zm-5.79,2.52c0-.05,0-.08-.1-.06a4,4,0,0,1-1.48.22,2.86,2.86,0,0,1,0-5.71,3.69,3.69,0,0,1,1.47.24c.06,0,.11,0,.11-.07v-1c0-.08,0-.12-.06-.15a3.92,3.92,0,0,0-1.52-.21,4,4,0,0,0-4.18,3.82v.26a3.77,3.77,0,0,0,3.53,4h.42a5,5,0,0,0,1.75-.26c.06,0,.06,0,.06-.11ZM111.68,324c0,.08,0,.11.1.11h1.13c.08,0,.1,0,.1-.11V318.3a2.58,2.58,0,0,1,2-1c1.12,0,1.65.81,1.65,2v4.58c0,.1,0,.13.11.13h1.12c.08,0,.11,0,.11-.11v-4.74c0-2.53-1.47-3.09-2.61-3.09a3.39,3.39,0,0,0-2.45,1.06,5.29,5.29,0,0,0-.09-.8.15.15,0,0,0-.15-.1h-1c-.08,0-.09,0-.09.1,0,.27.06,1.17.06,1.71Zm-6.91-4.61a2.17,2.17,0,0,1,2.13-2.11,1.86,1.86,0,0,1,1.88,1.84v.24a8.34,8.34,0,0,1-1,0Zm3.47,1a15.17,15.17,0,0,0,1.65-.06.11.11,0,0,0,.11-.1,3.82,3.82,0,0,0,.06-.83,3.06,3.06,0,0,0-2.87-3.22h-.25c-2.22,0-3.53,1.88-3.53,4.12,0,2,1,4,3.76,4a4.84,4.84,0,0,0,2.25-.46.17.17,0,0,0,.08-.16v-.92c0-.06,0-.09-.08-.06a4.62,4.62,0,0,1-2,.43,2.5,2.5,0,0,1-2.67-2.31,2.81,2.81,0,0,1,0-.41Zm-6.46-2.64c.08,0,.12,0,.12-.08v-1c0-.07,0-.13-.08-.16a3.89,3.89,0,0,0-1.87-.36c-1.74,0-2.72,1-2.72,2.16s.67,1.8,2.27,2.4c1.11.44,1.46.79,1.46,1.38s-.5,1-1.52,1a3.85,3.85,0,0,1-2.16-.64s-.1,0-.1.08v1.07a.18.18,0,0,0,.08.15,4.71,4.71,0,0,0,2.15.46c1.66,0,2.86-.82,2.86-2.29,0-1.13-.65-1.79-2.27-2.41-1.2-.48-1.49-.82-1.49-1.3s.35-1,1.41-1a4,4,0,0,1,1.86.46m-11.15,1.65a2.17,2.17,0,0,1,2.12-2.11A1.86,1.86,0,0,1,94.64,319v.25a8.34,8.34,0,0,1-1,0Zm3.47,1a15.17,15.17,0,0,0,1.65-.06.11.11,0,0,0,.11-.1,3.82,3.82,0,0,0,.06-.83,3.06,3.06,0,0,0-2.87-3.22H92.8c-2.22,0-3.53,1.88-3.53,4.12,0,1.95,1,4,3.76,4a4.84,4.84,0,0,0,2.25-.46.17.17,0,0,0,.08-.16v-.92c0-.06,0-.09-.08-.06a4.62,4.62,0,0,1-2,.43,2.48,2.48,0,0,1-2.67-2.29,2.06,2.06,0,0,1,0-.43Zm-9.49-4.05c-.06,0-.08,0-.08.1,0,.45.08,1.38.08,2.05v5.52c0,.08,0,.11.11.11h1.14c.06,0,.09,0,.09-.1v-5.31a3,3,0,0,1,2.51-1.17c.1,0,.11,0,.11-.09V316.2c0-.1,0-.12-.11-.12a3.34,3.34,0,0,0-2.57,1.38,6.74,6.74,0,0,0-.13-1.1q0-.12-.15-.12Zm-7-1.61H79c1.61,0,2.73.78,2.73,2.24,0,1.74-1.36,2.33-2.93,2.33H77.61Zm-1.33,9.29c0,.07,0,.1.1.1h1.13c.08,0,.1,0,.1-.11v-3.55h1.23c2.32,0,4.24-1.13,4.24-3.57,0-1.79-1.25-3.39-4.08-3.39-1.07,0-2.13,0-2.64.05-.06,0-.08.05-.08.11ZM65.51,319.3a2.18,2.18,0,0,1,2.13-2.11A1.87,1.87,0,0,1,69.53,319v0a.54.54,0,0,1,0,.18,8.34,8.34,0,0,1-1,0Zm3.47,1a15.17,15.17,0,0,0,1.65-.06.1.1,0,0,0,.11-.09h0a3.29,3.29,0,0,0,.07-.83,3.06,3.06,0,0,0-2.87-3.22h-.25c-2.23,0-3.54,1.88-3.54,4.12,0,2,1,4,3.76,4a5,5,0,0,0,2.26-.46.17.17,0,0,0,.08-.16v-.92c0-.06,0-.09-.08-.06a4.62,4.62,0,0,1-2,.43,2.48,2.48,0,0,1-2.67-2.29,3.09,3.09,0,0,1,0-.43ZM60.44,324a.12.12,0,0,0,.14-.1c.36-1,2.31-6.32,2.77-7.56,0-.08,0-.12-.06-.12H62.18a.13.13,0,0,0-.12.08c-1.41,4.1-2,5.81-2.2,6.47h0c-.17-.66-.75-2.4-2.09-6.45,0-.06-.05-.1-.13-.1H56.35c-.08,0-.08.05-.07.12.39,1.07,2.35,6.6,2.69,7.58a.12.12,0,0,0,.14.08Zm-6.19-9.31a.77.77,0,0,0,.81-.73v-.09a.75.75,0,0,0-.69-.81h-.11a.77.77,0,0,0-.81.73v.08a.77.77,0,0,0,.7.82h.1m-.67,9.18c0,.1,0,.13.12.13h1.11c.09,0,.11,0,.11-.11v-7.57c0-.08,0-.1-.1-.1H53.69c-.08,0-.11,0-.11.12ZM52.12,323c0-.08,0-.08-.1-.06a2.4,2.4,0,0,1-.75.12c-.7,0-1-.41-1-1.15v-4.49H52a.09.09,0,0,0,.1-.08v-1c0-.08,0-.12-.1-.12H50.35a17.37,17.37,0,0,1,.09-2.27q0-.09-.09-.06l-1.09.17a.13.13,0,0,0-.11.12c-.07.35-.13,1.45-.15,2H47.91c-.08,0-.11,0-.11.12v.91c0,.08,0,.11.11.13H49v4.68c0,1.54.71,2.1,1.87,2.1a2.91,2.91,0,0,0,1.2-.22.16.16,0,0,0,.1-.16Zm-5.77-6.62c0-.06,0-.1-.1-.1h-1.1c-.08,0-.11,0-.11.1v5.84a2.41,2.41,0,0,1-1.85.82c-1.12,0-1.7-.76-1.7-2v-4.67c0-.06,0-.1-.08-.1H40.27c-.08,0-.11,0-.11.1v4.83c0,2.32,1.28,3,2.64,3a3.14,3.14,0,0,0,2.32-.93,4.1,4.1,0,0,0,.1.69.11.11,0,0,0,.13.08h1c.08,0,.1,0,.1-.1a9.49,9.49,0,0,1-.1-1.6Zm-7.63,6.51c0-.05,0-.08-.09-.06a4,4,0,0,1-1.49.22,2.86,2.86,0,0,1,0-5.71,3.69,3.69,0,0,1,1.47.24c.06,0,.11,0,.11-.07v-1c0-.08,0-.12-.06-.15a3.92,3.92,0,0,0-1.52-.21A4,4,0,0,0,33,320v.26a3.77,3.77,0,0,0,3.53,4H37a5,5,0,0,0,1.75-.26c.06,0,.06,0,.06-.11Zm-12.25-3.52a2.17,2.17,0,0,1,2.13-2.11,1.86,1.86,0,0,1,1.88,1.84v.24a8.34,8.34,0,0,1-1,0Zm3.47,1a15.17,15.17,0,0,0,1.65-.06.11.11,0,0,0,.11-.1,3.82,3.82,0,0,0,.06-.83,3.06,3.06,0,0,0-2.87-3.22h-.25c-2.22,0-3.53,1.88-3.53,4.12,0,2,1,4,3.76,4a4.84,4.84,0,0,0,2.25-.46.17.17,0,0,0,.08-.16v-.92c0-.06,0-.09-.08-.06a4.62,4.62,0,0,1-2,.43,2.5,2.5,0,0,1-2.67-2.31,2.81,2.81,0,0,1,0-.41Zm-9.71-.16c-.74,1-1.83,2.72-2.56,3.78,0,.06,0,.11.06.11h1.19c.08,0,.09,0,.12-.08l2-3.09h0L23,324a.14.14,0,0,0,.16.1h1.35c.08,0,.11-.06.06-.11-.56-.77-2-2.88-2.66-3.84.71-1,1.92-2.79,2.55-3.71,0-.07,0-.12-.05-.12H23.24a.12.12,0,0,0-.13.08l-2,3h0l-1.87-3a.18.18,0,0,0-.16-.1H17.8c-.07,0-.1.07,0,.13ZM16.77,323c0-.06,0-.1-.08-.1H11.6v-3.58h4.32a.09.09,0,0,0,.1-.08v-1a.09.09,0,0,0-.08-.1H11.6v-3.34h4.75c.08,0,.09-.05.08-.11l-.13-1c0-.08,0-.1-.11-.1H10.35c-.08,0-.11,0-.11.12v10.22c0,.1,0,.13.12.13h6.08c.07,0,.1,0,.12-.1Z"/>
      <path class="cls-5" d="M143.84,271.66c.08,0,.13,0,.13-.08v-1c0-.06,0-.13-.08-.16a4.16,4.16,0,0,0-1.87-.35c-1.75,0-2.72,1-2.72,2.16s.67,1.79,2.27,2.4c1.1.43,1.45.78,1.45,1.38s-.49,1-1.52,1a3.93,3.93,0,0,1-2.16-.64s-.09,0-.09.08v1.07a.14.14,0,0,0,.08.14,4.52,4.52,0,0,0,2.14.47c1.67,0,2.87-.82,2.87-2.29,0-1.14-.66-1.79-2.28-2.42-1.2-.48-1.48-.81-1.48-1.29s.35-1,1.4-1a3.89,3.89,0,0,1,1.86.47m-5.71,5.33c0-.08,0-.08-.1-.07a2.11,2.11,0,0,1-.75.13c-.7,0-1-.42-1-1.15v-4.5H138c.06,0,.1,0,.1-.09v-.95c0-.08,0-.11-.1-.11h-1.63c0-.78.05-1.71.1-2.27,0-.07,0-.08-.1-.07l-1.08.18a.14.14,0,0,0-.12.11c-.06.35-.12,1.46-.14,2.05h-1.09c-.08,0-.11,0-.11.11v.91c0,.08,0,.12.11.13H135V276c0,1.54.7,2.1,1.87,2.1a2.92,2.92,0,0,0,1.2-.23.14.14,0,0,0,.1-.16Zm-7.33-.58c0,1.5.75,1.78,1.54,1.78a1.81,1.81,0,0,0,.73-.12c.07,0,.08,0,.08-.12v-.84c0-.06,0-.09-.06-.09a1.13,1.13,0,0,1-.32.05c-.39,0-.64-.15-.64-.77v-9.65c0-.06,0-.1-.1-.1h-1.12c-.08,0-.11,0-.11.1Zm-2.26-6.06c0-.07,0-.1-.09-.1h-1.1c-.08,0-.11,0-.11.1v5.84a2.43,2.43,0,0,1-1.86.81c-1.12,0-1.7-.75-1.7-2v-4.67c0-.07,0-.1-.08-.1h-1.15c-.08,0-.11,0-.11.1v4.83c0,2.32,1.28,3,2.64,3a3.14,3.14,0,0,0,2.32-.93,4.08,4.08,0,0,0,.09.69.11.11,0,0,0,.13.08h1c.08,0,.1,0,.1-.1a9.49,9.49,0,0,1-.1-1.6Zm-8.28,1.31c.08,0,.12,0,.12-.08v-1c0-.06,0-.13-.08-.16a4.16,4.16,0,0,0-1.87-.35c-1.74,0-2.72,1-2.72,2.16s.67,1.79,2.27,2.4c1.11.43,1.46.78,1.46,1.38s-.5,1-1.52,1a3.93,3.93,0,0,1-2.16-.64s-.1,0-.1.08v1.07a.16.16,0,0,0,.08.14,4.59,4.59,0,0,0,2.15.47c1.66,0,2.86-.82,2.86-2.29,0-1.14-.65-1.79-2.27-2.42-1.2-.48-1.49-.81-1.49-1.29s.35-1,1.41-1a3.89,3.89,0,0,1,1.86.47m-11.15,1.65a2.17,2.17,0,0,1,2.12-2.12,1.87,1.87,0,0,1,1.89,1.85V273a.49.49,0,0,1,0,.17,5.57,5.57,0,0,1-1,0Zm3.47,1a13,13,0,0,0,1.65-.07.1.1,0,0,0,.11-.09h0a3.82,3.82,0,0,0,.06-.83,3.06,3.06,0,0,0-2.87-3.22h-.25c-2.22,0-3.53,1.87-3.53,4.11,0,2,1,4,3.76,4a5,5,0,0,0,2.25-.47s.08-.06.08-.16v-.91c0-.06,0-.1-.08-.06a4.62,4.62,0,0,1-2,.43,2.48,2.48,0,0,1-2.67-2.29,3.09,3.09,0,0,1,0-.43Zm-11.75-1.79v-3.88h1.52c1.72,0,2.64.72,2.64,1.94s-.92,2-2.44,2Zm-.09,5.52c.06,0,.09,0,.09-.1v-4.26h1.83c.16,0,.24.07.37.26.8,1.23,2.12,3.28,2.62,4a.2.2,0,0,0,.18.07h1.34c.08,0,.08-.07,0-.13-.42-.69-2.56-3.84-3.11-4.59a3,3,0,0,0,2.21-2.84c0-2-1.57-3-3.92-3H99.62c-.08,0-.1,0-.1.12v10.34c0,.08,0,.1.1.1Zm-10.16-7.78c-.07,0-.08,0-.08.1,0,.44.08,1.37.08,2v5.64c0,.08,0,.12.11.12h1.14c.06,0,.09,0,.09-.1v-5.31a3,3,0,0,1,2.51-1.17c.1,0,.11,0,.11-.1v-1.15c0-.09,0-.11-.11-.11a3.34,3.34,0,0,0-2.58,1.38,7,7,0,0,0-.12-1.11c0-.08,0-.11-.15-.11Zm-5.38,1c1.67,0,2.35,1.43,2.35,2.91,0,2-1.12,2.88-2.25,2.88-1.52,0-2.37-1.29-2.37-2.92s.93-2.87,2.27-2.87m.07-1.15a3.73,3.73,0,0,0-3.69,3.79,2.35,2.35,0,0,0,0,.26c0,2,1.1,4,3.68,4,2.14,0,3.64-1.64,3.64-4.07s-1.39-4-3.64-4M78,271.33v6.55q0,.12.09.12h1.14c.08,0,.1,0,.1-.12v-6.51h1.53c.07,0,.1,0,.1-.11v-1c0-.05,0-.08-.1-.08H79.35v-.72c0-1.54.52-1.95,1.29-1.95a1.52,1.52,0,0,1,.56.08c.07,0,.1,0,.1-.08v-.95c0-.06,0-.11-.08-.12a1.89,1.89,0,0,0-.74-.12,2.2,2.2,0,0,0-2.09,1.27,4.3,4.3,0,0,0-.37,2v.58H77c-.07,0-.1,0-.1.1v.94c0,.08,0,.11.1.11Zm-12.4,6.55q0,.12.09.12h1.14c.08,0,.1,0,.1-.12v-5.66a2.56,2.56,0,0,1,2-1c1.12,0,1.64.82,1.64,2v4.66c0,.09,0,.13.12.13h1.12c.08,0,.11,0,.11-.12v-4.71c0-2.53-1.47-3.09-2.61-3.09a3.34,3.34,0,0,0-2.45,1.06,5.29,5.29,0,0,0-.09-.8c0-.07-.07-.1-.15-.1h-1c-.08,0-.1,0-.1.1,0,.27.07,1.16.07,1.71Zm-5.38-6.67c1.67,0,2.35,1.43,2.35,2.91,0,2-1.12,2.88-2.25,2.88-1.52,0-2.37-1.29-2.37-2.92s.93-2.87,2.27-2.87m.07-1.15a3.73,3.73,0,0,0-3.69,3.79,2.35,2.35,0,0,0,0,.26c0,2,1.1,4.05,3.68,4.05,2.14,0,3.64-1.64,3.64-4.07s-1.39-4-3.64-4m-6-1.38a.77.77,0,0,0,.81-.73v-.08a.77.77,0,0,0-.7-.82h-.1a.78.78,0,0,0-.81.75v.07a.75.75,0,0,0,.69.81h.11m-.67,9.19c0,.09,0,.13.12.13h1.11c.09,0,.11,0,.11-.12v-7.56c0-.08,0-.1-.1-.1H53.75c-.08,0-.11,0-.11.11ZM52.18,277c0-.08,0-.08-.1-.07a2.11,2.11,0,0,1-.75.13c-.7,0-1-.42-1-1.15v-4.5H52c.07,0,.1,0,.1-.09v-.95c0-.08,0-.11-.1-.11H50.35a17.37,17.37,0,0,1,.09-2.27c0-.07,0-.08-.09-.07l-1.09.18c-.07,0-.1.05-.11.11-.07.35-.13,1.46-.15,2.05H47.91c-.08,0-.11,0-.11.11v.91c0,.08,0,.12.11.13H49v4.69c0,1.54.71,2.1,1.87,2.1a2.92,2.92,0,0,0,1.2-.23.14.14,0,0,0,.1-.16Zm-5.83-6.64c0-.07,0-.1-.1-.1h-1.1c-.08,0-.11,0-.11.1v5.84a2.41,2.41,0,0,1-1.85.81c-1.12,0-1.7-.75-1.7-2v-4.67c0-.07,0-.1-.08-.1H40.27c-.08,0-.11,0-.11.1v4.83c0,2.32,1.28,3,2.64,3a3.14,3.14,0,0,0,2.32-.93,5.46,5.46,0,0,0,.1.69.11.11,0,0,0,.13.08h1c.08,0,.1,0,.1-.1a9.49,9.49,0,0,1-.1-1.6Zm-7.63,6.53c0-.05,0-.08-.09-.07a4,4,0,0,1-1.49.23,2.86,2.86,0,1,1,0-5.72,3.69,3.69,0,0,1,1.47.24c.06,0,.11,0,.11-.06v-1c0-.08,0-.11-.06-.14a3.92,3.92,0,0,0-1.52-.21A4,4,0,0,0,33,274v.26a3.77,3.77,0,0,0,3.53,4H37a5,5,0,0,0,1.75-.26c.06,0,.06-.05.06-.11Zm-12.25-3.52a2.18,2.18,0,0,1,2.13-2.12,1.86,1.86,0,0,1,1.88,1.84v.07a.49.49,0,0,1,0,.17,5.57,5.57,0,0,1-1,0Zm3.47,1a13,13,0,0,0,1.65-.07.1.1,0,0,0,.11-.09h0a3.82,3.82,0,0,0,.06-.83,3.06,3.06,0,0,0-2.87-3.22h-.25c-2.22,0-3.53,1.87-3.53,4.11,0,1.95,1,4,3.76,4a4.85,4.85,0,0,0,2.25-.47.22.22,0,0,0,.08-.16v-.91c0-.06,0-.1-.08-.06a4.62,4.62,0,0,1-2,.43,2.5,2.5,0,0,1-2.67-2.31,2.81,2.81,0,0,1,0-.41Zm-9.71-.16c-.74,1-1.83,2.72-2.56,3.77,0,.07,0,.12.06.12h1.19c.08,0,.09,0,.12-.08l2-3.09h0L23,278a.18.18,0,0,0,.16.1h1.35c.08,0,.11-.07.06-.12-.56-.76-2-2.88-2.66-3.84.71-1,1.92-2.78,2.55-3.71,0-.06,0-.11-.05-.11H23.24a.12.12,0,0,0-.13.08l-2,3h0l-1.87-3a.14.14,0,0,0-.16-.1H17.8c-.07,0-.1.06,0,.13Zm-3.46,2.68c0-.07,0-.1-.08-.1H11.6V273.2h4.32a.09.09,0,0,0,.1-.08v-1c0-.07,0-.1-.1-.1H11.6v-3.34h4.75c.08,0,.09-.05.08-.12l-.13-1c0-.08,0-.1-.11-.1H10.35c-.08,0-.11,0-.11.11v10.33c0,.09,0,.13.12.13h6.08c.07,0,.1,0,.12-.1Z"/>
      <path class="cls-5" d="M142,215.63a2.42,2.42,0,0,1,2.56,2.27,2,2,0,0,1,0,.42,3,3,0,0,1-2.91,3.09h-.21a3.48,3.48,0,0,1-.91-.1v-5.43a4.39,4.39,0,0,1,1.48-.26m.16-1.17a8.15,8.15,0,0,0-3,.64.09.09,0,0,0,0,.07v10.7c0,.08,0,.1.08.1s.8-.1,1.17-.13c.08,0,.08-.05.08-.11v-3.2a5.52,5.52,0,0,0,.81.06,4.28,4.28,0,0,0,4.57-4c0-.12,0-.23,0-.35a3.57,3.57,0,0,0-3.33-3.78h-.42m-5.9-1.37a.78.78,0,0,0,.82-.74v-.08a.76.76,0,0,0-.71-.81h-.09a.78.78,0,0,0-.82.74v.07a.77.77,0,0,0,.7.82h.1m-.67,9.18c0,.1.05.13.13.13h1.1c.1,0,.11,0,.11-.11v-7.57c0-.08,0-.1-.09-.1h-1.11c-.08,0-.11,0-.11.12Zm-7.25-5.74a2.71,2.71,0,0,1,2-.88c1.12,0,1.65.81,1.65,2.05v4.57c0,.1,0,.13.11.13h1.12c.08,0,.11,0,.11-.11v-4.74c0-2.53-1.47-3.09-2.61-3.09a3.29,3.29,0,0,0-2.36.93V211c0-.07,0-.08-.08-.08h-1.15c-.08,0-.1,0-.1.09v11.27c0,.08,0,.11.11.11h1.12c.08,0,.1,0,.1-.1Zm-3.36-.5c.08,0,.13,0,.13-.08v-1c0-.07,0-.13-.08-.16a4,4,0,0,0-1.87-.36c-1.75,0-2.72,1-2.72,2.16s.67,1.8,2.27,2.4c1.1.44,1.45.79,1.45,1.38s-.49,1-1.52,1a3.85,3.85,0,0,1-2.16-.64s-.09,0-.09.08v1.07a.18.18,0,0,0,.08.15,4.54,4.54,0,0,0,2.14.46c1.67,0,2.87-.82,2.87-2.29,0-1.13-.66-1.79-2.28-2.41-1.2-.48-1.48-.82-1.48-1.3s.35-1,1.4-1a3.88,3.88,0,0,1,1.86.46m-9.44-1.41c-.06,0-.08,0-.08.1.05.45.08,1.38.08,2.05v5.52c0,.08,0,.11.11.11h1.14c.06,0,.09,0,.09-.1v-5.31a3,3,0,0,1,2.51-1.17c.1,0,.11,0,.11-.09v-1.09c0-.1,0-.12-.11-.12a3.34,3.34,0,0,0-2.57,1.38,6.74,6.74,0,0,0-.13-1.1q0-.12-.15-.12Zm-6.91,3.06a2.17,2.17,0,0,1,2.13-2.11,1.86,1.86,0,0,1,1.88,1.84v.24a8.34,8.34,0,0,1-1,0Zm3.47,1a15.17,15.17,0,0,0,1.65-.06.11.11,0,0,0,.11-.1,3.82,3.82,0,0,0,.06-.83,3.06,3.06,0,0,0-2.87-3.22h-.25c-2.22,0-3.53,1.88-3.53,4.12,0,1.95,1,4,3.76,4a4.84,4.84,0,0,0,2.25-.46.17.17,0,0,0,.08-.16V221c0-.06,0-.09-.08-.06a4.62,4.62,0,0,1-2,.43,2.5,2.5,0,0,1-2.67-2.31,2.81,2.81,0,0,1,0-.41Zm-7.86,2.51a3.48,3.48,0,0,1-1.28.21,2.57,2.57,0,0,1-2.73-2.42,2.36,2.36,0,0,1,0-.46,2.78,2.78,0,0,1,2.66-2.9h.34a2.62,2.62,0,0,1,1,.16Zm-1.4,1.38a6.14,6.14,0,0,0,2.7-.59c.06,0,.08,0,.08-.11,0-.26,0-.51,0-.77V211s0-.08-.1-.08h-1.15c-.06,0-.1,0-.1.09v3.54a4.78,4.78,0,0,0-1-.1,4.07,4.07,0,0,0-4.35,3.77c0,.12,0,.23,0,.35a3.69,3.69,0,0,0,3.35,4,3.53,3.53,0,0,0,.65,0m-5.57-5.09a2.71,2.71,0,0,0-2.4-3,2.77,2.77,0,0,0-.5,0,5.23,5.23,0,0,0-2.27.48s-.08.07-.08.13v1c0,.08.06.09.11.08a4.22,4.22,0,0,1,2-.48A1.57,1.57,0,0,1,95.91,217a1.23,1.23,0,0,1,0,.27v.38h-1.1c-2,0-3.57.75-3.57,2.45s1.28,2.51,3,2.51a6.51,6.51,0,0,0,3-.69v-.06a5,5,0,0,1,0-.77ZM96,221.22a3.59,3.59,0,0,1-1.45.27c-1.41,0-1.91-.7-1.91-1.42,0-.9.75-1.43,2.31-1.43a6.73,6.73,0,0,1,1,.07ZM85,217.7a2.18,2.18,0,0,1,2.13-2.11A1.86,1.86,0,0,1,89,217.42v.07a.54.54,0,0,1,0,.18,8.34,8.34,0,0,1-1,0Zm3.48,1a14.89,14.89,0,0,0,1.64-.06.11.11,0,0,0,.12-.1h0a3.82,3.82,0,0,0,.06-.83,3.06,3.06,0,0,0-2.87-3.22h-.25c-2.22,0-3.54,1.88-3.54,4.12,0,1.95,1,4,3.76,4a4.9,4.9,0,0,0,2.26-.46.17.17,0,0,0,.08-.16v-.92c0-.06,0-.09-.08-.06a4.62,4.62,0,0,1-2,.43A2.48,2.48,0,0,1,85,219.15a3.09,3.09,0,0,1,0-.43Zm-5.83,3.73a.11.11,0,0,0,.13-.09h0l.19-1s0-.1-.08-.1h-5v-9.35c0-.06,0-.1-.08-.1H76.62c-.08,0-.1.05-.1.12v10.33a.12.12,0,0,0,.11.13h0Zm-15-7.78c-.06,0-.08,0-.08.1,0,.45.08,1.38.08,2.05v5.52c0,.08,0,.11.11.11h1.14c.06,0,.09,0,.09-.1V217a3,3,0,0,1,2.51-1.17c.1,0,.11,0,.11-.09v-1.18c0-.1,0-.12-.11-.12a3.34,3.34,0,0,0-2.57,1.38,6.74,6.74,0,0,0-.13-1.1c0-.08,0-.12-.15-.12Zm-6.91,3.06a2.17,2.17,0,0,1,2.13-2.11,1.86,1.86,0,0,1,1.88,1.84v.24a8.34,8.34,0,0,1-1,0Zm3.47,1a15.17,15.17,0,0,0,1.65-.06.11.11,0,0,0,.11-.1,3.82,3.82,0,0,0,.06-.83,3.06,3.06,0,0,0-2.87-3.22h-.25c-2.22,0-3.53,1.88-3.53,4.12,0,1.95,1,4,3.76,4a4.84,4.84,0,0,0,2.25-.46.17.17,0,0,0,.08-.16v-.92c0-.06,0-.09-.08-.06a4.62,4.62,0,0,1-2,.43,2.5,2.5,0,0,1-2.67-2.31,2.81,2.81,0,0,1,0-.41Zm-16.35,3.73c.08,0,.1,0,.1-.1v-5.76a2.61,2.61,0,0,1,1.93-.89c1,0,1.6.7,1.6,1.92v4.72c0,.08,0,.11.11.11h1.12c.08,0,.12,0,.12-.11v-4.69a6.74,6.74,0,0,0-.08-1,2.54,2.54,0,0,1,2-.93c1.14,0,1.64.88,1.64,2v4.67c0,.08,0,.11.11.11h1.1c.08,0,.11,0,.11-.1v-4.78c0-2.43-1.4-3.06-2.59-3.06a3.7,3.7,0,0,0-2.67,1.17,2.25,2.25,0,0,0-2.13-1.17,3.39,3.39,0,0,0-2.4,1,4.91,4.91,0,0,0-.09-.77s-.07-.08-.13-.08h-1c-.08,0-.1,0-.1.1a13.92,13.92,0,0,1,.07,1.58v6c0,.08,0,.11.09.11Zm-6.61-6.78c1.67,0,2.35,1.42,2.35,2.91,0,2-1.12,2.88-2.25,2.88-1.52,0-2.37-1.3-2.37-2.93s.93-2.86,2.27-2.86m.07-1.16a3.73,3.73,0,0,0-3.69,3.79,2.35,2.35,0,0,0,0,.26c0,2,1.1,4,3.68,4,2.14,0,3.64-1.63,3.64-4.06s-1.39-4-3.64-4m-4.47,6.9c0-.08,0-.08-.09-.06a2.46,2.46,0,0,1-.76.12c-.7,0-1-.41-1-1.15v-4.57h1.69a.09.09,0,0,0,.1-.08v-1c0-.08,0-.12-.1-.12H35c0-.78,0-1.71.09-2.27q0-.09-.09-.06l-1.09.17a.14.14,0,0,0-.11.12c-.07.35-.13,1.45-.15,2H32.52a.11.11,0,0,0-.12.1v.93c0,.08,0,.11.12.13H33.6v4.68c0,1.54.71,2.1,1.88,2.1a3.08,3.08,0,0,0,1.2-.22.15.15,0,0,0,.09-.16Zm-5.57-5.33c.08,0,.13,0,.13-.08v-1c0-.07,0-.13-.08-.16a3.89,3.89,0,0,0-1.87-.36c-1.74,0-2.72,1-2.72,2.16s.67,1.8,2.27,2.4c1.11.44,1.46.79,1.46,1.38s-.5,1-1.52,1a3.77,3.77,0,0,1-2.16-.64s-.1,0-.1.08V222a.18.18,0,0,0,.08.15,4.71,4.71,0,0,0,2.15.46c1.66,0,2.86-.82,2.86-2.29,0-1.13-.66-1.79-2.27-2.41-1.2-.48-1.49-.82-1.49-1.3s.35-1,1.41-1a3.84,3.84,0,0,1,1.85.46m-6.4-1.31c0-.06,0-.1-.09-.1H23.59c-.08,0-.11,0-.11.1v5.84a2.37,2.37,0,0,1-1.86.82c-1.12,0-1.7-.76-1.7-2v-4.67c0-.06,0-.1-.08-.1H18.71c-.08,0-.11,0-.11.1v4.83c0,2.32,1.28,3,2.64,3a3.14,3.14,0,0,0,2.32-.93,4.08,4.08,0,0,0,.09.69.11.11,0,0,0,.13.08h1c.08,0,.1,0,.1-.1a9.49,9.49,0,0,1-.1-1.6Zm-7.52,6.4c0-.08,0-.08-.09-.06a5.42,5.42,0,0,1-2,.28,4.24,4.24,0,0,1,0-8.48h0a4.57,4.57,0,0,1,2,.37s.11,0,.11-.08v-1.07a.13.13,0,0,0-.08-.13,5,5,0,0,0-2-.29,5.23,5.23,0,0,0-5.6,4.81,4.28,4.28,0,0,0,0,.62,5.09,5.09,0,0,0,4.66,5.47,6.09,6.09,0,0,0,.74,0,5.86,5.86,0,0,0,2.16-.3c.07,0,.08-.08.08-.16Z"/>
      <path class="cls-5" d="M124.18,160a2.42,2.42,0,0,1,2.55,2.28,1.88,1.88,0,0,1,0,.41,3,3,0,0,1-2.92,3.08h-.2a3.47,3.47,0,0,1-.91-.09v-5.43a4.44,4.44,0,0,1,1.49-.25m.17-1.13a8.15,8.15,0,0,0-3,.64.06.06,0,0,0,0,.06v10.71c0,.08,0,.09.08.09l1.17-.13c.08,0,.08,0,.08-.11v-3.26a5.67,5.67,0,0,0,.82.07,4.27,4.27,0,0,0,4.56-4c0-.12,0-.24,0-.36a3.55,3.55,0,0,0-3.34-3.75h-.38m-5.91-1.38a.77.77,0,0,0,.82-.72v-.09a.77.77,0,0,0-.7-.82h-.1a.79.79,0,0,0-.82.76v.06a.76.76,0,0,0,.71.81h.09m-.67,9.19a.12.12,0,0,0,.11.13H119c.1,0,.12,0,.12-.12v-7.56c0-.08,0-.1-.1-.1h-1.14c-.08,0-.11,0-.11.11Zm-7.26-5.81a2.71,2.71,0,0,1,2-.88c1.12,0,1.65.82,1.65,2.05v4.58c0,.09,0,.13.11.13h1.08a.11.11,0,0,0,.12-.1v-4.75c0-2.53-1.48-3.09-2.61-3.09a3.33,3.33,0,0,0-2.37.93v-4.39c0-.06,0-.08-.08-.08h-1.15c-.08,0-.09,0-.09.1v11.26c0,.08,0,.12.11.12h1.12c.08,0,.09,0,.09-.1Zm-3.36-.49c.08.05.13,0,.13-.08v-1c0-.06,0-.13-.08-.16a4.17,4.17,0,0,0-1.85-.27c-1.74,0-2.72,1-2.72,2.16s.67,1.79,2.27,2.4c1.11.43,1.46.78,1.46,1.38s-.5,1-1.52,1a3.93,3.93,0,0,1-2.16-.64c-.05,0-.1,0-.1.08v1.07a.14.14,0,0,0,.08.14,4.59,4.59,0,0,0,2.15.47c1.66,0,2.86-.82,2.86-2.29,0-1.14-.66-1.79-2.27-2.42-1.2-.48-1.49-.81-1.49-1.29s.35-1,1.41-1a3.85,3.85,0,0,1,1.85.47M97.73,159c-.06,0-.08,0-.08.1,0,.44.08,1.37.08,2v5.52a.11.11,0,0,0,.1.12H99c.07,0,.1,0,.1-.1v-5.31a3,3,0,0,1,2.52-1.17c.09,0,.11,0,.11-.1v-1.15c0-.09,0-.11-.11-.11A3.34,3.34,0,0,0,99,160.18a6,6,0,0,0-.13-1.11c0-.08,0-.11-.14-.11Zm-6.91,3.06A2.18,2.18,0,0,1,93,159.94a1.87,1.87,0,0,1,1.89,1.85v.06a.49.49,0,0,1,0,.17,5.57,5.57,0,0,1-1,0Zm3.47,1a13,13,0,0,0,1.65-.07c.07,0,.11,0,.11-.09a3.29,3.29,0,0,0,.07-.83,3.06,3.06,0,0,0-2.87-3.22H93c-2.23,0-3.54,1.87-3.54,4.11,0,2,1,4,3.76,4a5,5,0,0,0,2.26-.47.22.22,0,0,0,.08-.16v-.91c0-.06,0-.1-.08-.06a4.62,4.62,0,0,1-2,.43,2.48,2.48,0,0,1-2.67-2.29,3.09,3.09,0,0,1,0-.43Zm-7.85,2.51a3.48,3.48,0,0,1-1.28.21,2.57,2.57,0,0,1-2.73-2.42,2.36,2.36,0,0,1,0-.46A2.79,2.79,0,0,1,85.09,160h.35a2.83,2.83,0,0,1,1,.16ZM85,167a6,6,0,0,0,2.7-.6c.07,0,.08,0,.08-.11,0-.26,0-.51,0-.77V155.38a.08.08,0,0,0-.09-.08H86.56c-.06,0-.09,0-.09.1v3.54a5.56,5.56,0,0,0-1-.1,4.06,4.06,0,0,0-4.34,3.76c0,.12,0,.23,0,.35a3.7,3.7,0,0,0,3.38,4,5.42,5.42,0,0,0,.57,0m-5.63-5.07a2.7,2.7,0,0,0-2.37-3,3,3,0,0,0-.52,0,5.43,5.43,0,0,0-2.28.48.16.16,0,0,0-.08.13v1a.08.08,0,0,0,.07.09h0a4.34,4.34,0,0,1,2-.48,1.57,1.57,0,0,1,1.79,1.33,1.23,1.23,0,0,1,0,.27v.39H77c-2,0-3.57.75-3.57,2.44s1.28,2.52,3,2.52a6.63,6.63,0,0,0,3-.69v-.07a4.82,4.82,0,0,1,0-.76Zm-1.29,3.73a3.82,3.82,0,0,1-1.46.27c-1.41,0-1.9-.71-1.9-1.43,0-.89.75-1.42,2.3-1.42a9.42,9.42,0,0,1,1.06.06Zm-11-3.52A2.18,2.18,0,0,1,69.28,160a1.86,1.86,0,0,1,1.87,1.85v.06a.49.49,0,0,1,0,.17,5.57,5.57,0,0,1-1,0Zm3.47,1a13,13,0,0,0,1.65-.07.12.12,0,0,0,.09-.11v0a3.82,3.82,0,0,0,.06-.83,3.05,3.05,0,0,0-2.93-3.17h-.13c-2.22,0-3.53,1.87-3.53,4.11,0,2,1,4,3.76,4a4.85,4.85,0,0,0,2.25-.47.22.22,0,0,0,.08-.16v-.91c0-.06,0-.1-.08-.06a4.62,4.62,0,0,1-2,.43,2.5,2.5,0,0,1-2.67-2.31,2.81,2.81,0,0,1,0-.41Zm-5.82,3.73a.1.1,0,0,0,.12-.08v0l.2-1c0-.05,0-.1-.08-.1H60v-9.26c0-.07,0-.1-.08-.1H58.8c-.08,0-.09.05-.09.11v10.34c0,.08,0,.13.13.13ZM48,162.1A2.18,2.18,0,0,1,50.11,160,1.87,1.87,0,0,1,52,161.83v.06a.49.49,0,0,1,0,.17,5.57,5.57,0,0,1-1,0Zm3.47,1A13,13,0,0,0,53.1,163a.1.1,0,0,0,.11-.09h0a4.57,4.57,0,0,0,.07-.83,3.07,3.07,0,0,0-2.88-3.23h-.25c-2.23,0-3.54,1.87-3.54,4.11,0,2,1,4,3.76,4a5,5,0,0,0,2.26-.47.17.17,0,0,0,.08-.16v-.91c0-.06,0-.1-.08-.06a4.62,4.62,0,0,1-2,.43,2.49,2.49,0,0,1-2.68-2.3,2.94,2.94,0,0,1,0-.42Zm-8.1,2.06c0,1.5.76,1.78,1.54,1.78a1.89,1.89,0,0,0,.74-.12c.06,0,.08,0,.08-.12v-.82c0-.06,0-.09-.07-.09a1.13,1.13,0,0,1-.32.05c-.38,0-.64-.15-.64-.77v-9.65c0-.06,0-.1-.09-.1H43.43c-.08,0-.12,0-.12.1ZM37.77,160a2.42,2.42,0,0,1,2.56,2.27,2,2,0,0,1,0,.42,3,3,0,0,1-2.92,3.08h-.2a3.55,3.55,0,0,1-.92-.09v-5.43a4.44,4.44,0,0,1,1.49-.25m.16-1.17a8.15,8.15,0,0,0-3,.64.06.06,0,0,0,0,.06v10.71c0,.08,0,.09.08.09l1.16-.13c.08,0,.08,0,.08-.11v-3.22a5.67,5.67,0,0,0,.82.07,4.28,4.28,0,0,0,4.57-4c0-.12,0-.23,0-.35a3.55,3.55,0,0,0-3.34-3.75h-.42M29.54,160c1.66,0,2.35,1.43,2.35,2.91,0,2-1.12,2.88-2.25,2.88-1.52,0-2.37-1.29-2.37-2.92S28.2,160,29.54,160m.06-1.15a3.74,3.74,0,0,0-3.69,3.79c0,.07,0,.14,0,.21,0,2,1.11,4.05,3.68,4.05,2.15,0,3.65-1.64,3.65-4.07s-1.39-4-3.65-4m-10.17,3.22A2.18,2.18,0,0,1,21.56,160a1.86,1.86,0,0,1,1.88,1.84v.08a.49.49,0,0,1,0,.17,5.57,5.57,0,0,1-1,0Zm3.47,1a13,13,0,0,0,1.65-.07.1.1,0,0,0,.11-.09h0a3.82,3.82,0,0,0,.06-.83,3.05,3.05,0,0,0-2.88-3.21H21.6c-2.22,0-3.53,1.87-3.53,4.11,0,2,1,4,3.76,4a4.85,4.85,0,0,0,2.25-.47.22.22,0,0,0,.08-.16v-.91c0-.06,0-.1-.08-.06a4.62,4.62,0,0,1-2,.43,2.5,2.5,0,0,1-2.67-2.31,2.81,2.81,0,0,1,0-.41Zm-11.3-5.67H13c1.62,0,2.74.79,2.74,2.24,0,1.75-1.36,2.34-2.93,2.34H11.6Zm-1.32,9.3c0,.06,0,.1.09.1h1.14c.08,0,.09,0,.09-.12v-3.55h1.24c2.32,0,4.24-1.14,4.24-3.57,0-1.79-1.25-3.39-4.08-3.39-1.08,0-2.13,0-2.64,0-.07,0-.08,0-.08.11Z"/>
      <path class="cls-5" d="M75.71,114a2.42,2.42,0,0,1,2.56,2.27,2,2,0,0,1,0,.42,3,3,0,0,1-2.91,3.09h-.21a3.48,3.48,0,0,1-.91-.1v-5.42a4.39,4.39,0,0,1,1.48-.26m.16-1.17a8.15,8.15,0,0,0-3,.64.09.09,0,0,0,0,.07v10.7c0,.08,0,.1.08.1s.8-.1,1.17-.13c.08,0,.08,0,.08-.11v-3.2a5.52,5.52,0,0,0,.81.06,4.28,4.28,0,0,0,4.57-4c0-.12,0-.23,0-.35a3.57,3.57,0,0,0-3.33-3.78,2.94,2.94,0,0,0-.42,0m-5.9-1.37a.78.78,0,0,0,.82-.74v-.08a.76.76,0,0,0-.71-.81H70a.78.78,0,0,0-.82.74v.07a.77.77,0,0,0,.7.82h.1m-.67,9.18c0,.1,0,.13.13.13h1.1c.1,0,.11,0,.11-.11V113.1c0-.08,0-.1-.09-.1H69.38c-.08,0-.11,0-.11.12Zm-7.22-5.77a2.71,2.71,0,0,1,2-.88c1.12,0,1.65.81,1.65,2v4.57c0,.1,0,.13.11.13h1.12c.08,0,.11,0,.11-.11v-4.71c0-2.53-1.47-3.09-2.61-3.09a3.29,3.29,0,0,0-2.36.93v-4.38c0-.07,0-.08-.08-.08H60.84c-.08,0-.1,0-.1.09v11.27c0,.08,0,.11.11.11H62c.08,0,.1,0,.1-.1Zm-3.36-.5c.08.05.13,0,.13-.08v-1c0-.07,0-.13-.08-.16a4,4,0,0,0-1.87-.36c-1.75,0-2.72,1-2.72,2.16s.67,1.8,2.27,2.4c1.1.44,1.45.79,1.45,1.38s-.49,1-1.52,1a3.85,3.85,0,0,1-2.16-.64s-.09,0-.09.08v1.07a.18.18,0,0,0,.08.15,4.55,4.55,0,0,0,2.17.5c1.67,0,2.87-.82,2.87-2.29,0-1.13-.66-1.79-2.28-2.41-1.2-.48-1.48-.82-1.48-1.3s.35-1,1.4-1a3.88,3.88,0,0,1,1.86.46m-9.44-1.41c-.06,0-.08,0-.08.1,0,.45.08,1.38.08,2v5.52c0,.08,0,.11.11.11h1.14c.06,0,.09,0,.09-.1V115.3a3,3,0,0,1,2.51-1.17c.1,0,.11,0,.11-.09v-1.15c0-.1,0-.12-.11-.12a3.34,3.34,0,0,0-2.57,1.38,6.74,6.74,0,0,0-.13-1.1c0-.08,0-.12-.15-.12ZM42.35,116a2.17,2.17,0,0,1,2.12-2.15,1.86,1.86,0,0,1,1.88,1.84V116a8.34,8.34,0,0,1-1,0Zm3.47,1a15.17,15.17,0,0,0,1.65-.06.11.11,0,0,0,.11-.1,3.82,3.82,0,0,0,.06-.83,3.06,3.06,0,0,0-2.87-3.22h-.25c-2.22,0-3.53,1.88-3.53,4.12,0,2,1,4,3.76,4a4.84,4.84,0,0,0,2.25-.46.17.17,0,0,0,.08-.16v-.92c0-.06,0-.09-.08-.06a4.62,4.62,0,0,1-2,.43,2.5,2.5,0,0,1-2.66-2.33,3,3,0,0,1,0-.42ZM38,119.54a3.48,3.48,0,0,1-1.28.21A2.58,2.58,0,0,1,34,117.34a2.36,2.36,0,0,1,0-.46A2.77,2.77,0,0,1,36.6,114H37a2.62,2.62,0,0,1,1,.16Zm-1.42,1.34a6.14,6.14,0,0,0,2.7-.59c.07,0,.08-.05.08-.11,0-.26,0-.51,0-.77v-10s0-.08-.1-.08H38.05c-.06,0-.09,0-.09.09v3.51a5.56,5.56,0,0,0-1-.1,4.07,4.07,0,0,0-4.34,3.78c0,.11,0,.23,0,.34a3.69,3.69,0,0,0,3.35,4,3.53,3.53,0,0,0,.65,0M31,115.81a2.71,2.71,0,0,0-2.4-3,2.77,2.77,0,0,0-.5,0,5.38,5.38,0,0,0-2.27.48s-.08.07-.08.13v1a.1.1,0,0,0,.07.09h0a4.22,4.22,0,0,1,2-.48,1.56,1.56,0,0,1,1.78,1.32,1.32,1.32,0,0,1,0,.28V116H28.6c-2,0-3.57.75-3.57,2.45S26.31,121,28,121a6.51,6.51,0,0,0,3-.69v-.06a5,5,0,0,1,0-.77Zm-1.3,3.73a3.59,3.59,0,0,1-1.45.27c-1.41,0-1.91-.7-1.91-1.42,0-.9.76-1.43,2.31-1.43a6.73,6.73,0,0,1,1,.07Zm-11-3.52a2.17,2.17,0,0,1,2.06-2.14,1.86,1.86,0,0,1,1.89,1.83V116a8.34,8.34,0,0,1-1,0Zm3.47,1a15.17,15.17,0,0,0,1.65-.06.11.11,0,0,0,.11-.1A3.82,3.82,0,0,0,24,116a3.06,3.06,0,0,0-2.87-3.22h-.25c-2.22,0-3.53,1.88-3.53,4.12,0,1.95,1,4,3.76,4a4.84,4.84,0,0,0,2.25-.46.17.17,0,0,0,.08-.16v-.92c0-.06,0-.09-.08-.06a4.62,4.62,0,0,1-2,.43,2.48,2.48,0,0,1-2.67-2.29,3.09,3.09,0,0,1,0-.43Zm-5.86,3.73c.07,0,.12,0,.13-.1l.19-1c0-.05,0-.1-.08-.1h-5v-9.26c0-.06,0-.1-.08-.1H10.35c-.08,0-.09,0-.09.12v10.33c0,.08,0,.13.12.13Z"/>
      <path class="cls-5" d="M141.52,100.51c0-.08,0-.08-.09-.06a2.46,2.46,0,0,1-.76.12c-.7,0-1-.41-1-1.15V94.93h1.68a.09.09,0,0,0,.1-.08v-1c0-.08,0-.12-.1-.12h-1.69c0-.78.05-1.71.09-2.27q0-.09-.09-.06l-1.09.17a.14.14,0,0,0-.11.12c-.07.35-.13,1.45-.15,2h-1.08a.11.11,0,0,0-.12.1v.93c0,.08,0,.11.12.13h1.12v4.68c0,1.54.71,2.1,1.88,2.1a3.08,3.08,0,0,0,1.2-.22.15.15,0,0,0,.09-.16Zm-10.59-4.83a2.71,2.71,0,0,1,2-.88c1.12,0,1.65.81,1.65,2v4.57c0,.1,0,.13.11.13h1.12c.08,0,.11,0,.11-.11V96.7c0-2.53-1.47-3.09-2.61-3.09a3.29,3.29,0,0,0-2.36.93V90.16c0-.07,0-.08-.08-.08h-1.15c-.08,0-.1,0-.1.09v11.27c0,.08,0,.11.11.11h1.12c.08,0,.1,0,.1-.1Zm-7.14,4.48a1.26,1.26,0,0,1-.28-.66,1,1,0,0,1,.08-.59,4.32,4.32,0,0,0,.88.1,2.6,2.6,0,0,0,2.87-2.29,2.06,2.06,0,0,0,0-.35,2.24,2.24,0,0,0-.56-1.56c.39,0,1.06.07,1.47.07.08,0,.1,0,.1-.1v-.9c0-.06,0-.1-.1-.1H126a1.93,1.93,0,0,1-.34,0,6,6,0,0,0-1.2-.13,2.75,2.75,0,0,0-3,2.47,2.09,2.09,0,0,0,0,.25,2.46,2.46,0,0,0,1.09,2.16,2.06,2.06,0,0,0,.11,2.21c-1.1.93-1.57,1.65-1.57,2.19,0,1.19,1.17,2.44,3.54,2.44s3.87-1.27,3.87-2.87c0-1.41-1.12-2.13-3.1-2.22Zm.68-5.52a1.55,1.55,0,0,1,1.62,1.46,2.09,2.09,0,0,1,0,.25A1.51,1.51,0,0,1,124.72,98a1.22,1.22,0,0,1-.27,0,1.55,1.55,0,0,1-1.65-1.44,1,1,0,0,1,0-.24,1.58,1.58,0,0,1,1.45-1.68h.22m.68,6.75c1.14.06,2.13.32,2.13,1.26s-.78,1.64-2.54,1.64c-1.47,0-2.35-.76-2.35-1.49a2.36,2.36,0,0,1,1.07-1.49Zm-5.45-7.51c0-.06,0-.1-.1-.1h-1.12c-.08,0-.11,0-.11.1v5.84a2.37,2.37,0,0,1-1.86.82c-1.12,0-1.69-.76-1.69-2V93.88c0-.06,0-.1-.08-.1H113.6c-.08,0-.11,0-.11.1v4.83c0,2.32,1.28,3,2.64,3a3.14,3.14,0,0,0,2.32-.93,4.08,4.08,0,0,0,.09.69c0,.06,0,.08.13.08h1c.08,0,.09,0,.09-.1a10.73,10.73,0,0,1-.09-1.6Zm-11.57.9c1.66,0,2.35,1.42,2.35,2.91,0,2-1.12,2.88-2.25,2.88-1.52,0-2.37-1.3-2.37-2.93s.93-2.86,2.27-2.86m.06-1.16a3.73,3.73,0,0,0-3.69,3.79,2.35,2.35,0,0,0,0,.26c0,2,1.11,4,3.68,4,2.15,0,3.65-1.63,3.65-4.06s-1.39-4-3.65-4M97.84,95.73a2.64,2.64,0,0,1,2-.88c1.12,0,1.66.81,1.66,2.05v4.57c0,.1,0,.13.11.13h1.11c.08,0,.11,0,.11-.11V96.75c0-2.53-1.47-3.09-2.59-3.09a3.41,3.41,0,0,0-2.39.93V90.21c0-.07,0-.08-.09-.08H96.62c-.1,0-.1,0-.1.09v11.27c0,.08,0,.11.1.11h1.14c.08,0,.09,0,.09-.1Zm-6.91,5.76c0,.08,0,.11.13.11h1.1c.08,0,.11,0,.11-.13V92.24h3.4c.08,0,.11,0,.09-.11V91.07c0-.08,0-.11-.13-.11H87.75c-.08,0-.12,0-.13.1l-.18,1.07c0,.08,0,.11.08.11h3.41ZM82.5,96.4c.06,0,.09,0,.11-.1l.18-1c0-.06,0-.09-.08-.09H77.55a2.63,2.63,0,0,1-1.34-1.86c0-.9.64-1.33,1.66-1.33a3.26,3.26,0,0,1,1.68.4c.07,0,.12,0,.12-.06v-1a.2.2,0,0,0-.07-.16,3.81,3.81,0,0,0-1.76-.33c-1.69,0-2.94.91-2.94,2.51A3,3,0,0,0,76,95.54a3.22,3.22,0,0,0-2.44,3.06,3.18,3.18,0,0,0,3.14,3.2l.34,0a4.07,4.07,0,0,0,1.79-.32c.06,0,.09,0,.09-.13v-1c0-.06,0-.09-.08-.08a3.6,3.6,0,0,1-1.61.32,2.09,2.09,0,0,1-2.31-1.85c0-.06,0-.13,0-.2a2,2,0,0,1,1.9-2,11.74,11.74,0,0,1,3,3.36c1.11,1.68,1.76,2,2.71,2a1.65,1.65,0,0,0,.73-.11c.08,0,.08-.07.08-.16v-1c0-.08,0-.09-.08-.08a1.44,1.44,0,0,1-.46,0c-.72,0-1.18-.38-1.89-1.42a17.67,17.67,0,0,0-2.27-2.69Zm-19.15.48a2.17,2.17,0,0,1,2.12-2.11,1.86,1.86,0,0,1,1.89,1.83v.25a8.34,8.34,0,0,1-1,0Zm3.47,1a15.17,15.17,0,0,0,1.65-.06.11.11,0,0,0,.11-.1,3.82,3.82,0,0,0,.06-.83,3.06,3.06,0,0,0-2.87-3.22h-.25c-2.22,0-3.53,1.88-3.53,4.12,0,2,1,4,3.76,4a4.84,4.84,0,0,0,2.25-.46.17.17,0,0,0,.08-.16v-.92c0-.06,0-.09-.08-.06a4.62,4.62,0,0,1-2,.43,2.48,2.48,0,0,1-2.67-2.29,3.09,3.09,0,0,1,0-.43Zm-6.47-2.7c.08,0,.13,0,.13-.08v-1c0-.07,0-.13-.08-.16a3.89,3.89,0,0,0-1.87-.36c-1.74,0-2.72,1-2.72,2.16s.67,1.8,2.27,2.4c1.11.44,1.46.79,1.46,1.38s-.5,1-1.52,1a3.77,3.77,0,0,1-2.16-.64s-.1,0-.1.08V101a.18.18,0,0,0,.08.15,4.71,4.71,0,0,0,2.15.46c1.66,0,2.86-.82,2.86-2.29,0-1.13-.66-1.79-2.27-2.41-1.2-.48-1.49-.82-1.49-1.3s.35-1,1.41-1a3.84,3.84,0,0,1,1.85.46m-7-2.94a.77.77,0,0,0,.81-.73v-.09a.75.75,0,0,0-.69-.81h-.11a.77.77,0,0,0-.81.73v.08a.77.77,0,0,0,.7.82h.1m-.67,9.18c0,.1,0,.13.12.13h1.11c.09,0,.11,0,.11-.11V93.88c0-.08,0-.1-.1-.1H52.79c-.08,0-.11,0-.11.12Zm-1.46-.91c0-.08,0-.08-.1-.06a2.4,2.4,0,0,1-.75.12c-.7,0-1-.41-1-1.15V94.85h1.69a.09.09,0,0,0,.1-.08v-.89c0-.08,0-.12-.1-.12H49.35a17.37,17.37,0,0,1,.09-2.27q0-.09-.09-.06l-1.09.17a.13.13,0,0,0-.11.12c-.07.35-.13,1.45-.15,2H46.91c-.08,0-.11,0-.11.12v.91c0,.08,0,.11.11.13H48v4.68c0,1.54.71,2.1,1.87,2.1a2.91,2.91,0,0,0,1.2-.22.18.18,0,0,0,.1-.16ZM42,93.69c-.07,0-.08,0-.08.1,0,.45.08,1.38.08,2v5.52c0,.08,0,.11.11.11h1.13c.07,0,.1,0,.1-.1V96a3,3,0,0,1,2.51-1.17c.09,0,.11,0,.11-.09V93.6c0-.1,0-.12-.11-.12a3.34,3.34,0,0,0-2.58,1.38,5.09,5.09,0,0,0-.13-1.1c0-.08,0-.12-.14-.12Zm-7,3.19a2.18,2.18,0,0,1,2.13-2.11,1.86,1.86,0,0,1,1.89,1.83v.07a.54.54,0,0,1,0,.18,8.34,8.34,0,0,1-1,0Zm3.48,1a14.89,14.89,0,0,0,1.64-.06.11.11,0,0,0,.12-.1h0a4.73,4.73,0,0,0,0-.84,3.06,3.06,0,0,0-2.87-3.22h-.25c-2.22,0-3.54,1.88-3.54,4.12,0,2,1,4,3.76,4a4.9,4.9,0,0,0,2.26-.46.17.17,0,0,0,.08-.16v-.92c0-.06,0-.09-.08-.06a4.62,4.62,0,0,1-2,.43A2.48,2.48,0,0,1,35,98.32a3.09,3.09,0,0,1,0-.43Zm-10-3a2.42,2.42,0,0,1,2.56,2.27,2,2,0,0,1,0,.42,3,3,0,0,1-2.91,3.09H28a3.56,3.56,0,0,1-.92-.1V95.14a4.45,4.45,0,0,1,1.49-.26m.16-1.17a8.15,8.15,0,0,0-3,.64.09.09,0,0,0,0,.07v10.7c0,.08,0,.1.08.1s.8-.1,1.16-.13c.08,0,.08,0,.08-.11v-3.2a5.66,5.66,0,0,0,.82.06,4.28,4.28,0,0,0,4.57-4c0-.12,0-.23,0-.35a3.57,3.57,0,0,0-3.33-3.78h-.42m-8.49,4.05c-.74,1-1.83,2.72-2.56,3.78,0,.06,0,.11.06.11h1.19c.08,0,.09,0,.12-.08l2-3.09h0l2,3.07a.14.14,0,0,0,.16.1h1.35c.08,0,.11-.06.06-.11-.56-.77-2-2.88-2.66-3.84.71-1,1.92-2.79,2.55-3.71,0-.07,0-.12-.05-.12H23.24a.12.12,0,0,0-.13.08l-2,3h0l-1.87-3a.18.18,0,0,0-.16-.1H17.8c-.07,0-.1.07,0,.13Zm-3.46,2.77c0-.06,0-.1-.08-.1h-5V96.88h4.32a.09.09,0,0,0,.1-.08v-1a.09.09,0,0,0-.08-.1H11.6V92.34h4.75c.08,0,.09,0,.08-.11l-.13-1c0-.08,0-.1-.11-.1H10.35c-.08,0-.11,0-.11.12v10.33c0,.1,0,.13.12.13h6.08c.07,0,.1,0,.12-.1Z"/>
      <path class="cls-5" d="M869.72,53c.08,0,.13,0,.13-.08v-1a.15.15,0,0,0-.08-.16,4.16,4.16,0,0,0-1.87-.35c-1.75,0-2.72,1-2.72,2.16s.67,1.79,2.27,2.4c1.1.43,1.45.79,1.45,1.38s-.49,1-1.52,1a3.85,3.85,0,0,1-2.16-.64s-.09,0-.09.08v1.12a.14.14,0,0,0,.08.14,4.41,4.41,0,0,0,2.14.47c1.67,0,2.87-.82,2.87-2.29,0-1.14-.66-1.79-2.28-2.42-1.2-.48-1.48-.81-1.48-1.29s.35-1,1.4-1a3.88,3.88,0,0,1,1.86.46m-6.3,0c.08,0,.12,0,.12-.08v-1a.15.15,0,0,0-.08-.16,4.16,4.16,0,0,0-1.87-.35c-1.74,0-2.72,1-2.72,2.16s.67,1.79,2.27,2.4c1.11.43,1.46.79,1.46,1.38s-.5,1-1.52,1a3.85,3.85,0,0,1-2.16-.64s-.1,0-.1.08v1.14a.16.16,0,0,0,.08.14,4.59,4.59,0,0,0,2.15.47c1.66,0,2.86-.82,2.86-2.29,0-1.14-.65-1.79-2.27-2.42-1.2-.48-1.49-.81-1.49-1.29s.35-1,1.41-1a4,4,0,0,1,1.86.46M852.26,54.6a2.18,2.18,0,0,1,2.13-2.11,1.86,1.86,0,0,1,1.89,1.83v.07a.54.54,0,0,1,0,.18,8.34,8.34,0,0,1-1,0Zm3.48,1a15,15,0,0,0,1.64-.06.11.11,0,0,0,.12-.1h0a3.82,3.82,0,0,0,.06-.83,3.06,3.06,0,0,0-2.87-3.22h-.25c-2.22,0-3.54,1.87-3.54,4.11,0,2,1,4,3.76,4a4.76,4.76,0,0,0,2.26-.47.22.22,0,0,0,.08-.16V58c0-.06,0-.09-.08-.06a4.62,4.62,0,0,1-2,.43A2.48,2.48,0,0,1,852.25,56a3.09,3.09,0,0,1,0-.43ZM842.9,59.22c0,.08,0,.11.1.11h1.14c.08,0,.09,0,.09-.11V53.55a2.58,2.58,0,0,1,2-1c1.12,0,1.65.81,1.65,2v4.59c0,.1,0,.13.11.13h1.12c.08,0,.11,0,.11-.11V54.42c0-2.53-1.47-3.09-2.6-3.09a3.34,3.34,0,0,0-2.45,1.06,4.27,4.27,0,0,0-.1-.8.12.12,0,0,0-.14-.1h-1c-.08,0-.1,0-.1.1,0,.27.06,1.17.06,1.71ZM840,50a.77.77,0,0,0,.81-.73V49.2a.77.77,0,0,0-.72-.82H840a.78.78,0,0,0-.81.75v.07a.77.77,0,0,0,.7.82h.1m-.68,9.18c0,.1,0,.13.13.13h1.11c.09,0,.11,0,.11-.11V51.65c0-.08,0-.1-.1-.1h-1.13c-.08,0-.12,0-.12.11ZM837.21,53c.08,0,.13,0,.13-.08v-1a.15.15,0,0,0-.08-.16,4.17,4.17,0,0,0-1.88-.35c-1.74,0-2.72,1-2.72,2.16s.68,1.79,2.28,2.4c1.1.43,1.45.79,1.45,1.38s-.49,1-1.52,1a3.85,3.85,0,0,1-2.16-.64c-.05,0-.09,0-.09.08v1.13a.14.14,0,0,0,.08.14,4.41,4.41,0,0,0,2.14.47c1.66,0,2.86-.82,2.86-2.29,0-1.14-.65-1.79-2.27-2.42-1.2-.48-1.49-.81-1.49-1.29s.36-1,1.41-1a4,4,0,0,1,1.86.46m-6.4-1.31c0-.07,0-.1-.1-.1h-1.12c-.08,0-.11,0-.11.1v5.84a2.4,2.4,0,0,1-1.86.81c-1.12,0-1.69-.75-1.69-2V51.62c0-.07,0-.1-.08-.1h-1.14c-.08,0-.11,0-.11.1v4.83c0,2.32,1.28,3,2.64,3a3.14,3.14,0,0,0,2.32-.93,5.46,5.46,0,0,0,.1.69c0,.06,0,.08.12.08h1c.08,0,.09,0,.09-.1a10.73,10.73,0,0,1-.09-1.6Zm-13.52-1.76h1.45c1.54,0,2.42.56,2.42,1.76a1.86,1.86,0,0,1-.88,1.63,12.58,12.58,0,0,0-1.5-.09h-1.49Zm0,4.44h1.63a4.85,4.85,0,0,1,1.26.11,1.75,1.75,0,0,1,1.46,1.77c0,1.38-1.22,2-3,2h-1.36ZM816,59.2c0,.06,0,.09.09.11h2.69c2.42,0,4.26-1.06,4.26-3.17a2.68,2.68,0,0,0-1.68-2.53,2.61,2.61,0,0,0,1.13-2.2c0-1-.45-2.74-3.65-2.74-.92,0-2.17,0-2.76,0-.08,0-.08,0-.08.13Zm-10.77-4.61a2.17,2.17,0,0,1,2.13-2.11,1.86,1.86,0,0,1,1.88,1.84v.24a8.34,8.34,0,0,1-1,0Zm3.47,1a15.17,15.17,0,0,0,1.65-.06.11.11,0,0,0,.11-.1,3.82,3.82,0,0,0,.06-.83,3.06,3.06,0,0,0-2.87-3.22h-.25c-2.22,0-3.53,1.87-3.53,4.11,0,2,1,4,3.76,4a4.72,4.72,0,0,0,2.25-.47.22.22,0,0,0,.08-.16V58c0-.06,0-.09-.08-.06a4.62,4.62,0,0,1-2,.43A2.5,2.5,0,0,1,805.19,56a2.81,2.81,0,0,1,0-.41Zm-11.52-2.14a2.71,2.71,0,0,1,2-.88c1.12,0,1.65.81,1.65,2v4.58c0,.1,0,.13.11.13H802c.08,0,.11,0,.11-.11V54.43c0-2.53-1.47-3.09-2.61-3.09a3.29,3.29,0,0,0-2.36.93V47.89c0-.07,0-.08-.08-.08H796c-.08,0-.1,0-.1.09V59.17c0,.08,0,.11.11.11h1.12c.08,0,.1,0,.1-.1Zm-2.81,4.85c0-.08,0-.08-.1-.07a2.11,2.11,0,0,1-.75.13c-.71,0-1-.41-1-1.15v-4.5h1.7a.08.08,0,0,0,.09-.07v-1c0-.08,0-.11-.09-.11h-1.7a15.65,15.65,0,0,1,.1-2.27c0-.06,0-.08-.1-.06l-1.09.17a.15.15,0,0,0-.11.11c-.06.36-.13,1.46-.14,2h-1.09c-.08,0-.11,0-.11.11v.92c0,.08,0,.11.11.12h1.09v4.69c0,1.54.7,2.1,1.87,2.1a2.92,2.92,0,0,0,1.2-.23.14.14,0,0,0,.1-.16Zm-14-3.68a2.18,2.18,0,0,1,2.13-2.11,1.86,1.86,0,0,1,1.89,1.83v.07a.54.54,0,0,1,0,.18,8.34,8.34,0,0,1-1,0Zm3.48,1a15,15,0,0,0,1.64-.06.11.11,0,0,0,.12-.1h0a3.82,3.82,0,0,0,.06-.83,3.06,3.06,0,0,0-2.87-3.22h-.25c-2.22,0-3.54,1.87-3.54,4.11,0,2,1,4,3.76,4a4.76,4.76,0,0,0,2.26-.47.22.22,0,0,0,.08-.16V58c0-.06,0-.09-.08-.06a4.62,4.62,0,0,1-2,.43,2.48,2.48,0,0,1-2.67-2.29,3.09,3.09,0,0,1,0-.43Zm-8.13,2.11c0,1.51.75,1.78,1.54,1.78a2,2,0,0,0,.73-.11c.07,0,.08,0,.08-.13v-.83c0-.07,0-.1-.06-.1a1.13,1.13,0,0,1-.32,0c-.39,0-.64-.15-.64-.77V48c0-.06,0-.09-.1-.09h-1.12c-.08,0-.11,0-.11.09Zm-2.24-3.31a2.71,2.71,0,0,0-2.4-3,2.77,2.77,0,0,0-.5,0,5.44,5.44,0,0,0-2.21.46.13.13,0,0,0-.08.13v1a.1.1,0,0,0,.07.09h0a4.22,4.22,0,0,1,2-.48,1.56,1.56,0,0,1,1.78,1.32,1.32,1.32,0,0,1,0,.28v.38h-1.1c-2,0-3.57.75-3.57,2.45s1.28,2.51,3,2.51a6.63,6.63,0,0,0,3-.69V58.8a5,5,0,0,1,0-.77Zm-1.3,3.73a3.59,3.59,0,0,1-1.45.27c-1.41,0-1.91-.7-1.91-1.42,0-.9.76-1.43,2.31-1.43a6.73,6.73,0,0,1,1,.07Zm-5.82,0s0-.08-.1-.07a3.92,3.92,0,0,1-1.48.23,2.86,2.86,0,0,1,0-5.71,3.77,3.77,0,0,1,1.59.28c.06,0,.11,0,.11-.07v-1c0-.08,0-.11-.06-.14a3.92,3.92,0,0,0-1.52-.21,4,4,0,0,0-4.18,3.82v.26a3.77,3.77,0,0,0,3.52,4h.48a5,5,0,0,0,1.75-.26c.06,0,.06-.05.06-.11Zm-10.72,1.36c2.34,0,3.63-1.25,3.63-3,0-1.2-.57-2.19-2.54-3l-.69-.29c-1.42-.61-1.84-1.15-1.84-1.87s.45-1.54,2.11-1.54a4.66,4.66,0,0,1,2.35.53c.08,0,.13,0,.13-.06V49.2c0-.08,0-.12-.08-.16a5.37,5.37,0,0,0-2.37-.43c-2.16,0-3.44,1.19-3.44,2.85,0,1.07.45,2.08,2.44,2.93l.7.29c1.46.65,1.89,1.21,1.89,2,0,1-.71,1.65-2.24,1.65a5,5,0,0,1-2.74-.78.08.08,0,0,0-.11,0V58.7c0,.09,0,.16.1.19a5.49,5.49,0,0,0,2.7.61"/>
      <path class="cls-5" d="M701.7,71.13c.06,0,.06-.06,0-.1-.71-.59-2-1.77-2.87-2.51a5.28,5.28,0,0,0,2.45-4.93c0-3-1.81-5.39-4.81-5.39-2.79,0-4.82,2.21-4.82,5.43s1.79,5.47,4.85,5.47a5.5,5.5,0,0,0,.91-.08c1,.89,1.86,1.63,2.34,2a.33.33,0,0,0,.19.08ZM693,63.63c0-2.74,1.52-4.23,3.44-4.23,2.1,0,3.46,1.75,3.46,4.23s-1.25,4.27-3.38,4.27c-2.3,0-3.52-2-3.52-4.27m-2.35,4.19c0-.07,0-.1-.08-.1h-5.09V64.14h4.32a.09.09,0,0,0,.1-.08V63a.09.09,0,0,0-.08-.1h-4.34V59.58h4.83c.08,0,.1,0,.08-.11l-.12-1c0-.08,0-.1-.12-.1h-5.84c-.08,0-.11,0-.11.11V68.82c0,.1,0,.13.13.13h6.08c.06,0,.1,0,.11-.1Zm-16.21-.27a1.27,1.27,0,0,1-.29-.66,1.09,1.09,0,0,1,.08-.59,4.31,4.31,0,0,0,.88.09,2.61,2.61,0,0,0,2.88-2.3,2,2,0,0,0,0-.34,2.22,2.22,0,0,0-.56-1.55c.38,0,1,.07,1.47.07.08,0,.1,0,.1-.1v-.91c0-.07,0-.1-.1-.1H676.7a1.82,1.82,0,0,1-.33,0,6,6,0,0,0-1.2-.13,2.74,2.74,0,0,0-3,2.45,2.44,2.44,0,0,0,0,.27,2.47,2.47,0,0,0,1.08,2.16,2.2,2.2,0,0,0-.27,1,2,2,0,0,0,.39,1.2c-1.11.93-1.57,1.65-1.57,2.19,0,1.19,1.17,2.43,3.53,2.43s3.88-1.26,3.88-2.86c0-1.41-1.12-2.13-3.11-2.22Zm.67-5.52a1.54,1.54,0,0,1,1.63,1.45,2.26,2.26,0,0,1,0,.26,1.51,1.51,0,0,1-1.36,1.65,1.22,1.22,0,0,1-.27,0,1.68,1.68,0,1,1,0-3.36m.69,6.75C677,68.84,678,69.1,678,70s-.79,1.63-2.55,1.63c-1.47,0-2.35-.75-2.35-1.48a2.43,2.43,0,0,1,1.07-1.49Zm-11.6,0c0,.08,0,.11.1.11h1.13c.08,0,.1,0,.1-.11V63.11a2.56,2.56,0,0,1,2-1c1.12,0,1.65.81,1.65,2V68.7c0,.1,0,.13.11.13h1.12c.08,0,.11,0,.11-.11V64c0-2.53-1.47-3.09-2.61-3.09A3.34,3.34,0,0,0,665.49,62a5.29,5.29,0,0,0-.09-.8.13.13,0,0,0-.15-.1h-1c-.08,0-.09,0-.09.1,0,.27.06,1.17.06,1.71Zm-5.38-6.68c1.67,0,2.36,1.43,2.36,2.92,0,2-1.12,2.88-2.26,2.88-1.52,0-2.37-1.3-2.37-2.93s.93-2.87,2.27-2.87m.07-1.15a3.74,3.74,0,0,0-3.69,3.79c0,.07,0,.14,0,.21,0,2,1.1,4,3.68,4,2.14,0,3.65-1.63,3.65-4.07s-1.4-4-3.65-4m-8.34.16c-.06,0-.08,0-.08.1,0,.45.08,1.37.08,2.05v5.64c0,.08,0,.11.11.11h1.14c.06,0,.1,0,.1-.1V63.58a3,3,0,0,1,2.51-1.17c.1,0,.12,0,.12-.09V61.16c0-.09,0-.11-.12-.11a3.34,3.34,0,0,0-2.57,1.38,7,7,0,0,0-.13-1.11c0-.08,0-.11-.14-.11Zm-1.4,6.79c0-.08,0-.08-.09-.07a2.11,2.11,0,0,1-.75.13c-.71,0-1-.41-1-1.15v-4.5H649a.08.08,0,0,0,.09-.07v-1c0-.08,0-.11-.09-.11h-1.69a15.65,15.65,0,0,1,.1-2.27c0-.06,0-.08-.1-.06l-1.09.17a.15.15,0,0,0-.11.11c-.06.36-.13,1.46-.14,2.05h-1.09c-.08,0-.11,0-.11.11v.92c0,.08,0,.11.11.12H646v4.69c0,1.54.7,2.1,1.87,2.1a2.92,2.92,0,0,0,1.2-.23c.08,0,.09-.09.09-.16Zm-8.72,1.2c2.34,0,3.64-1.25,3.64-3,0-1.2-.58-2.19-2.55-3l-.69-.29c-1.42-.61-1.84-1.15-1.84-1.87s.45-1.54,2.12-1.54a4.66,4.66,0,0,1,2.35.53c.08,0,.13,0,.13-.06V58.77a.15.15,0,0,0-.08-.16,5.37,5.37,0,0,0-2.37-.43c-2.16,0-3.44,1.19-3.44,2.85,0,1.07.45,2.08,2.43,2.93l.7.29c1.46.65,1.89,1.21,1.89,2,0,1-.7,1.65-2.24,1.65a5,5,0,0,1-2.73-.78c-.07-.05-.12,0-.12,0v1.15c0,.09,0,.16.1.19a5.49,5.49,0,0,0,2.7.61"/>
      <path class="cls-5" d="M713.06,48.35a1.34,1.34,0,0,1-.28-.66,1,1,0,0,1,.08-.59,4.31,4.31,0,0,0,.88.09,2.6,2.6,0,0,0,2.87-2.29,2.06,2.06,0,0,0,0-.35,2.22,2.22,0,0,0-.56-1.55c.39,0,1.06.07,1.47.07.08,0,.1,0,.1-.1v-.91c0-.07,0-.1-.1-.1H715a6,6,0,0,0-1.2-.13,2.74,2.74,0,0,0-3,2.45,2.75,2.75,0,0,0,1.08,2.43,2.06,2.06,0,0,0,.11,2.21c-1.1.93-1.57,1.65-1.57,2.19,0,1.19,1.17,2.43,3.54,2.43s3.87-1.26,3.87-2.86c0-1.41-1.12-2.13-3.1-2.22Zm.68-5.52a1.55,1.55,0,0,1,1.62,1.46,2.09,2.09,0,0,1,0,.25A1.51,1.51,0,0,1,714,46.19a1.22,1.22,0,0,1-.27,0,1.55,1.55,0,0,1-1.65-1.44,1,1,0,0,1,0-.24,1.58,1.58,0,0,1,1.45-1.68h.22m.68,6.75c1.14.06,2.13.32,2.13,1.26s-.78,1.63-2.54,1.63c-1.47,0-2.35-.75-2.35-1.48a2.36,2.36,0,0,1,1.07-1.49Zm-11.6.05c0,.08,0,.11.1.11h1.14c.08,0,.09,0,.09-.11V44a2.56,2.56,0,0,1,2-1c1.12,0,1.65.81,1.65,2v4.59c0,.1,0,.13.11.13H709c.08,0,.11,0,.11-.11V44.88c0-2.53-1.47-3.09-2.6-3.09a3.34,3.34,0,0,0-2.45,1.06,4.27,4.27,0,0,0-.1-.8.12.12,0,0,0-.14-.1h-1c-.08,0-.1,0-.1.1,0,.27.06,1.17.06,1.71Zm-2.92-9.2a.77.77,0,0,0,.81-.73v-.09a.77.77,0,0,0-.72-.82h-.08a.78.78,0,0,0-.81.75v.07a.77.77,0,0,0,.7.82h.1m-.68,9.18c0,.1,0,.13.13.13h1.11c.09,0,.11,0,.11-.11V42.06c0-.08,0-.1-.1-.1h-1.12c-.08,0-.12,0-.12.11Zm-1.45-.91c0-.08,0-.08-.1-.07a2.11,2.11,0,0,1-.75.13c-.7,0-1-.41-1-1.15v-4.5h1.7c.06,0,.1,0,.1-.09v-1c0-.08,0-.11-.1-.11h-1.7a15.65,15.65,0,0,1,.1-2.27c0-.06,0-.08-.1-.06l-1.08.17a.14.14,0,0,0-.12.11c-.06.36-.12,1.46-.14,2.05h-1.09c-.08,0-.11,0-.11.11V43c0,.08,0,.11.11.12h1.09V47.8c0,1.54.7,2.1,1.87,2.1a2.92,2.92,0,0,0,1.2-.23.14.14,0,0,0,.1-.16Zm-5.42-3.89a2.71,2.71,0,0,0-2.4-3,2.77,2.77,0,0,0-.5,0,5.23,5.23,0,0,0-2.27.48.13.13,0,0,0-.08.13v1c0,.08.06.09.11.08a4.22,4.22,0,0,1,2-.48A1.57,1.57,0,0,1,691,44.35a1.23,1.23,0,0,1,0,.27V45h-1.1c-2,0-3.57.75-3.57,2.45s1.28,2.51,3,2.51a6.63,6.63,0,0,0,3-.69v-.06a5,5,0,0,1,0-.77Zm-1.3,3.73a3.64,3.64,0,0,1-1.46.27c-1.4,0-1.9-.7-1.9-1.42,0-.9.75-1.43,2.3-1.43a6.29,6.29,0,0,1,1.06.07ZM681.91,42c-.06,0-.08,0-.08.1,0,.45.08,1.37.08,2v5.52c0,.08,0,.11.12.11h1.13c.07,0,.1,0,.1-.1V44.28a3,3,0,0,1,2.52-1.17c.09,0,.11,0,.11-.09V41.88c0-.09,0-.11-.11-.11a3.34,3.34,0,0,0-2.58,1.38,6,6,0,0,0-.13-1.11c0-.08,0-.11-.14-.11Zm-1.4,6.74c0-.08,0-.08-.1-.07a2.11,2.11,0,0,1-.75.13c-.71,0-1-.41-1-1.15v-4.5h1.69a.08.08,0,0,0,.09-.07v-1c0-.08,0-.11-.09-.11h-1.7c0-.78.05-1.71.1-2.27,0-.06,0-.08-.1-.06l-1.09.17a.15.15,0,0,0-.11.11c-.06.36-.13,1.46-.14,2.05h-1.09c-.08,0-.11,0-.11.11V43c0,.08,0,.11.11.12h1.09V47.8c0,1.54.7,2.1,1.87,2.1a2.92,2.92,0,0,0,1.2-.23.14.14,0,0,0,.1-.16Zm-5.57-5.33c.08,0,.13,0,.13-.08v-1a.15.15,0,0,0-.08-.16,4.17,4.17,0,0,0-1.88-.35c-1.74,0-2.72,1-2.72,2.16s.68,1.79,2.28,2.4c1.1.43,1.45.79,1.45,1.38s-.49,1-1.52,1a3.85,3.85,0,0,1-2.16-.64s-.09,0-.09.08v1.07a.14.14,0,0,0,.08.14,4.41,4.41,0,0,0,2.14.47c1.66,0,2.86-.82,2.86-2.29,0-1.14-.65-1.79-2.27-2.42-1.2-.48-1.49-.81-1.49-1.29s.36-1,1.41-1a4,4,0,0,1,1.86.46m-12.59,6.33c0,.08,0,.11.09.11h1.14c.08,0,.09,0,.09-.11V44a2.58,2.58,0,0,1,2-1c1.12,0,1.65.81,1.65,2v4.59c0,.1,0,.13.11.13h1.12c.08,0,.12,0,.12-.11V44.88c0-2.53-1.48-3.09-2.61-3.09a3.34,3.34,0,0,0-2.45,1.06,4.27,4.27,0,0,0-.1-.8.12.12,0,0,0-.14-.1h-1c-.08,0-.1,0-.1.1,0,.27.07,1.17.07,1.71ZM657,43c1.66,0,2.35,1.43,2.35,2.92,0,2-1.12,2.88-2.25,2.88-1.52,0-2.37-1.3-2.37-2.93S655.63,43,657,43M657,41.8a3.74,3.74,0,0,0-3.7,3.78c0,.1,0,.2,0,.3,0,2,1.11,4,3.68,4,2.15,0,3.65-1.63,3.65-4.07s-1.39-4-3.65-4m-15.2,7.94c.08,0,.1,0,.1-.1V43.88a2.58,2.58,0,0,1,1.94-.89c1,0,1.6.7,1.6,1.92v4.72c0,.08,0,.11.11.11h1.12c.08,0,.11,0,.11-.11V44.94a5.55,5.55,0,0,0-.08-1,2.58,2.58,0,0,1,2-.92c1.13,0,1.63.88,1.63,2V49.7c0,.08,0,.11.11.11h1.11c.08,0,.11,0,.11-.1V44.88c0-2.43-1.41-3.06-2.59-3.06A3.71,3.71,0,0,0,646.42,43a2.24,2.24,0,0,0-2.12-1.17,3.37,3.37,0,0,0-2.4,1,4.91,4.91,0,0,0-.1-.77.13.13,0,0,0-.13-.08h-1c-.08,0-.09,0-.09.1,0,.3.06.88.06,1.58v6c0,.08,0,.11.1.11Zm-8.14-4.72A2.18,2.18,0,0,1,635.82,43a1.86,1.86,0,0,1,1.89,1.83v.07a.54.54,0,0,1,0,.18,8.34,8.34,0,0,1-1,0Zm3.47,1a15.17,15.17,0,0,0,1.65-.06.1.1,0,0,0,.11-.09h0a3.29,3.29,0,0,0,.07-.83,3.06,3.06,0,0,0-2.87-3.22h-.25c-2.23,0-3.54,1.87-3.54,4.11,0,2,1,4,3.76,4a4.76,4.76,0,0,0,2.26-.47.22.22,0,0,0,.08-.16v-.91c0-.06,0-.09-.08-.06a4.62,4.62,0,0,1-2,.43,2.48,2.48,0,0,1-2.67-2.29,3.09,3.09,0,0,1,0-.43Zm-13.31-5.66h1.54c2.41,0,4.24,1.32,4.24,4,0,2.9-1.84,4.31-4.42,4.31h-1.36Zm-1.33,9.26c0,.08,0,.13.08.13h2.66c2.69,0,5.73-1.46,5.73-5.5,0-3-2-5.14-5.57-5.14-1.58,0-2.4,0-2.8,0-.08,0-.1,0-.1.13Z"/>
      <path class="cls-5" d="M573.45,54.62a2.18,2.18,0,0,1,2.13-2.11,1.86,1.86,0,0,1,1.89,1.83v.07a.54.54,0,0,1,0,.18,8.34,8.34,0,0,1-1,0Zm3.48,1a15,15,0,0,0,1.64-.06.11.11,0,0,0,.12-.1h0a3.82,3.82,0,0,0,.06-.83,3.06,3.06,0,0,0-2.87-3.22h-.25c-2.22,0-3.54,1.87-3.54,4.11,0,2,1,4,3.76,4a4.76,4.76,0,0,0,2.26-.47.22.22,0,0,0,.08-.16V58c0-.06,0-.09-.08-.06a4.62,4.62,0,0,1-2,.43,2.48,2.48,0,0,1-2.67-2.29,3.09,3.09,0,0,1,0-.43ZM566.8,58a1.27,1.27,0,0,1-.29-.66,1.09,1.09,0,0,1,.08-.59,4.31,4.31,0,0,0,.88.09,2.61,2.61,0,0,0,2.88-2.3,2,2,0,0,0,0-.34,2.31,2.31,0,0,0-.56-1.55c.38,0,1,.07,1.47.07.08,0,.09,0,.09-.1v-.91c0-.07,0-.1-.09-.1h-2.59a6,6,0,0,0-1.2-.13,2.75,2.75,0,0,0-3,2.47,2.09,2.09,0,0,0,0,.25,2.46,2.46,0,0,0,1.09,2.16,2.2,2.2,0,0,0-.27,1,2.06,2.06,0,0,0,.38,1.2c-1.1.93-1.56,1.65-1.56,2.19,0,1.19,1.16,2.43,3.53,2.43s3.87-1.26,3.87-2.86c0-1.41-1.12-2.13-3.1-2.22Zm.67-5.52a1.54,1.54,0,0,1,1.63,1.45,2.26,2.26,0,0,1,0,.26,1.52,1.52,0,0,1-1.38,1.65,1.13,1.13,0,0,1-.26,0,1.54,1.54,0,0,1-1.64-1.43,1,1,0,0,1,0-.25,1.56,1.56,0,0,1,1.43-1.68h.23m.69,6.75c1.13.06,2.13.32,2.13,1.26s-.79,1.63-2.55,1.63c-1.47,0-2.35-.75-2.35-1.48a2.43,2.43,0,0,1,1.07-1.49Zm-11.6,0c0,.08,0,.11.1.11h1.13c.08,0,.1,0,.1-.11V53.52a2.56,2.56,0,0,1,2-1c1.12,0,1.65.81,1.65,2v4.59c0,.1,0,.13.11.13h1.12c.08,0,.11,0,.11-.11V54.39c0-2.53-1.47-3.09-2.61-3.09a3.34,3.34,0,0,0-2.45,1.06,5.29,5.29,0,0,0-.09-.8.13.13,0,0,0-.15-.1h-1c-.08,0-.09,0-.09.1,0,.27.06,1.17.06,1.71Zm-2.21-4.78a2.71,2.71,0,0,0-2.4-3,2.77,2.77,0,0,0-.5,0,5.38,5.38,0,0,0-2.27.48.13.13,0,0,0-.08.13v1a.1.1,0,0,0,.07.09h0a4.22,4.22,0,0,1,2-.48A1.56,1.56,0,0,1,553,53.94a1.32,1.32,0,0,1,0,.28v.38h-1.1c-2,0-3.57.75-3.57,2.45s1.28,2.51,3,2.51a6.63,6.63,0,0,0,3-.69v-.06a5,5,0,0,1,0-.77Zm-1.3,3.73a3.59,3.59,0,0,1-1.45.27c-1.41,0-1.91-.7-1.91-1.42,0-.9.76-1.43,2.31-1.43a6.73,6.73,0,0,1,1,.07Zm-11.29-4.67a2.64,2.64,0,0,1,2-.88c1.12,0,1.65.81,1.65,2v4.58c0,.1,0,.13.11.13h1.12c.08,0,.11,0,.11-.11V54.45c0-2.53-1.47-3.09-2.61-3.09a3.37,3.37,0,0,0-2.37.93V47.91c0-.07,0-.08-.08-.08h-1.15c-.08,0-.1,0-.1.09V59.19c0,.08,0,.11.11.11h1.12c.08,0,.1,0,.1-.1Zm-2.88,4.59c0-.08,0-.08-.1-.07a5.22,5.22,0,0,1-2,.29,4.24,4.24,0,0,1,0-8.48,4.53,4.53,0,0,1,2.05.37s.11,0,.11-.08V49a.13.13,0,0,0-.08-.13,4.71,4.71,0,0,0-2-.29,5.23,5.23,0,0,0-5.61,4.82c0,.2,0,.41,0,.61a5.09,5.09,0,0,0,4.68,5.47,5.93,5.93,0,0,0,.73,0,5.66,5.66,0,0,0,2.16-.31c.06,0,.08-.08.08-.16ZM522.16,58a1.27,1.27,0,0,1-.29-.66,1.09,1.09,0,0,1,.08-.59,4.31,4.31,0,0,0,.88.09,2.61,2.61,0,0,0,2.88-2.3,2,2,0,0,0,0-.34,2.31,2.31,0,0,0-.56-1.55c.38,0,1.05.07,1.47.07.08,0,.09,0,.09-.1v-.91c0-.07,0-.1-.09-.1H524a6,6,0,0,0-1.2-.13,2.75,2.75,0,0,0-3,2.47,2.09,2.09,0,0,0,0,.25,2.46,2.46,0,0,0,1.09,2.16,2.2,2.2,0,0,0-.27,1,2.06,2.06,0,0,0,.38,1.2c-1.1.93-1.56,1.65-1.56,2.19,0,1.19,1.16,2.43,3.53,2.43s3.87-1.26,3.87-2.86c0-1.41-1.12-2.13-3.1-2.22Zm.67-5.52a1.54,1.54,0,0,1,1.63,1.45,2.26,2.26,0,0,1,0,.26,1.52,1.52,0,0,1-1.38,1.65h-.26a1.54,1.54,0,0,1-1.64-1.43,1,1,0,0,1,0-.25,1.56,1.56,0,0,1,1.43-1.68h.23m.69,6.75c1.13.06,2.13.32,2.13,1.26s-.79,1.63-2.55,1.63c-1.47,0-2.35-.75-2.35-1.48a2.43,2.43,0,0,1,1.07-1.49Zm-11.6,0c0,.08,0,.11.09.11h1.14c.08,0,.1,0,.1-.11V53.51a2.56,2.56,0,0,1,2-1c1.12,0,1.64.81,1.64,2V59.1c0,.1,0,.13.12.13h1.12c.08,0,.11,0,.11-.11V54.38c0-2.53-1.47-3.09-2.61-3.09a3.34,3.34,0,0,0-2.45,1.06,5.29,5.29,0,0,0-.09-.8c0-.07-.07-.1-.15-.1h-1c-.08,0-.1,0-.1.1,0,.27.07,1.17.07,1.71ZM509,50a.78.78,0,0,0,.82-.74v-.08a.77.77,0,0,0-.72-.82H509a.79.79,0,0,0-.82.76v.06a.77.77,0,0,0,.7.82h.1m-.67,9.18c0,.1,0,.13.13.13h1.1c.1,0,.11,0,.11-.11V51.61c0-.08,0-.1-.09-.1h-1.14c-.08,0-.11,0-.11.11Zm-3.59-1.09a3.48,3.48,0,0,1-1.28.21,2.57,2.57,0,0,1-2.73-2.42,2.36,2.36,0,0,1,0-.46,3,3,0,0,1,3.09-2.91,3.12,3.12,0,0,1,.91.17Zm-1.4,1.38a6.14,6.14,0,0,0,2.7-.59c.06,0,.08,0,.08-.12,0-.25,0-.51,0-.76V48s0-.08-.1-.08h-1.15c-.06,0-.1,0-.1.09V51.5a4.78,4.78,0,0,0-1-.1,4.07,4.07,0,0,0-4.35,3.77c0,.11,0,.23,0,.34a3.7,3.7,0,0,0,3.37,4,3.32,3.32,0,0,0,.63,0m-5.57-5.09a2.71,2.71,0,0,0-2.4-3,2.77,2.77,0,0,0-.5,0,5.23,5.23,0,0,0-2.27.48.13.13,0,0,0-.08.13v1c0,.08.06.09.11.08a4.22,4.22,0,0,1,2-.48A1.57,1.57,0,0,1,496.48,54a1.23,1.23,0,0,1,0,.27v.38h-1.1c-2,0-3.57.75-3.57,2.45s1.28,2.51,3,2.51a6.63,6.63,0,0,0,3-.69v-.06a5,5,0,0,1,0-.77Zm-1.3,3.73a3.59,3.59,0,0,1-1.45.27c-1.41,0-1.91-.7-1.91-1.42,0-.9.75-1.43,2.31-1.43a6.18,6.18,0,0,1,1,.07Zm-11-3.52a2.18,2.18,0,0,1,2.13-2.11,1.86,1.86,0,0,1,1.89,1.83v.07a.54.54,0,0,1,0,.18,8.34,8.34,0,0,1-1,0Zm3.48,1a15,15,0,0,0,1.64-.06.11.11,0,0,0,.12-.1h0a3.82,3.82,0,0,0,.06-.83A3.06,3.06,0,0,0,488,51.42h-.25c-2.22,0-3.54,1.87-3.54,4.11,0,2,1,4,3.76,4a4.76,4.76,0,0,0,2.26-.47.22.22,0,0,0,.08-.16V58c0-.06,0-.09-.08-.06a4.62,4.62,0,0,1-2,.43,2.48,2.48,0,0,1-2.67-2.29,3.09,3.09,0,0,1,0-.43Zm-5.83,3.73a.11.11,0,0,0,.13-.09h0l.19-1s0-.1-.08-.1h-5V48.88c0-.07,0-.1-.08-.1h-1.15c-.08,0-.1,0-.1.11V59.23a.12.12,0,0,0,.11.13h6Z"/>
      <path class="cls-5" d="M406.21,68.88c0,.08,0,.11.09.11h1.14c.08,0,.1,0,.1-.11V63.21a2.56,2.56,0,0,1,2-1c1.12,0,1.64.81,1.64,2V68.8c0,.1,0,.13.12.13h1.12c.08,0,.11,0,.11-.11V64.08c0-2.53-1.47-3.09-2.61-3.09a3.34,3.34,0,0,0-2.45,1.06,5.29,5.29,0,0,0-.09-.8c0-.07-.07-.1-.15-.1h-1c-.08,0-.1,0-.1.1,0,.27.07,1.17.07,1.71Zm-2.35-10.37a.09.09,0,0,0-.08-.1h-1.16c-.06,0-.09,0-.09.11V68.88c0,.08,0,.11.11.11h1.12c.08,0,.1,0,.1-.11Zm-3.11,7c.07,0,.08,0,.08-.08v-1c0-.06,0-.08-.08-.08h-3.58c-.07,0-.08,0-.08.08v1c0,.07,0,.08.08.08Zm-5.4-4.35a.21.21,0,0,0-.16.08c-.42.45-2.63,2.74-3.38,3.49V57.56c0-.06,0-.09-.1-.09h-1.12c-.09,0-.11,0-.11.09V68.88c0,.08,0,.11.11.11h1.12c.08,0,.1,0,.1-.11V65.12c.77.83,2.78,2.94,3.62,3.79a.21.21,0,0,0,.16.08h1.52c.08,0,.11-.07.06-.11-1.17-1.17-2.91-3-3.95-4.07v-.06c.59-.58,3-2.91,3.45-3.41a.09.09,0,0,0,0-.13Zm-6.48,6.58s0-.08-.1-.07a4,4,0,0,1-1.49.23,2.86,2.86,0,0,1,0-5.71,3.69,3.69,0,0,1,1.47.24c.07,0,.12,0,.12-.07v-1c0-.08,0-.11-.07-.14A4.35,4.35,0,0,0,383.32,64a4,4,0,0,0-.21,1.08,3.77,3.77,0,0,0,3.53,4h.47a4.9,4.9,0,0,0,1.74-.26c.07,0,.07,0,.07-.11Zm-12.26-3.52a2.17,2.17,0,0,1,2.13-2.11,1.86,1.86,0,0,1,1.89,1.83V64a.54.54,0,0,1,0,.18,8.34,8.34,0,0,1-1,0Zm3.47,1a15.17,15.17,0,0,0,1.65-.06.11.11,0,0,0,.11-.1,4.57,4.57,0,0,0,.07-.83A3.06,3.06,0,0,0,379,61h-.22c-2.23,0-3.54,1.87-3.54,4.11,0,2,1,4,3.76,4a4.76,4.76,0,0,0,2.26-.47.17.17,0,0,0,.08-.16v-.91c0-.06,0-.09-.08-.06a4.62,4.62,0,0,1-2,.43,2.49,2.49,0,0,1-2.68-2.3,2.94,2.94,0,0,1,0-.42Zm-11.52-2.14a2.71,2.71,0,0,1,2-.88c1.12,0,1.65.81,1.65,2v4.58c0,.1,0,.13.11.13h1c.08,0,.11,0,.11-.11V64.06c0-2.53-1.47-3.09-2.6-3.09a3.33,3.33,0,0,0-2.37.93V57.52c0-.07,0-.08-.08-.08h-1.15c-.08,0-.1,0-.1.09V68.88c0,.08,0,.11.12.11h1.12c.08,0,.09,0,.09-.1Zm-2.88,4.59c0-.08,0-.08-.09-.07a5.43,5.43,0,0,1-2,.29,4.24,4.24,0,1,1,0-8.48,4.57,4.57,0,0,1,2,.37s.11,0,.11-.08V58.63a.13.13,0,0,0-.08-.13,4.91,4.91,0,0,0-2.05-.29A5.23,5.23,0,0,0,358,63c0,.2,0,.41,0,.61a5.09,5.09,0,0,0,4.68,5.47,5.93,5.93,0,0,0,.73,0,5.66,5.66,0,0,0,2.16-.31c.07,0,.08-.08.08-.16Z"/>
      <path class="cls-5" d="M427.75,48.35a1.46,1.46,0,0,1-.29-.66,1.09,1.09,0,0,1,.08-.59,4.31,4.31,0,0,0,.88.09,2.61,2.61,0,0,0,2.88-2.3,2,2,0,0,0,0-.34,2.22,2.22,0,0,0-.56-1.55c.38,0,1.06.07,1.47.07.08,0,.1,0,.1-.1v-.91c0-.07,0-.1-.1-.1h-2.59a6,6,0,0,0-1.2-.13,2.74,2.74,0,0,0-3,2.45,2.75,2.75,0,0,0,1.08,2.43,2,2,0,0,0-.28,1,2,2,0,0,0,.39,1.2c-1.11.93-1.57,1.65-1.57,2.19,0,1.19,1.17,2.43,3.54,2.43s3.87-1.26,3.87-2.86c0-1.41-1.12-2.13-3.11-2.22Zm.67-5.52a1.54,1.54,0,0,1,1.63,1.45,2.26,2.26,0,0,1,0,.26,1.51,1.51,0,0,1-1.36,1.65,1.22,1.22,0,0,1-.27,0,1.68,1.68,0,0,1,0-3.36h0m.69,6.75c1.14.06,2.13.32,2.13,1.26s-.78,1.63-2.54,1.63c-1.48,0-2.36-.75-2.36-1.48a2.38,2.38,0,0,1,1.08-1.49Zm-11.6.05c0,.08,0,.11.1.11h1.13c.08,0,.1,0,.1-.11V44a2.56,2.56,0,0,1,2-1c1.12,0,1.65.81,1.65,2v4.59c0,.1,0,.13.11.13h1.12c.08,0,.11,0,.11-.11V44.88c0-2.53-1.47-3.09-2.61-3.09a3.31,3.31,0,0,0-2.44,1.06,5.3,5.3,0,0,0-.1-.8.12.12,0,0,0-.14-.1h-1c-.08,0-.09,0-.09.1,0,.27.06,1.17.06,1.71Zm-2.93-9.2a.78.78,0,0,0,.82-.74v-.08a.77.77,0,0,0-.72-.82h-.08a.79.79,0,0,0-.82.76v.06a.77.77,0,0,0,.72.82h.08m-.67,9.18c0,.1.05.13.13.13h1.1c.1,0,.12,0,.12-.11V42.06c0-.08,0-.1-.1-.1H414c-.08,0-.11,0-.11.11Zm-3.85-1.49c0,1.51.75,1.78,1.53,1.78a2.08,2.08,0,0,0,.74-.11c.06,0,.08,0,.08-.13v-.78c0-.07,0-.1-.07-.1a1.13,1.13,0,0,1-.32,0c-.38,0-.64-.15-.64-.77V38.41c0-.06,0-.09-.09-.09h-1.12c-.08,0-.11,0-.11.09ZM403.13,45a2.18,2.18,0,0,1,2.13-2.11,1.86,1.86,0,0,1,1.89,1.83v.07a.54.54,0,0,1,0,.18,8.34,8.34,0,0,1-1,0Zm3.48,1a15,15,0,0,0,1.64-.06.11.11,0,0,0,.12-.1h0a3.82,3.82,0,0,0,.06-.83,3.06,3.06,0,0,0-2.87-3.22h-.25c-2.22,0-3.54,1.87-3.54,4.11,0,2,1,4,3.76,4a4.76,4.76,0,0,0,2.26-.47s.08-.06.08-.16v-.91c0-.06,0-.09-.08-.06a4.62,4.62,0,0,1-2,.43,2.48,2.48,0,0,1-2.67-2.29,3.09,3.09,0,0,1,0-.43Zm-7.86,2.51a3.48,3.48,0,0,1-1.28.21,2.57,2.57,0,0,1-2.73-2.42,2.36,2.36,0,0,1,0-.46A2.79,2.79,0,0,1,397.42,43h.33a2.83,2.83,0,0,1,1,.16Zm-1.4,1.35a6.19,6.19,0,0,0,2.71-.59c.06,0,.08,0,.08-.12a4.82,4.82,0,0,1,0-.76V38.35a.08.08,0,0,0-.09-.08H398.9c-.07,0-.1,0-.1.09v3.52a4.78,4.78,0,0,0-1-.1,4.06,4.06,0,0,0-4.34,3.76c0,.12,0,.23,0,.35a3.7,3.7,0,0,0,3.38,4h.57m-8.89-7c1.66,0,2.35,1.43,2.35,2.92,0,2-1.12,2.88-2.26,2.88-1.52,0-2.37-1.3-2.37-2.93s.93-2.87,2.28-2.87m.06-1.15a3.73,3.73,0,0,0-3.69,3.79,2.35,2.35,0,0,0,0,.26c0,2,1.1,4.05,3.68,4.05,2.14,0,3.65-1.63,3.65-4.07s-1.39-4-3.65-4M373,39.23l-.71,10.38c0,.08,0,.1.1.1h1.09c.08,0,.11,0,.11-.1.17-3.36.46-8.16.48-9.55h0c.43,1.62,2.11,6.9,3,9.55,0,.08.05.1.14.1h1.12c.07,0,.12,0,.13-.1.67-2,2.82-8.09,3.2-9.53h0c0,1,.16,5.87.3,9.55,0,.06,0,.08.11.08h1.19c.06,0,.11,0,.09-.1l-.54-10.4c0-.06,0-.08-.1-.08H381c-.08,0-.1,0-.12.1-.54,1.63-2.67,7.45-3,8.78h0c-.34-1.39-2.27-7.13-2.82-8.78,0-.07-.05-.1-.13-.1h-1.86c-.07,0-.1,0-.11.1M361.66,45a2.17,2.17,0,0,1,2.12-2.11,1.86,1.86,0,0,1,1.89,1.83v.07a.54.54,0,0,1,0,.18,8.34,8.34,0,0,1-1,0Zm3.47,1a15.17,15.17,0,0,0,1.65-.06.11.11,0,0,0,.11-.1A3.82,3.82,0,0,0,367,45a3.06,3.06,0,0,0-2.87-3.22h-.25c-2.22,0-3.53,1.87-3.53,4.11,0,2,1,4,3.76,4a4.72,4.72,0,0,0,2.25-.47c.05,0,.08-.06.08-.16v-.91c0-.06,0-.09-.08-.06a4.62,4.62,0,0,1-2,.43,2.48,2.48,0,0,1-2.67-2.29,3.09,3.09,0,0,1,0-.43ZM357,48.1c0,1.51.75,1.78,1.54,1.78a2,2,0,0,0,.73-.11c.07,0,.08,0,.08-.13v-.76c0-.07,0-.1-.06-.1a1.13,1.13,0,0,1-.32,0c-.39,0-.64-.15-.64-.77V38.41c0-.06,0-.09-.1-.09h-1.12c-.08,0-.11,0-.11.09Zm-5.38-5.17c1.67,0,2.36,1.43,2.36,2.92,0,2-1.12,2.88-2.26,2.88-1.52,0-2.37-1.3-2.37-2.93s.93-2.87,2.27-2.87m.07-1.15A3.73,3.73,0,0,0,348,45.57a2.35,2.35,0,0,0,0,.26c0,2,1.1,4.05,3.68,4.05,2.14,0,3.65-1.63,3.65-4.07s-1.4-4-3.65-4M341.1,44.23V40.36h1.52c1.71,0,2.64.72,2.64,1.94s-.93,2-2.45,2Zm-.1,5.52a.09.09,0,0,0,.1-.08V45.4h1.82c.16,0,.24.06.37.25l2.62,4a.2.2,0,0,0,.18.07h1.34c.08,0,.08-.07.05-.13-.42-.69-2.56-3.84-3.1-4.59a3,3,0,0,0,2.2-2.83c0-2.05-1.56-3.06-3.92-3.06-1.07,0-1.88,0-2.78,0-.08,0-.1,0-.1.13V49.62c0,.08,0,.1.1.1Z"/>
      <path class="cls-5" d="M294.35,58.3c0-.08-.05-.08-.1-.07a2.11,2.11,0,0,1-.75.13c-.7,0-1-.41-1-1.15v-4.5h1.7c.06,0,.1,0,.1-.09v-1c0-.08,0-.11-.1-.11h-1.7c0-.78.05-1.71.1-2.27,0-.06,0-.08-.1-.06l-1.08.17a.14.14,0,0,0-.12.11c-.06.36-.12,1.46-.14,2h-1.09c-.08,0-.11,0-.11.11v.92c0,.08,0,.11.11.12h1.09v4.69c0,1.54.7,2.1,1.87,2.1a2.92,2.92,0,0,0,1.2-.23.14.14,0,0,0,.1-.16Zm-11.91.93c0,.08,0,.11.1.11h1.14c.08,0,.09,0,.09-.11V53.56a2.56,2.56,0,0,1,2-1c1.12,0,1.65.81,1.65,2v4.59c0,.1,0,.13.11.13h1.12c.08,0,.11,0,.11-.11V54.43c0-2.53-1.47-3.09-2.6-3.09a3.34,3.34,0,0,0-2.45,1.06,4.27,4.27,0,0,0-.1-.8.12.12,0,0,0-.14-.1h-1c-.08,0-.1,0-.1.1,0,.27.06,1.17.06,1.71Zm-6.91-4.61a2.18,2.18,0,0,1,2.13-2.11,1.86,1.86,0,0,1,1.89,1.83v.07a.54.54,0,0,1,0,.18,8.34,8.34,0,0,1-1,0Zm3.47,1a15.17,15.17,0,0,0,1.65-.06.1.1,0,0,0,.11-.09h0a3.29,3.29,0,0,0,.07-.83A3.06,3.06,0,0,0,278,51.41h-.25c-2.23,0-3.54,1.87-3.54,4.11,0,2,1,4,3.76,4a4.76,4.76,0,0,0,2.26-.47c.05,0,.08-.06.08-.16V58c0-.06,0-.09-.08-.06a4.62,4.62,0,0,1-2,.43,2.48,2.48,0,0,1-2.67-2.29,2.06,2.06,0,0,1,0-.43Zm-8.12,2.11c0,1.51.75,1.78,1.53,1.78a2.08,2.08,0,0,0,.74-.11c.06,0,.08,0,.08-.13v-.83c0-.07,0-.1-.07-.1a1.13,1.13,0,0,1-.32,0c-.38,0-.64-.15-.64-.77V48c0-.06,0-.09-.09-.09H271c-.08,0-.11,0-.11.09Zm-2.24-3.31a2.71,2.71,0,0,0-2.4-3,2.77,2.77,0,0,0-.5,0,5.23,5.23,0,0,0-2.27.48.13.13,0,0,0-.08.13v1c0,.08.06.09.11.08a4.22,4.22,0,0,1,2-.48A1.57,1.57,0,0,1,267.29,54a1.23,1.23,0,0,1,0,.27v.38h-1.1c-2,0-3.57.75-3.57,2.45s1.28,2.51,3,2.51a6.63,6.63,0,0,0,3-.69v-.06a5,5,0,0,1,0-.77Zm-1.3,3.73a3.64,3.64,0,0,1-1.46.27c-1.4,0-1.9-.7-1.9-1.42,0-.9.75-1.43,2.3-1.43a6.29,6.29,0,0,1,1.06.07Zm-8.82,1.09c0,.08.05.11.13.11h1.11c.08,0,.11,0,.11-.13V50h3.42c.07,0,.1,0,.08-.11l-.11-1c0-.08-.05-.11-.13-.11h-7.82a.11.11,0,0,0-.13.09h0l-.16,1c0,.08,0,.11.08.11h3.42ZM246.62,58a1.27,1.27,0,0,1-.29-.66,1.09,1.09,0,0,1,.08-.59,4.31,4.31,0,0,0,.88.09,2.61,2.61,0,0,0,2.88-2.3,2,2,0,0,0,0-.34,2.22,2.22,0,0,0-.56-1.55c.38,0,1.05.07,1.47.07.08,0,.1,0,.1-.1v-.91c0-.07,0-.1-.1-.1h-2.59a6,6,0,0,0-1.2-.13,2.74,2.74,0,0,0-3,2.45,2.75,2.75,0,0,0,1,2.39,2.2,2.2,0,0,0-.27,1,2,2,0,0,0,.39,1.2c-1.11.93-1.57,1.65-1.57,2.19,0,1.19,1.17,2.43,3.53,2.43s3.92-1.22,3.92-2.85c0-1.41-1.12-2.13-3.11-2.22Zm.67-5.52a1.54,1.54,0,0,1,1.63,1.45,2.26,2.26,0,0,1,0,.26,1.51,1.51,0,0,1-1.36,1.65,1.22,1.22,0,0,1-.27,0,1.68,1.68,0,0,1,0-3.36m.69,6.75c1.14.06,2.13.32,2.13,1.26s-.79,1.63-2.55,1.63c-1.47,0-2.35-.75-2.35-1.48a2.43,2.43,0,0,1,1.07-1.49Zm-11.6,0c0,.08,0,.11.1.11h1.13c.08,0,.1,0,.1-.11V53.52a2.56,2.56,0,0,1,2-1c1.12,0,1.65.81,1.65,2v4.59c0,.1,0,.13.11.13h1.12c.08,0,.11,0,.11-.11V54.39c0-2.53-1.47-3.09-2.61-3.09a3.34,3.34,0,0,0-2.45,1.06,5.29,5.29,0,0,0-.09-.8.13.13,0,0,0-.15-.1h-1c-.08,0-.09,0-.09.1,0,.27.06,1.17.06,1.71ZM233.44,50a.78.78,0,0,0,.82-.74v-.08a.77.77,0,0,0-.72-.82h-.08a.79.79,0,0,0-.82.76v.06a.77.77,0,0,0,.72.82h.08m-.67,9.18c0,.1,0,.13.13.13H234c.1,0,.11,0,.11-.11V51.62c0-.08,0-.1-.09-.1h-1.14c-.08,0-.11,0-.11.11Zm-1.46-.91c0-.08,0-.08-.09-.07a2.11,2.11,0,0,1-.75.13c-.71,0-1-.41-1-1.15v-4.5h1.7a.08.08,0,0,0,.09-.07v-1c0-.08,0-.11-.09-.11h-1.7c0-.78.05-1.71.1-2.27,0-.06,0-.08-.1-.06l-1.09.17a.15.15,0,0,0-.11.11c-.06.36-.13,1.46-.14,2h-1.08c-.08,0-.11,0-.11.11v.92c0,.08,0,.11.11.12h1.09v4.69c0,1.54.7,2.1,1.87,2.1a2.92,2.92,0,0,0,1.2-.23c.08,0,.09-.09.09-.16ZM226,58.1s0-.08-.1-.07a4,4,0,0,1-1.49.23,2.86,2.86,0,0,1,0-5.71,3.69,3.69,0,0,1,1.47.24c.07,0,.12,0,.12-.07v-1c0-.08,0-.11-.07-.14a4.35,4.35,0,0,0-5.48,2.79,4,4,0,0,0-.21,1.08,3.77,3.77,0,0,0,3.53,4h.42a4.9,4.9,0,0,0,1.74-.26c.07,0,.07,0,.07-.11Zm-12.26-3.52a2.18,2.18,0,0,1,2.13-2.11,1.86,1.86,0,0,1,1.89,1.83v.07a.54.54,0,0,1,0,.18,8.34,8.34,0,0,1-1,0Zm3.47,1a15.17,15.17,0,0,0,1.65-.06.1.1,0,0,0,.11-.09h0a3.29,3.29,0,0,0,.07-.83,3.06,3.06,0,0,0-2.87-3.22h-.25c-2.23,0-3.54,1.87-3.54,4.11,0,2,1,4,3.76,4a4.76,4.76,0,0,0,2.26-.47c.05,0,.08-.06.08-.16v-.91c0-.06,0-.09-.08-.06a4.62,4.62,0,0,1-2,.43A2.48,2.48,0,0,1,213.72,56a3.09,3.09,0,0,1,0-.43Zm-8.12,2.11c0,1.51.75,1.78,1.53,1.78a2.08,2.08,0,0,0,.74-.11c.06,0,.08,0,.08-.13V58.4c0-.07,0-.1-.07-.1a1.13,1.13,0,0,1-.32.05c-.38,0-.64-.15-.64-.77V47.93c0-.06,0-.09-.09-.09h-1.12c-.08,0-.11,0-.11.09Zm-6.92-3.1a2.18,2.18,0,0,1,2.13-2.11,1.86,1.86,0,0,1,1.89,1.83v.07a.54.54,0,0,1,0,.18,8.34,8.34,0,0,1-1,0Zm3.48,1a15,15,0,0,0,1.64-.06.11.11,0,0,0,.12-.1h0a3.82,3.82,0,0,0,.06-.83,3.06,3.06,0,0,0-2.87-3.22h-.25c-2.22,0-3.54,1.87-3.54,4.11,0,2,1,4,3.76,4a4.76,4.76,0,0,0,2.26-.47c.05,0,.08-.06.08-.16V58c0-.06,0-.09-.08-.06a4.62,4.62,0,0,1-2,.43A2.48,2.48,0,0,1,202.15,56a3.09,3.09,0,0,1,0-.43Zm-9.8,3.89c2.34,0,3.64-1.25,3.64-3,0-1.2-.58-2.19-2.55-3l-.69-.29c-1.42-.61-1.84-1.15-1.84-1.87s.45-1.54,2.12-1.54a4.66,4.66,0,0,1,2.35.53c.08,0,.13,0,.13-.06V49.17a.15.15,0,0,0-.08-.16,5.37,5.37,0,0,0-2.37-.43c-2.16,0-3.44,1.19-3.44,2.85,0,1.07.45,2.08,2.43,2.93l.7.29c1.46.65,1.89,1.21,1.89,2,0,1-.7,1.65-2.24,1.65a5,5,0,0,1-2.73-.78.09.09,0,0,0-.12,0v1.15c0,.09,0,.16.1.19a5.49,5.49,0,0,0,2.7.61"/>
      <path class="cls-4" d="M58.86,68.69c2.87,0,4.62-1.45,4.62-3.67,0-1.5-.71-2.7-3.18-3.72L59.58,61c-1.5-.62-1.94-1.1-1.94-1.78s.52-1.35,2.15-1.35a6,6,0,0,1,2.87.63c.11.07.17,0,.17-.08V56.57c0-.14,0-.19-.11-.25a6.9,6.9,0,0,0-2.91-.49c-2.87,0-4.41,1.55-4.41,3.59,0,1.42.61,2.6,3,3.59l.91.38c1.44.61,1.9,1.14,1.9,1.84s-.67,1.43-2.23,1.43a6.42,6.42,0,0,1-3.38-1,.09.09,0,0,0-.13,0,.11.11,0,0,0,0,.06v2a.27.27,0,0,0,.13.28,7.22,7.22,0,0,0,3.33.69M54,66.59c0-.1,0-.15-.13-.15H48.08V63.17H53c.07,0,.13,0,.13-.11V61.25c0-.11,0-.13-.13-.13H48.08v-3h5.43c.12,0,.15-.08.14-.17l-.21-1.77c0-.12-.06-.13-.17-.13H45.88c-.11,0-.15.05-.15.15V68.38c0,.09,0,.15.17.15h7.56c.12,0,.15,0,.17-.15ZM34.82,68.51c.11,0,.15-.06.15-.17V62a33.36,33.36,0,0,0-.1-3.53h0c.74,1.84,4.22,8,5.21,9.92a.26.26,0,0,0,.25.13h2.41c.13,0,.19,0,.19-.17V56.19c0-.12,0-.17-.17-.17H40.9c-.11,0-.17,0-.17.15v6.32c0,1.79,0,2.42.06,2.95h0c-.66-1.43-3.57-6.78-5-9.29,0-.1-.07-.13-.23-.13H32.89c-.1,0-.14,0-.14.13V68.33c0,.15.06.17.17.17ZM21.31,62.26c0-2.81,1.46-4.39,3.47-4.39,2.23,0,3.54,1.73,3.54,4.39s-1.27,4.41-3.42,4.41c-2.34,0-3.59-2-3.59-4.41m3.46-6.38c-3.49,0-5.89,2.77-5.89,6.42s2.21,6.44,5.89,6.44c3.46,0,5.89-2.57,5.87-6.5,0-3.51-2.14-6.36-5.87-6.36M17.69,68.55c.11,0,.15,0,.17-.15l.3-1.75c0-.12,0-.17-.09-.17H11.26l6.48-8.67a.35.35,0,0,0,.1-.26V56.18c0-.08,0-.11-.12-.11H8.89c-.1,0-.15,0-.17.15L8.43,58c0,.12,0,.14.14.14h6.36L8.35,66.88a.4.4,0,0,0-.06.22v1.28a.13.13,0,0,0,.11.15h0Z"/>
      <path class="cls-4" d="M134.06,47.58c0-.1,0-.15-.13-.15h-5.76V44.16h4.94c.08,0,.13,0,.13-.11V42.24c0-.11,0-.13-.13-.13h-4.94v-3h5.43a.13.13,0,0,0,.15-.11.13.13,0,0,0,0-.06l-.21-1.77c0-.12-.06-.13-.17-.13H126c-.11,0-.15,0-.15.15V49.37c0,.09,0,.15.17.15h7.56c.12,0,.16,0,.17-.15Zm-10.22-.17c0-.12-.06-.13-.14-.1a6.58,6.58,0,0,1-2.33.33,4.15,4.15,0,0,1-4.43-3.85,5.23,5.23,0,0,1,0-.56,4.1,4.1,0,0,1,3.83-4.35,2.81,2.81,0,0,1,.58,0,6,6,0,0,1,2.47.42c.08,0,.15,0,.15-.12v-1.8a.2.2,0,0,0-.11-.21,6.46,6.46,0,0,0-2.51-.29c-4.14,0-6.8,2.64-6.8,6.46,0,4.33,3,6.4,6.51,6.4a8.28,8.28,0,0,0,2.62-.34.27.27,0,0,0,.14-.25ZM104.35,49.5c.12,0,.16-.06.16-.17V43a33.36,33.36,0,0,0-.1-3.53h0c.74,1.84,4.22,8,5.21,9.92a.23.23,0,0,0,.24.13h2.42c.13,0,.19,0,.19-.17V37.19c0-.12,0-.17-.17-.17h-1.83c-.11,0-.17,0-.17.15v6.32c0,1.79,0,2.42.06,2.95h0c-.67-1.43-3.57-6.78-5-9.29-.06-.1-.08-.13-.23-.13h-2.68c-.09,0-.13,0-.13.13V49.33c0,.15.06.17.17.17Zm-11-5.36c.57-1.73,1.33-4,1.64-5.22h0c.38,1.33,1.28,4,1.68,5.22Zm3.93,2.07,1.11,3.17a.18.18,0,0,0,.19.12h2.12c.12,0,.14-.06.12-.17l-4.39-12.2c0-.1,0-.11-.13-.11H93.66c-.08,0-.12,0-.12.13a2.84,2.84,0,0,1-.17,1L89.46,49.29c0,.13,0,.19.13.19h1.9a.19.19,0,0,0,.21-.15l1-3.14Zm-21.6-9.08L75,49.35c0,.13,0,.15.13.15H77c.12,0,.15,0,.15-.13.19-4,.35-8.82.37-10.74h0c.54,2.32,2.06,7.85,2.87,10.74,0,.11.06.13.19.13h1.9c.08,0,.15,0,.17-.15.76-2.53,2.72-8.88,3.16-10.7h0c0,1.2,0,6.67.11,10.72,0,.11.06.13.15.13h2.11c.1,0,.15,0,.13-.15l-.51-12.22c0-.1-.06-.11-.15-.11h-3c-.12,0-.14,0-.18.13-.58,2-2.47,7.71-2.86,9.33h0c-.38-1.77-2-7.41-2.61-9.33,0-.1-.07-.13-.19-.13h-3c-.09,0-.13,0-.15.11m-9.29,5.62V39h1.56c1.61,0,2.62.63,2.62,1.88s-1,1.9-2.53,1.9Zm-.15,6.75a.13.13,0,0,0,.15-.11V44.71H68c.21,0,.31.1.44.32.84,1.33,2.17,3.52,2.72,4.37a.31.31,0,0,0,.26.1h2.38c.11,0,.09-.1,0-.21-.55-.95-2.83-4.35-3.46-5.23a3.52,3.52,0,0,0,2.45-3.34C72.78,38.29,71,37,68,37c-1.46,0-2.26,0-3.76.05-.11,0-.13.08-.13.18V49.35c0,.11,0,.15.15.15Zm-13.6-6.25c0-2.81,1.46-4.39,3.47-4.39,2.23,0,3.54,1.73,3.54,4.39s-1.28,4.41-3.42,4.41c-2.34,0-3.59-2-3.59-4.41m3.51-6.42c-3.5,0-5.89,2.77-5.89,6.42s2.2,6.44,5.89,6.44c3.46,0,5.89-2.57,5.87-6.5,0-3.51-2.15-6.36-5.87-6.36M43.45,44.46h4.84c.1,0,.16,0,.16-.13V42.54c0-.11-.06-.13-.16-.13H43.45V39.09h5.4c.11,0,.17,0,.15-.16l-.19-1.76c0-.12-.06-.15-.17-.15H41.35c-.11,0-.15,0-.15.13v12.2c0,.09,0,.15.13.15h2c.11,0,.15,0,.15-.15ZM32.26,42.75V39h1.56c1.61,0,2.62.63,2.62,1.88s-1,1.9-2.53,1.9Zm-.15,6.75a.13.13,0,0,0,.15-.11V44.71h1.63c.21,0,.31.1.44.32.84,1.33,2.17,3.52,2.72,4.37a.28.28,0,0,0,.26.1h2.38c.11,0,.09-.1,0-.21-.56-.95-2.84-4.35-3.46-5.23a3.53,3.53,0,0,0,2.45-3.34c0-2.43-1.79-3.74-4.83-3.74-1.46,0-2.26,0-3.76.05-.11,0-.13.08-.13.18V49.35c0,.11,0,.15.15.15Zm-3.92-1.92c0-.1,0-.15-.13-.15H22.35V44.16h4.94c.08,0,.14,0,.14-.11V42.24c0-.11,0-.13-.14-.13H22.35v-3h5.44a.14.14,0,0,0,.14-.12.43.43,0,0,0,0-.05l-.21-1.77c0-.12-.06-.13-.17-.13H20.16c-.12,0-.16,0-.16.15V49.37c0,.09,0,.15.17.15h7.57c.11,0,.15,0,.17-.15ZM11.7,39h1.41c1.74,0,2.73.82,2.73,2.21,0,1.73-1.35,2.26-2.94,2.26H11.7ZM9.4,49.37c0,.09.06.13.15.13h2a.13.13,0,0,0,.15-.11V45.45h1.2c2.87,0,5.2-1.31,5.2-4.33,0-2.09-1.36-4.14-5-4.14-1.39,0-2.79,0-3.52.05-.09,0-.13.06-.13.16Z"/>
      <path class="cls-4" d="M104.65,20h1.4c1.75,0,2.74.82,2.74,2.21,0,1.73-1.35,2.26-3,2.26h-1.19Zm-2.3,10.36c0,.09.05.13.15.13h2c.12,0,.16-.06.16-.15v-3.9h1.19c2.87,0,5.21-1.31,5.21-4.33,0-2.09-1.37-4.14-5-4.14-1.39,0-2.8,0-3.52.05-.09,0-.13.06-.13.16Zm-2.83-12.2c0-.12,0-.15-.16-.15h-2c-.1,0-.15,0-.15.15V30.33c0,.11,0,.17.15.17h2c.12,0,.16,0,.16-.17ZM94.25,30.5c.12,0,.16,0,.16-.15V18.15c0-.1,0-.13-.14-.13h-2a.12.12,0,0,0-.13.11V23h-5.3v-4.8c0-.12,0-.15-.16-.15h-2c-.12,0-.15,0-.15.17V30.33c0,.11,0,.17.17.17h2c.12,0,.16-.06.16-.17V25.05h5.3v5.3c0,.11,0,.15.15.15Zm-16.43.19c2.87,0,4.62-1.45,4.62-3.67,0-1.5-.71-2.7-3.18-3.72L78.54,23c-1.5-.62-1.94-1.1-1.94-1.78s.52-1.35,2.15-1.35a6,6,0,0,1,2.87.63c.11.07.17,0,.17-.08V18.57c0-.14,0-.19-.11-.25a6.9,6.9,0,0,0-2.91-.49c-2.87,0-4.41,1.55-4.41,3.59,0,1.42.61,2.6,3,3.59l.91.38c1.44.61,1.9,1.14,1.9,1.84S79.5,28.66,78,28.66a6.48,6.48,0,0,1-3.39-1,.09.09,0,0,0-.13,0,.11.11,0,0,0,0,.06v2a.27.27,0,0,0,.13.28,7.22,7.22,0,0,0,3.33.69M65.75,23.76V20h1.56c1.61,0,2.62.63,2.62,1.88s-1,1.9-2.53,1.9Zm-.15,6.75a.13.13,0,0,0,.15-.11V25.72h1.6c.21,0,.31.1.44.32.83,1.33,2.16,3.52,2.72,4.37a.28.28,0,0,0,.26.1h2.38c.11,0,.09-.1,0-.21-.55-1-2.83-4.35-3.45-5.23a3.53,3.53,0,0,0,2.45-3.34c0-2.43-1.79-3.74-4.83-3.74-1.46,0-2.26,0-3.76.05-.11,0-.13.08-.13.18V30.36c0,.11,0,.15.15.15Zm-3.92-1.92c0-.1,0-.15-.13-.15H55.79V25.17h4.94c.08,0,.13,0,.13-.11V23.25c0-.11,0-.13-.13-.13H55.79v-3h5.44a.13.13,0,0,0,.12-.24l-.21-1.77c0-.12-.06-.13-.17-.13H53.63c-.11,0-.15,0-.15.15V30.31c0,.09,0,.15.17.15h7.57c.11,0,.15,0,.17-.15ZM43.25,20h1.41C47.22,20,49,21.39,49,24.15a4.11,4.11,0,0,1-3.77,4.44,4.33,4.33,0,0,1-.72,0H43.25ZM41,30.34c0,.11.06.17.14.17h3.55c3.21,0,6.74-1.87,6.74-6.5,0-3.54-2.24-6.06-6.7-6.06-1.75,0-3,0-3.59.05-.12,0-.14.06-.14.16Zm-9-5.19c.57-1.73,1.33-4,1.64-5.22h0c.38,1.33,1.27,4,1.67,5.22Zm3.94,2.07L37,30.39a.18.18,0,0,0,.19.12h2.17c.11,0,.13-.06.11-.17l-4.39-12.2c0-.1,0-.11-.13-.11H32.26c-.08,0-.12,0-.12.13a2.63,2.63,0,0,1-.17,1L28.06,30.3c0,.13,0,.19.13.19h1.9a.19.19,0,0,0,.21-.15l1-3.14Zm-8.84,1.36c0-.1,0-.15-.13-.15H21.16V25.16H26.1c.08,0,.14,0,.14-.11V23.24c0-.11,0-.13-.14-.13H21.16v-3H26.6a.14.14,0,0,0,.14-.12s0,0,0,0l-.21-1.77c0-.12-.06-.13-.17-.13H19c-.12,0-.16,0-.16.15V30.37c0,.09,0,.15.17.15H26.6c.11,0,.15,0,.17-.15ZM16.93,30.5c.09,0,.15,0,.17-.15l.32-1.79c0-.08,0-.13-.13-.13H11.7V18.15c0-.08,0-.13-.11-.13h-2c-.11,0-.15.07-.15.17V30.31c0,.13,0,.19.19.19Z"/>
      <path class="cls-5" d="M641.35,21.88c2.92,0,4.78-1.44,4.78-3.74,0-1.54-.7-2.74-3.23-3.78l-.7-.29c-1.42-.57-1.82-1-1.82-1.55s.51-1.12,2-1.12a6.07,6.07,0,0,1,2.93.62c.11.08.17,0,.17-.09V9.78a.27.27,0,0,0-.11-.25,7.31,7.31,0,0,0-3-.49c-3,0-4.58,1.63-4.58,3.68,0,1.49.65,2.66,3,3.65l1,.4c1.29.55,1.73,1,1.73,1.6s-.57,1.16-2,1.16a6.62,6.62,0,0,1-3.44-1c-.07-.06-.15,0-.15.09v2.26a.31.31,0,0,0,.13.31,7.45,7.45,0,0,0,3.29.69m-5-2.39c0-.11,0-.17-.15-.17h-5.61V16.54h4.85c.07,0,.15,0,.15-.13V14.32a.13.13,0,0,0-.11-.15h-4.89V11.62h5.3c.14,0,.15-.07.14-.17l-.21-2c0-.13-.06-.15-.21-.15H628.1c-.11,0-.15.06-.15.17v12.1c0,.12,0,.17.15.17h7.74c.13,0,.17,0,.19-.17ZM617.91,9.4c0-.11,0-.17-.15-.17h-2.32c-.15,0-.17.06-.17.17v7.54c0,3.31,2,4.92,5,4.92,2.83,0,5.09-1.42,5.09-5V9.4c0-.11,0-.17-.17-.17h-2.31c-.12,0-.16.06-.16.17v7.3c0,2.09-.93,2.83-2.37,2.83-1.73,0-2.47-1.16-2.47-2.8Zm-4.3,12.27c.1,0,.18,0,.19-.15l.35-2.07a.12.12,0,0,0-.08-.16h-5.49V9.38c0-.09,0-.15-.13-.15h-2.36c-.11,0-.15.07-.15.19v12c0,.14,0,.21.19.21Zm-16.54-5.34c.49-1.53,1.17-3.62,1.48-4.9h0c.36,1.35,1.12,3.65,1.5,4.9Zm3.7,2.38,1,2.83c0,.1.09.13.21.13h2.47c.11,0,.13-.07.09-.17L600.23,9.34c0-.09-.06-.11-.15-.11h-3a.13.13,0,0,0-.12.13,3.25,3.25,0,0,1-.19,1.16l-3.8,11c0,.12,0,.19.16.19h2.2a.2.2,0,0,0,.21-.15l.91-2.81ZM588.1,19c-.36-1.48-1.52-5.07-3.14-9.67,0-.09-.05-.13-.17-.13h-2.53c-.13,0-.17.07-.11.19l4.37,12.12a.2.2,0,0,0,.21.13h2.55a.17.17,0,0,0,.19-.13l4.27-12.12c0-.13,0-.19-.13-.19h-2.4c-.09,0-.13,0-.17.15-1.56,4.79-2.49,8.11-2.9,9.65Zm-17.27-7.5h1.29c1.65,0,2.47.76,2.47,2,0,1.55-1.2,2-2.7,2h-1.06Zm-2.63,10c0,.1,0,.15.14.15h2.33c.12,0,.16-.05.16-.15V17.78h1.08c2.93,0,5.3-1.31,5.3-4.39,0-2.07-1.33-4.2-5.17-4.2-1.44,0-2.94,0-3.72.06-.1,0-.12,0-.12.15ZM565.47,9.41c0-.13-.06-.17-.17-.17H563c-.09,0-.15,0-.15.17v12.1c0,.12,0,.17.15.17h2.37c.13,0,.17-.05.17-.17Zm-5.53,12.27c.11,0,.15,0,.15-.17V9.38c0-.11,0-.15-.11-.15H557.6c-.11,0-.13.06-.13.15V14h-4.81V9.4c0-.13,0-.17-.19-.17h-2.28c-.13,0-.17,0-.17.19V21.5c0,.12,0,.17.19.17h2.26c.14,0,.19-.07.19-.17V16.41h4.81V21.5c0,.14,0,.17.15.17Zm-16.7.19c2.93,0,4.79-1.44,4.79-3.74,0-1.54-.71-2.74-3.23-3.78l-.71-.29c-1.42-.57-1.82-1-1.82-1.55s.51-1.12,2-1.12a6,6,0,0,1,2.92.62c.12.08.17,0,.17-.09V9.78a.27.27,0,0,0-.11-.25,7.15,7.15,0,0,0-3-.49c-3,0-4.58,1.63-4.58,3.68,0,1.49.64,2.66,3,3.65l1,.4c1.29.55,1.73,1,1.73,1.6s-.57,1.16-2,1.16a6.53,6.53,0,0,1-3.43-1c-.08-.06-.16,0-.16.09v2.26a.32.32,0,0,0,.14.31,7.32,7.32,0,0,0,3.36.66m-12.08-7v-3.3h1.44c1.41,0,2.36.49,2.36,1.65s-.92,1.69-2.34,1.69ZM531,21.69a.14.14,0,0,0,.16-.12V17.08h1.38c.21,0,.31.09.44.32.78,1.29,2,3.32,2.53,4.16,0,.08.09.11.26.11h2.76c.13,0,.11-.11.05-.22-.58-1-2.73-4.26-3.36-5.12A3.57,3.57,0,0,0,537.62,13c0-2.45-1.77-3.8-4.92-3.8-1.54,0-2.27,0-4,.06-.11,0-.13.09-.13.19V21.5c0,.14,0,.17.15.17Zm-4.18-2.2c0-.11,0-.17-.15-.17h-5.6V16.54h4.84c.08,0,.15,0,.15-.13V14.32c0-.11-.05-.15-.15-.15h-4.84V11.62h5.26c.13,0,.15-.07.13-.17l-.21-2c0-.13-.06-.15-.21-.15h-7.5c-.12,0-.15.06-.15.17v12.1c0,.12,0,.17.15.17h7.79c.13,0,.17,0,.19-.17Zm-18.39-8h1.18c2.43,0,4.07,1.25,4.07,3.8a3.83,3.83,0,0,1-3.47,4.14,3.64,3.64,0,0,1-.66,0h-1.12Zm-2.64,10c0,.14,0,.19.12.19h3.76c3.23,0,6.72-1.92,6.72-6.46,0-3.51-2.22-6.06-6.76-6.06-1.69,0-3.14,0-3.71.06-.11,0-.13,0-.13.15Zm-8.87-5.15c.49-1.53,1.18-3.62,1.48-4.9h0c.36,1.35,1.12,3.65,1.5,4.9Zm3.7,2.38,1,2.83a.2.2,0,0,0,.21.13h2.47c.12,0,.13-.07.1-.17L500.05,9.34c0-.09-.05-.11-.15-.11h-3a.12.12,0,0,0-.11.13h0a3.81,3.81,0,0,1-.19,1.16l-3.8,11c0,.12,0,.19.15.19h2.2a.2.2,0,0,0,.21-.15l.91-2.81Zm-8.85.76c0-.11,0-.17-.15-.17H486V16.53h4.85c.07,0,.15,0,.15-.13V14.31a.13.13,0,0,0-.11-.15H486V11.61h5.32c.14,0,.16-.07.14-.17l-.21-2c0-.13-.06-.15-.21-.15h-7.51c-.11,0-.15.06-.15.17v12.1c0,.12,0,.17.15.17h7.74c.13,0,.17,0,.19-.17Zm-10.34,2.2c.1,0,.17,0,.19-.15l.35-2.07c0-.09,0-.17-.14-.17h-5.43V9.38c0-.09,0-.15-.13-.15h-2.36c-.11,0-.15.07-.15.19v12c0,.14,0,.21.19.21Zm-13.85-2.2c0-.11,0-.17-.15-.17h-5.6V16.53h4.84c.08,0,.15,0,.15-.13V14.31c0-.11,0-.15-.15-.15h-4.84V11.61h5.3c.13,0,.15-.07.13-.17l-.21-2c0-.13-.06-.15-.21-.15h-7.51c-.12,0-.16.06-.16.17v12.1c0,.12,0,.17.16.17h7.73c.13,0,.17,0,.19-.17Zm-17-8H452c1.44,0,2.16.52,2.16,1.49a1.59,1.59,0,0,1-.57,1.29,16,16,0,0,0-1.69-.1H450.6Zm0,4.9h1.63a4.84,4.84,0,0,1,1.2.12,1.34,1.34,0,0,1,1.12,1.38c0,1.1-1,1.64-2.6,1.62h-1.39ZM448,21.53a.16.16,0,0,0,.13.17H452c3.27,0,5.28-1.54,5.28-3.86a3.13,3.13,0,0,0-1.76-2.92,3,3,0,0,0,1.16-2.41c0-1.26-.67-3.33-4.72-3.33-1.34,0-3.21,0-3.87.06-.1,0-.12.07-.12.19Zm-11.22-6c0-2.6,1.31-4.08,3.21-4.08s3.23,1.55,3.25,4.08-1.18,4.07-3.16,4.07-3.3-1.77-3.3-4.07M440,9.11c-3.6,0-6,2.85-6,6.4s2.2,6.42,5.93,6.42c3.55,0,6-2.6,6-6.48,0-3.47-2.14-6.34-5.92-6.34m-15.43,2.47h1.18c2.43,0,4.06,1.25,4.06,3.8a3.81,3.81,0,0,1-3.45,4.14,3.75,3.75,0,0,1-.67,0h-1.12Zm-2.64,10c0,.14,0,.19.11.19h3.76c3.23,0,6.73-1.92,6.73-6.46,0-3.51-2.22-6.06-6.77-6.06-1.69,0-3.13,0-3.7.06-.11,0-.13,0-.13.15Zm-8.88-5.15c.5-1.53,1.18-3.62,1.49-4.9h0c.37,1.35,1.13,3.65,1.51,4.9Zm3.71,2.38,1,2.83c0,.1.09.13.21.13h2.47c.11,0,.13-.07.09-.17L416.27,9.44c0-.09-.06-.11-.15-.11h-3a.13.13,0,0,0-.12.13,3.53,3.53,0,0,1-.19,1.16l-3.8,11c0,.12,0,.19.15.19h2.21a.2.2,0,0,0,.21-.15l.91-2.81Z"/>
    </g>
  </g>
  <g>
    <rect y="77" width="880.5" height="1"/>
    <rect y="132.63" width="880.5" height="1"/>
    <rect y="188.25" width="880.5" height="1"/>
    <rect y="243.87" width="880.5" height="1"/>
    <rect y="299.5" width="880.5" height="1"/>
    <rect y="355.12" width="880.5" height="1"/>
  </g>
  <rect x="170" width="1" height="411.25"/>
  <rect x="312" y="29.5" width="1" height="381.75"/>
  <rect x="454" y="29.5" width="1" height="381.75"/>
  <rect x="596.35" y="29.5" width="1" height="381.75"/>
  <rect x="738" y="29.5" width="1" height="381.75"/>
  <rect x="170.48" y="29" width="710.02" height="1"/>
</svg>
