<svg id="Layer_17" data-name="Layer 17" xmlns="http://www.w3.org/2000/svg" width="66.43" height="60.85" viewBox="0 0 66.43 60.85">
  <defs>
    <style>
      .cls-1 {
        fill: none;
      }

      .cls-2 {
        fill: #e6b56b;
      }
    </style>
  </defs>
  <title>select-notes-yl</title>
  <polygon class="cls-1" points="36.51 54.98 38.52 54.14 36.85 52.83 36.51 54.98"/>
  <g>
    <polygon class="cls-1" points="32 12 37.17 12 32 6.83 32 12"/>
    <path class="cls-2" d="M61.88,49.68h4V39a1.72,1.72,0,0,0,0-.39,2,2,0,0,0-.29-.72h0a2.48,2.48,0,0,0-.25-.3l-12-12a1.48,1.48,0,0,0-.31-.25h0a1.8,1.8,0,0,0-.71-.3,1.75,1.75,0,0,0-.4,0h-28a2,2,0,0,0-1.41.59A2,2,0,0,0,21.88,27V79a2,2,0,0,0,.59,1.41,2,2,0,0,0,1.41.59H49.1V77H25.88V29h24V39a2,2,0,0,0,.59,1.41,2,2,0,0,0,1.41.59h10ZM53.88,37V31.82L59.06,37Z" transform="translate(-21.88 -24.99)"/>
    <polygon class="cls-1" points="37.37 48.09 37.33 48.31 42.49 52.37 42.7 52.28 52.23 40.15 46.9 35.96 37.37 48.09"/>
    <rect class="cls-1" x="71.93" y="52.42" width="10.41" height="6.78" transform="translate(-36.29 56.98) rotate(-51.84)"/>
    <path class="cls-2" d="M87.48,51.22l-8.75-6.29a2,2,0,0,0-1.49-.35,2,2,0,0,0-1.3.8L57.05,71.65a2,2,0,0,0-.36.93l-1.29,11a2,2,0,0,0,2.84,2.05l10-4.73a2.09,2.09,0,0,0,.77-.64L87.94,54A2,2,0,0,0,87.48,51.22ZM59.79,80.49l.26-2.16,1.72,1.23Zm6.32-3-.21.09-5.32-3.83,0-.22,9-12.52,5.5,4ZM77.45,61.75l-5.51-4L78,49.34l5.5,4Z" transform="translate(-21.88 -24.99)"/>
  </g>
</svg>
