<svg id="Layer_1" data-name="Layer 1" xmlns="http://www.w3.org/2000/svg" viewBox="0 0 45.79 63"><defs><style>.cls-1{fill:#ed1c24;}.cls-2{fill:#fff;}</style></defs><title>standard_adobe_logo_-_2-color_red_and_white</title><polygon class="cls-1" points="28.88 0 45.79 0 45.79 40.49 28.88 0"/><polygon class="cls-1" points="16.96 0 0.03 0 0.03 40.49 16.96 0"/><polygon class="cls-1" points="22.92 14.92 33.69 40.49 26.63 40.49 23.41 32.35 15.52 32.35 22.92 14.92"/><path class="cls-2" d="M30.32,90.08L29.58,93.6a0.15,0.15,0,0,1-.18.16H27.25c-0.14,0-.18,0-0.16-0.23l3-12.75a4.61,4.61,0,0,0,.09-1.24,0.12,0.12,0,0,1,.14-0.14h3.07a0.16,0.16,0,0,1,.18.16l3.45,14c0,0.14,0,.18-0.14.18H34.45a0.16,0.16,0,0,1-.18-0.16l-0.79-3.52H30.32ZM33,87.66c-0.32-1.65-.9-4.13-1.13-5.73h0c-0.23,1.56-.65,3.75-1,5.73H33Z" transform="translate(-27.09 -30.93)"/><path class="cls-2" d="M37.35,88.27c0-3.25,1.92-5.77,5-5.77h0.36V78.67a0.11,0.11,0,0,1,.13-0.11H45.2a0.1,0.1,0,0,1,.11.11V91.51A10,10,0,0,0,45.38,93a0.14,0.14,0,0,1-.09.16,7.36,7.36,0,0,1-3.23.78C39.25,93.93,37.35,92.11,37.35,88.27Zm5.33-3.39a1.2,1.2,0,0,0-.49-0.07C40.94,84.82,40,86,40,88.18s0.94,3.34,2.16,3.34a1.9,1.9,0,0,0,.51-0.07V84.88Z" transform="translate(-27.09 -30.93)"/><path class="cls-2" d="M54.85,88.18c0,3.52-1.47,5.75-4.06,5.75-2.9,0-4.06-2.54-4.06-5.77s1.47-5.66,4.1-5.66S54.85,84.6,54.85,88.18Zm-5.51,0c0,2.07.45,3.43,1.45,3.43s1.43-1.16,1.43-3.41c0-2.1-.36-3.39-1.4-3.39S49.35,85.87,49.35,88.18Z" transform="translate(-27.09 -30.93)"/><path class="cls-2" d="M58.77,78.55c0.09,0,.11,0,0.11.13v3.95a5.45,5.45,0,0,1,1.2-.13c2.32,0,4.08,1.78,4.08,5.24,0,4-2.3,6.2-5.17,6.2a8.41,8.41,0,0,1-2.59-.4,0.19,0.19,0,0,1-.13-0.18V78.69a0.12,0.12,0,0,1,.13-0.13h2.36Zm0.91,6.31a2.76,2.76,0,0,0-.8.11v6.58a1.83,1.83,0,0,0,.47,0c1,0,2.18-1,2.21-3.79C61.58,85.64,60.71,84.86,59.69,84.86Z" transform="translate(-27.09 -30.93)"/><path class="cls-2" d="M67.78,88.83c0,1.72.65,2.76,2.45,2.76a4.55,4.55,0,0,0,1.69-.31c0.11,0,.18,0,0.18.11v1.85a0.27,0.27,0,0,1-.16.29,4.87,4.87,0,0,1-2.21.4c-3.28,0-4.55-2.41-4.55-5.55,0-3.34,1.47-5.88,4.08-5.88s3.54,2.43,3.54,4.41a12.14,12.14,0,0,1-.11,1.67,0.21,0.21,0,0,1-.2.18c-0.22,0-.91.07-2.12,0.07H67.78Zm1.89-2.1a3.68,3.68,0,0,0,.67,0,1,1,0,0,0,0-.25c0-.85-0.27-1.74-1.18-1.74s-1.25.91-1.36,2h1.85Z" transform="translate(-27.09 -30.93)"/></svg>