<?xml version="1.0" encoding="utf-8"?>
<!-- Generator: Adobe Illustrator 21.0.0, SVG Export Plug-In . SVG Version: 6.00 Build 0)  -->
<svg version="1.1" id="Layer_1" xmlns="http://www.w3.org/2000/svg" xmlns:xlink="http://www.w3.org/1999/xlink" x="0px" y="0px"
	 viewBox="0 0 280 280" style="enable-background:new 0 0 280 280;" xml:space="preserve">
<style type="text/css">
	.st0{fill-opacity:0;}
	.st1{fill:#3C9980;}
</style>
<title>btn-icons-qualitative</title>
<rect class="st0" width="280" height="280"/>
<g>
	<path class="st1" d="M278.7,20c-0.9-0.9-2-1.3-3.2-1.3h-42.1V4.6c0-1.2-0.5-2.4-1.3-3.2c-0.9-0.9-2-1.3-3.2-1.3h-37.4
		c-1.2,0-2.4,0.5-3.2,1.3c-0.9,0.9-1.3,2-1.3,3.2v14.1H93.2V4.6c0-1.2-0.5-2.4-1.3-3.2C91,0.5,89.8,0,88.6,0H51.3
		c-1.2,0-2.4,0.5-3.2,1.3c-0.9,0.9-1.3,2-1.3,3.2v14.1H4.6c-1.2,0-2.4,0.5-3.2,1.3c-0.9,0.9-1.3,2-1.3,3.2v252.2
		c0,1.2,0.5,2.4,1.3,3.2c0.9,0.9,2,1.3,3.2,1.3h270.8c1.2,0,2.4-0.5,3.2-1.3c0.9-0.9,1.3-2,1.3-3.2V23.3
		C280,22.1,279.5,20.9,278.7,20z M195.9,9.2h28.2v37.5h-28.2V9.2z M55.9,9.2h28.2v37.5H55.9V9.2z M46.7,27.8v23.4
		c0,1.2,0.5,2.4,1.3,3.2c0.9,0.9,2,1.3,3.2,1.3h37.4c1.2,0,2.4-0.5,3.2-1.3c0.9-0.9,1.3-2,1.3-3.2V27.8h93.6v23.4
		c0,1.2,0.5,2.4,1.3,3.2c0.9,0.9,2,1.3,3.2,1.3h37.4c1.2,0,2.4-0.5,3.2-1.3c0.9-0.9,1.3-2,1.3-3.2V27.8h37.5v56.2H9.2V27.8H46.7z
		 M9.2,270.8V93.2h261.7v177.6H9.2z"/>
	<path class="st1" d="M251.9,139.9c2.5,0,4.6-2.1,4.6-4.6s-2.1-4.6-4.6-4.6h-46.6v-20.2c0-2.5-2.1-4.6-4.6-4.6
		c-2.5,0-4.6,2.1-4.6,4.6v20.2h-56.2v-20.2c0-2.5-2.1-4.6-4.6-4.6s-4.6,2.1-4.6,4.6v20.2H74.5v-20.2c0-2.5-2.1-4.6-4.6-4.6
		c-2.5,0-4.6,2.1-4.6,4.6v20.2H28.1c-2.5,0-4.6,2.1-4.6,4.6s2.1,4.6,4.6,4.6h37.2v37.5H28.1c-2.5,0-4.6,2.1-4.6,4.6
		c0,2.5,2.1,4.6,4.6,4.6h37.2v37.5H28.1c-2.5,0-4.6,2.1-4.6,4.6s2.1,4.6,4.6,4.6h37.2v18.6c0,2.5,2.1,4.6,4.6,4.6
		c2.5,0,4.6-2.1,4.6-4.6v-18.6h56.2v18.6c0,2.5,2.1,4.6,4.6,4.6s4.6-2.1,4.6-4.6v-18.6h56.2v18.6c0,2.5,2.1,4.6,4.6,4.6
		c2.5,0,4.6-2.1,4.6-4.6v-18.6h46.6c2.5,0,4.6-2.1,4.6-4.6s-2.1-4.6-4.6-4.6h-46.6v-37.5h46.6c2.5,0,4.6-2.1,4.6-4.6
		c0-2.5-2.1-4.6-4.6-4.6h-46.6v-37.5H251.9z M74.5,139.9h56.2v37.5H74.5V139.9z M74.5,224.1v-37.5h56.2v37.5H74.5z M196.1,224.1
		h-56.2v-37.5h56.2V224.1z M196.1,177.4h-56.2v-37.5h56.2V177.4z"/>
</g>
</svg>
