<?xml version="1.0" encoding="utf-8"?>
<!-- Generator: Adobe Illustrator 22.0.0, SVG Export Plug-In . SVG Version: 6.00 Build 0)  -->
<svg version="1.1" id="Layer_1" xmlns="http://www.w3.org/2000/svg" xmlns:xlink="http://www.w3.org/1999/xlink" x="0px" y="0px"
	 viewBox="0 0 280 280" style="enable-background:new 0 0 280 280;" xml:space="preserve">
<style type="text/css">
	.st0{fill-opacity:0;}
	.st1{fill:#C8A87A;}
</style>
<title>btn-icons-qualitative</title>
<g id="Layer_1-2">
	<rect class="st0" width="280" height="280"/>
</g>
<g>
	<path class="st1" d="M14,67c0,13.8,0,27.1,0,40.4c0,18.4,0,36.8,0.1,55.2c0.1,28.8,12.7,42,41.7,43.3c0.9,0,1.8,0.2,3.7,0.5
		c0,12.1,0,24.3,0,38c4.3-2.6,7.2-4.3,10-6.1c13.6-9,27-18.4,40.9-26.8c5.2-3.1,11.9-5.1,18-5.4c14.9-0.8,29.8-0.2,45.2-0.2
		c0,3.9,0,7.2,0,11.8c-5,0-10.2,0-15.4,0c-43.4,0.3-30-3.2-65.6,19.8c-12.7,8.2-25.3,16.8-37.9,25.1c-1.9,1.2-3.8,2.3-6.8,4
		c0-14.4-0.3-27.9,0.1-41.3c0.2-5.8-1.7-7.9-7.2-9.1c-23.5-5.2-38-22.9-38.3-47.4C2.1,138.8,2.4,109,2.4,79.1c0-1.1,0-2.3,0.2-3.4
		C4,66,4.3,65.7,14,67z"/>
	<path class="st1" d="M109.5,31.9c6.1,0,11.8,0,17.5,0c32.4,0,64.8,0.5,97.2,0c31.5-0.5,52.7,19.8,53.3,53.5
		c0.4,27.3,0.1,54.7,0.1,82.1c0,2.5,0,5,0,8c-4.2,0-8,0-12,0c0-6.3,0.1-12.9,0-19.4c-0.3-26.2,0-52.4-1.1-78.5
		C263.7,59,251,46,232.4,45.1c-25-1.2-50.1-1-75.1-1.3c-12.9-0.1-25.7-0.2-38.6,0.1C107.8,44.1,107.8,44.3,109.5,31.9z"/>
	<path class="st1" d="M54.8,13.5c1.2,5.8,1.4,9.7-4.9,12.1c-6.7,2.5-9.4,9-10.8,15.8c-0.8,3.9,0,6.2,4.8,7.2
		c8,1.6,12.3,9.9,9.8,17.5c-2.5,7.7-11.4,11.6-19.1,8.2C27.6,71.1,24.7,65,23.4,58c-3.1-16.3,7.6-36,22.9-42.4
		C48.9,14.5,51.8,14.2,54.8,13.5z"/>
	<path class="st1" d="M96.6,13.7c1.6,5.2,1.6,8.5-3.8,11.7C88.5,28,85,33,82.7,37.6c-2.3,4.6-3.6,9.9,5.1,11.3
		c6.9,1.1,10.6,10.4,8.1,17.2c-2.8,7.7-11.1,12-18.2,8.1c-4.2-2.3-8.5-6.6-10.3-11.1c-7.3-18,5.2-42.8,23.8-48.5
		C92.9,14.1,94.7,14.1,96.6,13.7z"/>
	<path class="st1" d="M228.5,234.3c-1.2-5.8-1.4-9.7,4.9-12.1c6.7-2.5,9.4-9,10.8-15.8c0.8-3.9,0-6.2-4.8-7.2
		c-8-1.6-12.3-9.9-9.8-17.5c2.5-7.7,11.4-11.6,19.1-8.2c7.1,3.1,9.9,9.2,11.2,16.2c3.1,16.3-7.6,36-22.9,42.4
		C234.5,233.3,231.5,233.6,228.5,234.3z"/>
	<path class="st1" d="M186.7,234c-1.6-5.2-1.6-8.5,3.8-11.7c4.3-2.6,7.9-7.5,10.2-12.1c2.3-4.6,3.6-9.9-5.1-11.3
		c-6.9-1.1-10.6-10.4-8.1-17.2c2.8-7.7,11.1-12,18.2-8.1c4.2,2.3,8.5,6.6,10.3,11.1c7.3,18-5.2,42.8-23.8,48.5
		C190.5,233.6,188.7,233.7,186.7,234z"/>
</g>
<circle class="st1" cx="91.1" cy="124.6" r="9.6"/>
<circle class="st1" cx="140" cy="124.6" r="9.6"/>
<circle class="st1" cx="185.8" cy="124.6" r="9.6"/>
</svg>
