<?xml version="1.0" encoding="utf-8"?>
<!-- Generator: Adobe Illustrator 22.0.0, SVG Export Plug-In . SVG Version: 6.00 Build 0)  -->
<svg version="1.1" id="Layer_1" xmlns="http://www.w3.org/2000/svg" xmlns:xlink="http://www.w3.org/1999/xlink" x="0px" y="0px"
	 viewBox="0 0 280 280" style="enable-background:new 0 0 280 280;" xml:space="preserve">
<style type="text/css">
	.st0{fill-opacity:0;}
	.st1{fill:#7AC87A;}
</style>
<title>btn-icons-qualitative</title>
<g id="Layer_1-2">
	<rect class="st0" width="280" height="280"/>
</g>
<path class="st1" d="M42.7,87.8c0.7-2.2,2.9-3.3,5.1-4.4c1.5-0.7,3.1-1.2,4.8-1.4c1.3-0.1,2.3,0.2,2.9,1.1c1.4,2,2.8,4,4.2,6
	c0.6,0.8,1.3,1.6,2,2.4c0.6,0.6,1,0.5,1.6-0.1c1.4-1.6,2.8-3.2,3.9-4.8C74.9,75.4,83.1,64.5,92,53.9c2.2-2.6,4.4-5.1,6.6-7.7
	c0.4-0.5,0.7-1,1-1.4c0.1-0.1,0.2-0.3,0.3-0.4c2.8-2.1,5.7-4.1,9.5-5c2.3-0.5,4.6-1,7-1c1.3,0,1.8,0.5,1.2,1.4c-1,1.6-2,3.2-3.2,4.6
	c-3.5,4.2-7.2,8.2-10.8,12.4c-0.6,0.7-1.2,1.4-1.7,2.1c-4.7,5.8-9.4,11.5-14,17.3c-4,5.1-7.8,10.4-11.7,15.6
	c-3.2,4.3-6.5,8.6-9.6,12.9c-1,1.4-2.5,2-4.3,2.4c-2.8,0.6-5.6,0.7-8.5,0.4c-0.6-0.1-1-0.2-1.4-0.6c-2.1-2.1-3.6-4.5-4.8-7
	c-1.6-3.4-3.2-6.9-4.8-10.3c-0.1-0.3-0.2-0.6-0.3-0.9C42.8,88.3,42.7,88.1,42.7,87.8z"/>
<path class="st1" d="M42.7,155.2c0.7-2.2,2.9-3.3,5.1-4.4c1.5-0.8,3.1-1.2,4.8-1.4c1.3-0.1,2.3,0.2,2.9,1.1c1.4,2,2.8,4,4.2,6
	c0.6,0.8,1.3,1.6,2,2.4c0.6,0.6,1,0.5,1.6-0.1c1.4-1.6,2.8-3.2,3.9-4.8c7.7-11.2,15.9-22.1,24.8-32.7c2.2-2.6,4.4-5.1,6.6-7.7
	c0.4-0.5,0.7-1,1-1.4c0.1-0.1,0.2-0.3,0.3-0.4c2.8-2.1,5.7-4.1,9.5-5c2.3-0.5,4.6-1,7-1c1.3,0,1.8,0.5,1.2,1.4c-1,1.6-2,3.2-3.2,4.6
	c-3.5,4.2-7.2,8.2-10.8,12.4c-0.6,0.7-1.2,1.4-1.7,2.1c-4.7,5.8-9.4,11.5-14,17.3c-4,5.1-7.8,10.4-11.7,15.6
	c-3.2,4.3-6.5,8.6-9.6,12.9c-1,1.4-2.5,2-4.3,2.4c-2.8,0.6-5.6,0.7-8.5,0.4c-0.6-0.1-1-0.2-1.4-0.6c-2.1-2.1-3.6-4.5-4.8-7
	c-1.6-3.4-3.2-6.9-4.8-10.3c-0.1-0.3-0.2-0.6-0.3-0.9C42.8,155.7,42.7,155.5,42.7,155.2z"/>
<path class="st1" d="M42.7,222.6c0.7-2.2,2.9-3.3,5.1-4.4c1.5-0.7,3.1-1.2,4.8-1.4c1.3-0.1,2.3,0.2,2.9,1.1c1.4,2,2.8,4,4.2,6
	c0.6,0.8,1.3,1.6,2,2.4c0.6,0.6,1,0.5,1.6-0.1c1.4-1.6,2.8-3.2,3.9-4.8c7.7-11.2,15.9-22.1,24.8-32.7c2.2-2.6,4.4-5.1,6.6-7.7
	c0.4-0.5,0.7-1,1-1.4c0.1-0.1,0.2-0.3,0.3-0.4c2.8-2.1,5.7-4.1,9.5-5c2.3-0.5,4.6-1,7-1c1.3,0,1.8,0.5,1.2,1.4c-1,1.6-2,3.2-3.2,4.6
	c-3.5,4.2-7.2,8.2-10.8,12.4c-0.6,0.7-1.2,1.4-1.7,2.1c-4.7,5.8-9.4,11.5-14,17.3c-4,5.1-7.8,10.4-11.7,15.6
	c-3.2,4.3-6.5,8.6-9.6,12.9c-1,1.4-2.5,2-4.3,2.4c-2.8,0.6-5.6,0.7-8.5,0.4c-0.6-0.1-1-0.2-1.4-0.6c-2.1-2.1-3.6-4.5-4.8-7
	c-1.6-3.4-3.2-6.9-4.8-10.3c-0.1-0.3-0.2-0.6-0.3-0.9C42.8,223.1,42.7,222.9,42.7,222.6z"/>
<path class="st1" d="M146,226.3h89.9c2.2,0,4-1.8,4-4s-1.8-4-4-4H146c-2.2,0-4,1.8-4,4S143.8,226.3,146,226.3"/>
<path class="st1" d="M146,158.9h89.9c2.2,0,4-1.8,4-4s-1.8-4-4-4H146c-2.2,0-4,1.8-4,4S143.8,158.9,146,158.9"/>
<path class="st1" d="M146,91.5h89.9c2.2,0,4-1.8,4-4s-1.8-4-4-4H146c-2.2,0-4,1.8-4,4S143.8,91.5,146,91.5"/>
<path class="st1" d="M278.8,1.2C278,0.4,277,0,275.9,0H4.1C3,0,2,0.4,1.2,1.2S0,3,0,4.1v271.8c0,1.1,0.4,2.1,1.2,2.9S3,280,4.1,280
	h271.8c1.1,0,2.1-0.4,2.9-1.2s1.2-1.8,1.2-2.9V4.1C280,3,279.6,2,278.8,1.2z M8.2,8.2h263.6v263.6H8.2V8.2z"/>
</svg>
