<?xml version="1.0" encoding="utf-8"?>
<!-- Generator: Adobe Illustrator 22.0.0, SVG Export Plug-In . SVG Version: 6.00 Build 0)  -->
<svg version="1.1" id="Layer_1" xmlns="http://www.w3.org/2000/svg" xmlns:xlink="http://www.w3.org/1999/xlink" x="0px" y="0px"
	 viewBox="0 0 280 280" style="enable-background:new 0 0 280 280;" xml:space="preserve">
<style type="text/css">
	.st0{fill-opacity:0;}
	.st1{fill:#7A93C8;}
	.st2{fill:#867AC8;}
</style>
<title>btn-icons-customer</title>
<g id="Layer_1-2">
	<rect class="st0" width="280" height="280"/>
</g>
<polygon class="st1" points="19.4,178.2 19.5,178.2 19.5,178.2 "/>
<g>
	<path class="st2" d="M278.8,189.1c-0.7-2-2.6-3.3-4.7-3.3h-44.2L210,141.4c-1.1-2.5-4.1-3.7-6.6-2.6l0,0c-1.3,0.5-2.3,1.6-2.7,3
		l-14.6,44h-43.8c-2.8,0-5,2.2-5,5l0,0c0,1.5,0.7,3,1.9,3.9l35.8,28.8l-21.5,49.7c-1.1,2.5,0.1,5.4,2.6,6.5c1.6,0.7,3.4,0.5,4.8-0.4
		l44.7-29.7l44.7,29.7c2.3,1.5,5.4,0.9,6.9-1.4c0.9-1.3,1.1-3,0.5-4.5l-17.6-49.8l37.1-28.9C278.8,193.4,279.5,191.2,278.8,189.1z
		 M231.2,217.9c-1.7,1.3-2.4,3.5-1.6,5.5l13.9,39.1l-35-23.3c-1.7-1.1-3.9-1.1-5.5,0l-33.5,22.4l16.3-37.7c0.9-2.1,0.3-4.5-1.5-5.9
		l-27.7-22.3h33.3c2.1,0,4-1.4,4.7-3.4l11.7-35.3l15.9,35.7c0.8,1.8,2.6,3,4.6,3h32.9L231.2,217.9z"/>
	<path class="st2" d="M184.4,70.5c-0.3-1.5-0.7-2.9-1.3-4.3c-0.8-2.1-2.2-4.1-3.8-5.7c-0.2-0.2-0.5-0.4-0.9-0.7
		c0.3-0.7,0.6-1.5,1-2.3c1.4-3.6,2.6-7.2,3.6-10.9c1.2-4.6,1.8-9.3,1.9-14c0-3.3-0.4-6.7-1.2-9.9c-0.5-2.1-1.4-4.1-2.6-6
		c-2.1-3.2-4.9-5.8-8.1-7.8c-5.3-3.2-11.1-5.5-17.2-6.8C149.2,0.7,142.4,0,135.6,0c-10.6,0-21.1,1.6-29.7,5.1
		c-4.2,1.6-8.1,3.9-11.5,6.8c-1.6,1.4-3,3.1-4.2,4.9l-1,1.6c-0.9-0.1-1.8-0.1-2.7-0.1c-2.8,0-5.6,0.5-8.2,1.6
		c-1.8,0.8-3.3,1.9-4.7,3.3c-1.8,2-3.1,4.4-3.8,6.9c-0.6,2.5-1,5-1,7.6c0,3.1,0.3,6.1,0.9,9.2c0.7,4,1.7,8,2.9,11.9l0.5,1.9
		c-0.8,0.5-1.6,1.2-2.2,1.9c-1.7,2-2.9,4.3-3.6,6.8c-1.3,4.4-1.4,9.1-0.4,13.5c0.3,1.5,0.7,2.9,1.3,4.3c0.8,2.1,2.1,4,3.8,5.5
		c0.7,0.6,1.4,1.1,2.1,1.5c0.3,6.3,1.5,12.5,3.5,18.4c2.7,7.8,7,15,12.5,21.1c1.8,1.9,3.6,3.8,5.7,5.4v20.5
		c-8.2,3-16.7,5.9-25.2,8.6c-14.4,4.7-28.4,9.3-39.6,14.3c-5.1,2.2-10,5-14.5,8.2c-2,1.5-3.7,3.2-5.3,5c-1.5,1.8-2.7,3.9-3.4,6.1
		l0,0C6,207.7,4.7,213.5,4,219.4c-1.4,9.3-2.1,18.9-2.6,26.2S1,258.1,1,258.1c-0.1,2.7,2.1,5,4.8,5h0.1h131.5l3.9-10H11
		c0.1-3.8,0.4-9.5,1-15.9c0.4-5.4,1.1-11.4,1.9-17.1c0.8-5.1,1.9-10.2,3.4-15.1l0,0c0.6-1.5,1.5-2.9,2.7-3.9
		c1.6-1.5,3.3-2.9,5.1-4.1c4.6-2.8,9.5-5.2,14.5-7.3c8.6-3.5,19-7,30-10.7c11-3.6,22.3-7.3,33.1-11.4c1.9-0.7,3.2-2.6,3.2-4.7v-26.3
		c0-1.7-0.8-3.2-2.1-4.2l0,0l-0.2-0.1c-4.1-3.2-7.7-7.1-10.6-11.5c-2.6-4-4.7-8.3-6.2-12.8c-1.8-5.7-2.7-11.7-2.7-17.7
		c0-2.8-2.2-5-5-5l0,0h-0.2c-0.2-0.1-0.4-0.2-0.5-0.4c-0.7-0.9-1.1-1.9-1.4-3c-0.4-1.6-0.6-3.2-0.6-4.9c0-1.3,0.1-2.6,0.4-3.8
		c0.2-0.8,0.4-1.6,0.7-2.3c0.2-0.7,0.6-1.4,1.2-1.9c0.1-0.1,0.2-0.1,0.3-0.2h0.2c2.8,0,5-2.2,5-5l0,0c0-0.5,0-0.9-0.1-1.4
		c-0.1-0.7-0.3-1.4-0.5-2.1c-0.3-1.3-0.9-2.8-1.3-4.6C81.5,53,80.6,50,80,46.8c-0.6-3-1-6.1-1.1-9.2c0-1.5,0.1-3,0.4-4.5
		c0.2-0.8,0.5-1.5,0.9-2.2c0.4-0.8,1.1-1.5,1.9-1.9c1.4-0.6,2.9-0.9,4.4-0.9c1.6,0,3.3,0.2,4.9,0.5c2.6,0.5,5.2-1.1,5.9-3.7
		c0.3-1,0.7-2,1.3-3c1.4-1.9,3.1-3.6,5.1-4.9c4.3-2.6,9-4.4,14-5.4c5.9-1.3,12-1.9,18-1.9c9.5,0,19,1.5,26.1,4.4
		c3.1,1.2,6,2.9,8.5,5c1,0.8,1.8,1.8,2.5,2.9c0.6,0.9,1.1,1.9,1.3,3c0.6,2.4,0.9,4.9,0.9,7.5c-0.2,6.1-1.4,12.2-3.5,17.9
		c-1,2.6-1.8,4.8-2.6,6.7c-0.4,1-0.6,1.8-1,2.6l-0.3,1.3c-0.1,0.6-0.2,1.1-0.2,1.7c0,2.8,2.2,5,5,5l0,0h0.1c0.2,0.1,0.4,0.2,0.5,0.4
		c0.7,0.9,1.2,2,1.5,3.1c0.4,1.7,0.6,3.5,0.6,5.2c0,1.4-0.1,2.7-0.4,4.1c-0.2,0.8-0.4,1.7-0.7,2.5c-0.2,0.8-0.7,1.5-1.3,2
		c-0.1,0.1-0.2,0.1-0.3,0.2h-0.2c-2.8,0-5,2.2-5,5l0,0c0.1,6.2-0.7,12.3-2.6,18.2c-1.7,5.5-4.7,10.5-8.6,14.7
		c-1.1,1.1-2.3,2.1-3.5,3c-0.3,0.2-0.6,0.5-1,0.6l-0.2,0.1l0,0c-1.7,0.8-2.8,2.6-2.8,4.5V163c0,2.1,1.3,3.9,3.2,4.7
		c7.1,2.7,13.8,5.3,20.3,7.8l3.7-9.3c-5.5-2-11.1-4.3-17.2-6.6V134c3.2-2.4,6-5.2,8.3-8.4c3.1-4.3,5.5-9,7.1-14.1
		c1.8-5.7,2.9-11.5,3.1-17.5c1.3-0.7,2.4-1.6,3.3-2.7c1.7-2,2.9-4.5,3.5-7c0.7-2.6,1.1-5.2,1.1-7.9
		C184.9,74.4,184.7,72.5,184.4,70.5z"/>
</g>
</svg>
