<?xml version="1.0" encoding="utf-8"?>
<!-- Generator: Adobe Illustrator 21.0.0, SVG Export Plug-In . SVG Version: 6.00 Build 0)  -->
<svg version="1.1" id="Layer_1" xmlns="http://www.w3.org/2000/svg" xmlns:xlink="http://www.w3.org/1999/xlink" x="0px" y="0px"
	 viewBox="0 0 280 280" style="enable-background:new 0 0 280 280;" xml:space="preserve">
<style type="text/css">
	.st0{fill-opacity:0;}
	.st1{fill:none;}
	.st2{fill:#AAAAAA;}
</style>
<title>btn-icons-people</title>
<g id="Layer_1_1_">
	<rect class="st0" width="280" height="280"/>
</g>
<path class="st1" d="M238.5,200.9c0.6-19.6-18.2-36.1-34.5-36.3c-42.2-0.4-84.7-0.6-127.1,0c-17.2,0.2-34.5,15-34.6,29.5
	c-0.2,23.6-0.3,47.2-0.3,71h195.7C237.7,243.6,237.8,222.3,238.5,200.9z"/>
<g>
	<path class="st2" d="M139.4,139.7c34.5,0,63.5-28.9,63.7-63.4c0.4-35.2-28.9-63.7-64.8-63.4c-35.6,0.4-62.4,27.8-62.2,63.5
		c0,34.8,28.2,63,63,63C139.2,139.7,139.2,139.7,139.4,139.7z M138.7,28c27.4-0.2,49.8,21.5,49.5,48.3c-0.6,26.7-22,48.2-48.7,48.5
		c-26.5,0.2-48.2-21.3-48.3-47.8c0-0.2,0-0.2,0-0.4C91.1,49.3,111.4,28.4,138.7,28L138.7,28z"/>
	<path class="st2" d="M42.2,196c0.2-14.4,17.4-29.3,34.6-29.5c42.4-0.6,84.8-0.4,127.1,0c16.3,0.2,35,16.7,34.5,36.3
		c-0.7,21.4-0.8,42.8-0.8,64.1h15.9c0-22.8-0.1-45.7-0.3-68.6c-0.2-22.4-19.3-44.3-41.7-45c-47.1-1.5-94.1-1.5-141-0.2
		c-24.8,1.3-43.7,24.1-43.9,48c-0.1,21.9-0.1,43.9-0.1,65.8h15.3C41.8,243.2,41.9,219.6,42.2,196z"/>
</g>
</svg>
