<?xml version="1.0" encoding="utf-8"?>
<!-- Generator: Adobe Illustrator 21.0.0, SVG Export Plug-In . SVG Version: 6.00 Build 0)  -->
<svg version="1.1" id="Layer_1" xmlns="http://www.w3.org/2000/svg" xmlns:xlink="http://www.w3.org/1999/xlink" x="0px" y="0px"
	 viewBox="0 0 280 280" style="enable-background:new 0 0 280 280;" xml:space="preserve">
<style type="text/css">
	.st0{fill-opacity:0;}
	.st1{fill:#487CB2;}
</style>
<title>btn-icons-qualitative</title>
<rect class="st0" width="280" height="280"/>
<g>
	<path class="st1" d="M104.7,205.5H40.9c0.5-0.6,0.9-1.2,1.3-1.8c1.3-1.8,2.3-3.8,3-5.9c0.7-2.1,1.1-4.3,1.1-6.5V65.1h173l0,0l0,0
		h14.2v39.6c0,2.5,2,4.5,4.5,4.5s4.5-2,4.5-4.5V60.6c0-1.2-0.5-2.4-1.3-3.2s-2-1.3-3.2-1.3h-14.2V32.6c0-1.2-0.5-2.4-1.3-3.2
		c-0.8-0.8-2-1.3-3.2-1.3H65.1V4.5c0-1.2-0.5-2.4-1.3-3.2S61.8,0,60.6,0H4.5C3.3,0,2.2,0.5,1.3,1.3C0.5,2.2,0,3.3,0,4.5v186.9
		c0,3.1,0.7,6.1,1.9,8.9c1.8,4.1,4.8,7.6,8.5,10.2c3.7,2.5,8.1,4.1,12.8,4.2h81.4c2.5,0,4.5-2,4.5-4.5S107.2,205.5,104.7,205.5z
		 M11.6,199c-1.6-2.3-2.5-5-2.5-7.6V9h47v23.5c0,1.2,0.5,2.4,1.3,3.2s2,1.3,3.2,1.3h154.3v19h-173c-1.2,0-2.4,0.5-3.2,1.3
		s-1.3,2-1.3,3.2v130.8c0,1.5-0.4,3.1-1.1,4.8c-1.1,2.5-3.1,4.9-5.5,6.7c-1.2,0.9-2.4,1.5-3.7,2c-1.3,0.5-2.6,0.7-3.8,0.7
		c-1.8,0-3.5-0.4-5.2-1.2C15.5,203.3,13.2,201.3,11.6,199z"/>
	<path class="st1" d="M259.5,160.6c-12.6-12.6-30.2-20.5-49.4-20.5c-19.3,0-36.8,7.8-49.4,20.5c-12.6,12.6-20.5,30.2-20.5,49.4
		c0,19.3,7.8,36.8,20.5,49.4c12.6,12.6,30.1,20.5,49.4,20.5s36.8-7.8,49.4-20.5c12.6-12.6,20.5-30.1,20.5-49.4
		C280,190.8,272.2,173.3,259.5,160.6z M253.1,253.1c-11,11-26.2,17.8-43,17.8s-32-6.8-43-17.8c-11-11-17.8-26.2-17.8-43
		s6.8-32,17.8-43s26.2-17.8,43-17.8s32,6.8,43,17.8s17.8,26.2,17.8,43S264.1,242.1,253.1,253.1z"/>
	<path class="st1" d="M242.2,205.5h-27.6v-27.6c0-2.5-2-4.5-4.5-4.5s-4.5,2-4.5,4.5v27.6H178c-2.5,0-4.5,2-4.5,4.5s2,4.5,4.5,4.5
		h27.6v27.6c0,2.5,2,4.5,4.5,4.5s4.5-2,4.5-4.5v-27.6h27.6c2.5,0,4.5-2,4.5-4.5S244.7,205.5,242.2,205.5z"/>
</g>
</svg>
