<?xml version="1.0" encoding="utf-8"?>
<!-- Generator: Adobe Illustrator 21.0.0, SVG Export Plug-In . SVG Version: 6.00 Build 0)  -->
<svg version="1.1" id="Layer_1" xmlns="http://www.w3.org/2000/svg" xmlns:xlink="http://www.w3.org/1999/xlink" x="0px" y="0px"
	 viewBox="0 0 280 280" style="enable-background:new 0 0 280 280;" xml:space="preserve">
<style type="text/css">
	.st0{fill-opacity:0;}
	.st1{fill:#7AC8C0;}
</style>
<title>btn-icons-quantitative</title>
<g id="Layer_1-2">
	<rect class="st0" width="280" height="280"/>
</g>
<g>
	<path class="st1" d="M259.2,66.6l-3-4.9l-103.7,80.5l91.6,91.6l3.6-4.3C286.1,183.2,290.7,117.7,259.2,66.6L259.2,66.6z
		 M243.2,218.4L168,143.2L253.3,77C278.2,121.9,274.3,177.4,243.2,218.4L243.2,218.4z"/>
	<path class="st1" d="M240.6,42.6c-23.5-24.3-54.9-39.2-88.5-42.1L146.5,0v122.9l98.1-76.1L240.6,42.6z M156.8,11.5
		c27.1,3.5,52.4,15.5,72.3,34.3l-72.3,56.1V11.5z"/>
	<path class="st1" d="M127.6,0.4l-5.8,0.7C59.1,9.4,9.7,58.6,1.3,121.3l-0.7,5.6l127.1,6.8L127.6,0.4L127.6,0.4z M12.4,117.1
		C22,63.7,63.8,21.8,117.3,12.3v110.4L12.4,117.1z"/>
	<path class="st1" d="M0,145.7l0.5,5.9c6.5,77,74.2,134.3,151.2,127.8c27-2.3,52.8-12.3,74.2-28.9l4.6-3.6L136.6,153L0,145.7z
		 M52,235.2c-22.3-20.6-36.6-48.4-40.5-78.5l120.7,6.4l82.8,82.8C164.9,281.3,96.9,276.8,52,235.2L52,235.2z"/>
</g>
</svg>
