<?xml version="1.0" encoding="utf-8"?>
<!-- Generator: Adobe Illustrator 21.0.0, SVG Export Plug-In . SVG Version: 6.00 Build 0)  -->
<svg version="1.1" id="Layer_1" xmlns="http://www.w3.org/2000/svg" xmlns:xlink="http://www.w3.org/1999/xlink" x="0px" y="0px"
	 viewBox="0 0 280 280" style="enable-background:new 0 0 280 280;" xml:space="preserve">
<style type="text/css">
	.st0{fill-opacity:0;}
	.st1{fill:#C8A87A;}
</style>
<title>btn-icons-quantitative</title>
<rect class="st0" width="280" height="280"/>
<g>
	<path class="st1" d="M155.9,116.4c-4.2,4.2-8.5,8.4-12.7,12.6c-1-0.3-2.1-0.4-3.1-0.4c-6.3,0-11.5,5.1-11.5,11.5
		s5.1,11.5,11.5,11.5s11.5-5.1,11.5-11.5c0-1.6-0.3-3.1-0.9-4.5c26.2-25.8,52.5-51.7,78.7-77.6c1.5-1.4,2.9-2,4.9-2
		c6.4,0.1,12.9,0.1,19.4-0.1c1.3,0,2.9-0.6,3.8-1.5c6.6-6.6,13.1-13.3,19.6-20.1c0.7-0.7,1.5-2.3,1.1-2.8c-0.5-0.8-1.9-1.5-2.9-1.5
		c-5.1-0.1-10.3-0.1-15.4-0.1c-0.7,0-1.4-0.1-2.2-0.2c3.1-4,3.4-5.5,1.7-7.7c-3-3.7-6-2.2-9.2,0.6c0-6.3,0.1-11.9-0.1-17.6
		c0-1.1-0.9-2.3-1.3-3.4c-0.5,0-1,0-1.5,0c-7,7-14,14.1-20.9,21.2c-0.9,0.9-1.5,2.4-1.5,3.6c-0.1,6.5-0.1,13,0,19.4
		c0,1.9-0.6,3.3-2,4.6C200.4,72.4,178.2,94.4,155.9,116.4z"/>
	<path class="st1" d="M263.7,74.4l-7.3,5.5c9.3,18,14.6,38.4,14.6,60.1c0,36.2-14.7,68.9-38.4,92.6C208.9,256.3,176.2,271,140,271
		c-34.8,0-66.4-13.6-89.9-35.7c-0.9-0.9-1.8-1.7-2.7-2.6c-0.9-0.9-1.8-1.8-2.6-2.7C22.6,206.4,9,174.8,9,140
		c0-36.2,14.7-68.9,38.4-92.6S103.8,9,140,9c21.7,0,42.1,5.3,60.1,14.6l5.5-7.3C186,5.9,163.7,0,140,0c-38.6,0-73.7,15.7-99,41
		S0,101.4,0,140c0,37.7,15,72,39.3,97.2c0.6,0.6,1.2,1.2,1.8,1.8s1.2,1.2,1.8,1.8C68,265,102.3,280,140,280c38.6,0,73.7-15.7,99-41
		s41-60.3,41-99C280,116.3,274.1,94,263.7,74.4z"/>
	<path class="st1" d="M179.1,51.5c-12-5.3-25.2-8.2-39.1-8.2c-26.7,0-50.9,10.8-68.4,28.3S43.2,113.3,43.2,140
		c0,23.6,8.5,45.2,22.5,62c1.9,2.2,3.8,4.4,5.8,6.4s4.2,4,6.4,5.8c16.8,14,38.4,22.5,62,22.5c26.7,0,50.9-10.8,68.4-28.3
		s28.3-41.7,28.3-68.4c0-13.9-2.9-27.1-8.2-39.1l-7.4,5.6c4.3,10.3,6.6,21.6,6.6,33.5c0,24.3-9.8,46.2-25.7,62.1
		s-37.8,25.7-62.1,25.7c-20.7,0-39.6-7.1-54.6-19.1c-2.6-2.1-5.1-4.3-7.4-6.6s-4.6-4.8-6.6-7.4c-11.9-15-19.1-34-19.1-54.6
		c0-24.3,9.8-46.2,25.7-62.1c16-16,37.9-25.8,62.2-25.8c11.9,0,23.2,2.4,33.5,6.6L179.1,51.5z"/>
	<path class="st1" d="M140,99.5c1,0,1.9,0,2.8,0.1l6.2-8.3c-2.9-0.5-6-0.8-9.1-0.8c-13.6,0-26,5.5-35,14.5
		c-8.9,8.9-14.5,21.3-14.5,35c0,8,1.9,15.5,5.2,22.1c2.4,4.8,5.5,9.1,9.3,12.8c3.7,3.7,8.1,6.9,12.8,9.3c6.7,3.3,14.2,5.2,22.1,5.2
		c13.6,0,26-5.5,35-14.5c8.9-8.9,14.5-21.3,14.5-35c0-3.1-0.3-6.1-0.8-9.1l-8.3,6.2c0.1,0.9,0.1,1.9,0.1,2.8
		c0,11.2-4.5,21.3-11.9,28.6c-7.3,7.3-17.4,11.9-28.6,11.9c-4.9,0-9.6-0.9-13.9-2.4c-5.6-2-10.6-5.3-14.7-9.4
		c-4.1-4.1-7.4-9.1-9.4-14.7c-1.6-4.3-2.4-9-2.4-13.9c0-11.2,4.5-21.3,11.9-28.6C118.7,104.1,128.8,99.5,140,99.5z"/>
</g>
</svg>
