<?xml version="1.0" encoding="utf-8"?>
<!-- Generator: Adobe Illustrator 22.0.0, SVG Export Plug-In . SVG Version: 6.00 Build 0)  -->
<svg version="1.1" id="Layer_1" xmlns="http://www.w3.org/2000/svg" xmlns:xlink="http://www.w3.org/1999/xlink" x="0px" y="0px"
	 viewBox="0 0 280 280" style="enable-background:new 0 0 280 280;" xml:space="preserve">
<style type="text/css">
	.st0{fill-opacity:0;}
	.st1{fill:#CCCCCC;}
</style>
<title>btn-icons-qualitative</title>
<rect class="st0" width="280" height="280"/>
<path class="st1" d="M33.1,267c0-37.6,0-74.7,0-112.6c-6.9,0-13.2-0.1-19.5,0c-5.2,0.1-9.6-1.4-11.7-6.3c-2.2-5.1-0.3-9.5,3.8-13.3
	C47.2,95.9,88.8,56.9,130.4,18c7.1-6.7,12-6.6,19.3,0.2c7.3,6.7,14.5,13.5,22.7,21.1c2.7-11.5,11.1-11.2,19.7-11
	c7.4,0.3,14.9,0,22.3,0.1c8.1,0.1,12.1,4.1,12.2,12.3c0.1,14.9-0.2,29.7,0.2,44.6c0.1,2.9,1.6,6.4,3.7,8.4
	c14.2,13.8,28.7,27.3,43.3,40.7c4.2,3.9,6.7,8.1,4.4,13.6c-2.2,5.2-6.8,6.6-12.3,6.5c-6-0.2-11.9,0-18.8,0c0,37.6,0,74.8,0,112.5
	c-28.2,0-55.6,0-83.3,0c0-21.9,0-43.7,0-66.1c-16.2,0-32,0-48.6,0c0,21.9,0,43.8,0,66.1C87.6,267,60.9,267,33.1,267z M46.1,254.1
	c17.4,0,34.2-0.1,51,0.1c4.4,0,4.4-2.5,4.4-5.6c0-16.1,0.2-32.2,0.2-48.3c0-9.5,3.6-13.2,13-13.3c16.5,0,33,0,49.6,0
	c9.4,0,13,3.7,13,13.2c0,17.7,0,35.4,0,53.5c18.7,0,37.1,0,56.3,0c0-37.7,0-75,0-112.9c9.1,0,17.4,0,26.9,0c-2-2.1-3-3.3-4.1-4.4
	c-10.7-10-21-20.5-32.2-29.9c-8.3-6.9-12-14.3-11.1-25.4c1.1-12.9,0.3-25.9,0.3-39.1c-9.1,0-17.4,0-26.5,0c0,9.5,0,18.6,0,29.1
	c-16.3-15.2-31.5-29.4-46.9-43.8C99.5,65.3,59.8,102.6,20.1,139.8c0.3,0.5,0.6,1,0.9,1.5c8.2,0,16.4,0,25.1,0
	C46.1,179.1,46.1,216.3,46.1,254.1z"/>
</svg>
