<?xml version="1.0" encoding="utf-8"?>
<!-- Generator: Adobe Illustrator 21.0.0, SVG Export Plug-In . SVG Version: 6.00 Build 0)  -->
<svg version="1.1" id="Layer_1" xmlns="http://www.w3.org/2000/svg" xmlns:xlink="http://www.w3.org/1999/xlink" x="0px" y="0px"
	 viewBox="0 0 280 280" style="enable-background:new 0 0 280 280;" xml:space="preserve">
<style type="text/css">
	.st0{fill-opacity:0;}
	.st1{fill:#867AC8;}
</style>
<title>btn-icons-people</title>
<g id="Layer_1-2">
	<rect class="st0" width="280" height="280"/>
</g>
<path class="st1" d="M254.4,96.6"/>
<polygon class="st1" points="26.4,96.5 26.4,96.5 26.5,96.5 "/>
<g>
	<path class="st1" d="M197.1,213.6c1.4-0.3,2.6-1.2,3.3-2.4c0.8-1.5,1.2-3.1,1.2-4.8l0,0v-47.1c0-15.7,0-31.5-0.2-47.3l0,0
		c-0.2-6.9-2.6-13.5-7-18.6c-4.2-5-9.9-8.6-16.2-8.8l0,0c-13-0.4-25.8-0.7-38.8-0.7c-12.1,0-24.2,0.2-36.2,0.5l0,0
		c-6.8,0.5-13,3.9-17.3,9.4c-4.4,5.5-6.9,12.4-7.1,19.6l0,0v45.8c0,15.2,0,30.5-0.2,45.7l0,0v0.3c-0.1,1.3,0.1,2.7,0.5,3.9
		c0.4,1.6,1.4,2.9,2.7,3.7c1.5,0.8,3.1,1.1,4.7,1h0.8c1.4-0.1,2.7-0.1,4.1-0.1c2.4,0,5,0.1,7.5,0.1v66h9.7v-64
		c0.1-2.3,0-4.6-0.2-6.9c-0.1-1.1-0.4-2.3-0.8-3.3c-0.4-0.7-1-1.2-1.6-1.6c-1.1-0.6-2.3-0.9-3.6-0.9c-1.5-0.1-3.3-0.1-5.6-0.1H89
		c0-17.9-0.1-35.4-0.1-52.8c0-13.4,0-26.6,0.2-39.8l0,0c0-2,0.5-4,1.5-5.7c1.6-3,3.8-5.5,6.6-7.2c2.8-1.9,6-3,9.3-3.1l0,0
		c10.2-0.1,20.4-0.2,30.6-0.2c12.3,0,24.7,0.1,37,0.2l0,0c3.9,0,8.3,2.3,11.7,5.8c3.5,3.6,5.6,8.5,5.7,13.7v0.4l0,0
		c-0.3,11-0.4,21.9-0.4,32.8c0,16.4,0.2,32.8,0.2,49.1v6.7c-2.4,0-4.6,0.1-6.8,0.1c-1.6,0-3.2,0-4.7-0.2l0,0c-0.4,0-0.8-0.1-1.3-0.1
		c-1.2-0.1-2.4,0.2-3.5,0.8c-0.7,0.3-1.3,0.9-1.8,1.5c-0.7,1-1.2,2.2-1.4,3.4c-0.2,1.3-0.3,2.7-0.3,4.1l0,0v67.3h9.7v-66h13.1
		C195.3,214,196.2,213.9,197.1,213.6z"/>
	<path class="st1" d="M280,194.9c-0.1-9.1-0.1-18.2-0.1-27.3v-46.5l0,0c0-7-2.6-13.7-7.4-18.6s-11.3-7.6-18-7.7
		c-3.9-0.1-7.8-0.1-11.8-0.1c-5.4,0-10.8,0.1-16.1,0.1c-1.6,0-3,0-4,0.1c-0.8,0.1-1.5,0.2-2.2,0.4c-0.5,0.1-1,0.3-1.4,0.7
		c-0.6,0.4-1.1,1-1.4,1.8c-0.3,0.7-0.5,1.5-0.4,2.3c0.1,2,0.3,4,0.7,6l0,0c0.4,1.8,0.7,3.6,0.8,5.5c0.1,18.6,0.1,37.4,0.1,56.1
		c0,13.7,0,27.4-0.1,41.1c0.1,4.1-1.3,8-3.9,11.1c-2.7,3-6.3,4.7-10.2,4.9l0,0c-1.1,0.1-2.1,0.3-3.2,0.7c-1.3,0.4-2.3,1.3-3,2.5
		c-0.6,1.3-0.8,2.7-0.7,4.2v0.5l0,0c0,7.7,0.1,15.3,0.1,23c0,7.7,0,15.3-0.1,23.1v1.1h10l-0.1-10.7c0-5.3,0.2-10.6,0.2-16
		c0-3.2-0.1-6.5-0.3-9.6l0,0c-0.1-0.7-0.1-1.3-0.1-2c0-1.1,0.1-2.2,0.4-3.3c0.4-1.4,1.1-2.6,2.1-3.5c1.4-1.2,3-2.1,4.7-2.6l0,0
		c4.5-1.6,8.3-4.7,10.9-8.9c2.3-4.3,3.5-9.1,3.4-14V106.1c5.7,0,11.5-0.3,17.2-0.3c4.2-0.1,8.3,0.2,12.4,0.7l0,0
		c6.1,0.7,10.7,6,10.7,12.4v0.2l0,0c0.1,10.5,0.2,21,0.2,31.7c0,13.8-0.1,27.8-0.1,42.1h-1.9c-1.6,0-3.2-0.1-4.9-0.2
		c-0.8-0.1-1.6-0.2-2.4-0.2c-1.3,0-2.5,0.2-3.7,0.7c-1.5,0.7-2.7,2-3.3,3.6c-0.6,1.8-0.9,3.8-0.8,5.7v0.4l0,0
		c0.1,25.4,0.1,50.6,0.1,76.1v1.1H263v-77.2h10c1,0,2.1-0.1,3.1-0.4c1.3-0.4,2.5-1.4,3.2-2.6C279.8,198.2,280,196.6,280,194.9
		L280,194.9z"/>
	<path class="st1" d="M82.1,231.5c0-0.7-0.2-1.4-0.5-2c-0.5-1-1.1-1.9-1.8-2.7c-0.7-0.8-1.6-1.4-2.5-1.6l0,0
		c-2.7-0.6-5.3-1.5-7.8-2.6c-2.7-1.2-5-3.4-6.3-6.1c-1.3-2.7-1.9-6.2-1.9-11.1v-90c0-3.8,0.1-7.9,1.3-11.2l0,0
		c0.5-1.4,0.8-2.8,0.8-4.3c0-0.9-0.2-1.8-0.6-2.6c-0.3-0.6-0.7-1.1-1.3-1.4c-0.8-0.5-1.7-0.9-2.6-1.1c-1.1-0.2-2.2-0.3-3.3-0.2H36.9
		c-3.5,0-7,0-10.5,0.1c-7.7,0.1-14.3,3-19,7.9C2.5,107.9-0.2,115,0,122.3v62.8c0,3.9,0,6.9,0.2,9.2c0.1,1.5,0.5,3,1.2,4.4
		c0.5,0.9,1.2,1.6,2,2.1c1.5,0.8,3.2,1.3,5,1.4c2,0.3,4.5,0.4,7.7,0.7l0.9,0.3v76.7h10.5v-74c0.1-2.3,0-4.7-0.2-7
		c-0.1-1.2-0.4-2.4-0.9-3.4c-0.4-0.7-1-1.3-1.7-1.6c-1.2-0.6-2.6-0.9-3.9-1c-1.6-0.1-3.6-0.2-6-0.2l0,0c-1.2,0-2.3-0.1-4.2-0.2
		v-37.1c0-12.6,0-25.2,0.1-37.7c0-2.7,1.6-5.7,4-7.9c2.5-2.4,5.8-3.8,9.2-4.1l0,0c3.5-0.2,7.1-0.2,10.7-0.2c5.4,0,10.9,0.1,16.5,0.1
		v102.1c0,6.8,1.2,12.1,4,16.2c2.8,4.2,7.2,7.2,13.3,9.8l0,0c0.9,0.4,1.8,1.1,2.4,1.9c0.4,0.4,0.7,0.8,0.9,1.3
		c0.2,0.3,0.3,0.6,0.3,1c0.2,8.1,0.2,16.3,0.2,24.6V280h9.9v-1.1C82.3,263.1,82.3,247.3,82.1,231.5L82.1,231.5z"/>
</g>
<path class="st1" d="M226.5,89.3h0.2c15.3,0,27.7-12.3,27.9-27.6l0,0V61l0,0v-0.4c0-15.2-12.1-27.6-27.3-28h-0.5
	c-15.7,0-28.6,12.7-28.6,28.1v0.5C198.3,76.7,211,89.3,226.5,89.3z M226.2,42.9c9.8,0.1,17.9,7.8,18.4,17.6V61
	c-0.1,4.7-2,9.3-5.4,12.6c-3.5,3.4-8.1,5.3-13,5.3c-9.7,0.1-17.7-7.8-17.7-17.5v-0.1V61C208.5,51.2,216.4,43.2,226.2,42.9z"/>
<path class="st1" d="M226.5,93.5"/>
<path class="st1" d="M25.2,60.6c0,15.5,12.5,28,28,28.1h0.2c15.5-0.3,28-12.7,28.4-28.2l0,0v-0.2c0-7.5-3-14.6-8.3-19.8
	c-5.4-5.3-12.6-8.2-20.2-8.2h-0.4c-7.4,0-14.6,3-19.8,8.2C28,45.9,25.2,53,25.3,60.4C25.2,60.4,25.2,60.6,25.2,60.6z M53.5,42.3h0.2
	c9.9,0,18,8,18,17.9v0.2c0,9.9-8,18-17.9,18h-0.3c-9.9-0.3-17.9-8.2-18.3-18.1v-0.2c0.1-4.8,2.1-9.4,5.6-12.7
	C44.2,44.2,48.8,42.4,53.5,42.3z"/>
<path class="st1" d="M103.1,41.7c0,20,16.1,36.2,36.1,36.4c0.1,0,0.2,0.1,0.3,0.1h0.2c20.2-0.2,36.5-16.4,36.8-36.6v-0.4
	c0-9.7-3.9-18.9-10.9-25.6c-7-6.8-16.4-10.7-26.2-10.7H139c-9.6,0-18.9,3.8-25.6,10.7S103,31.8,103.1,41.4L103.1,41.7L103.1,41.7z
	 M139.4,15.5h0.2c7,0,13.7,2.7,18.7,7.5c4.9,4.8,7.8,11.3,7.8,18.1v0.3c-0.3,14.4-11.9,25.9-26.3,26.2h-0.2
	c-14.2,0-25.7-11.5-25.8-25.7v-0.2c-0.1-6.9,2.5-13.6,7.3-18.6C125.9,18.2,132.5,15.5,139.4,15.5z"/>
<path class="st1" d="M176.6,44.7"/>
</svg>
