<?xml version="1.0" encoding="utf-8"?>
<!-- Generator: Adobe Illustrator 21.0.0, SVG Export Plug-In . SVG Version: 6.00 Build 0)  -->
<svg version="1.1" id="Layer_1" xmlns="http://www.w3.org/2000/svg" xmlns:xlink="http://www.w3.org/1999/xlink" x="0px" y="0px"
	 viewBox="0 0 280 280" style="enable-background:new 0 0 280 280;" xml:space="preserve">
<style type="text/css">
	.st0{fill-opacity:0;}
	.st1{fill:#7AC87A;}
</style>
<g id="Layer_1-2">
	<rect class="st0" width="280" height="280"/>
</g>
<title>btn-icons-improvement</title>
<path class="st1" d="M13.2,160.6L13.2,160.6c0.7,0,1.4-0.1,2.1-0.3c28.9-9.3,57-21,84.1-34.8c38.8-19.8,89.8-51.8,120-95.1
	l-1.6,25.4c-0.2,3.2,2.5,5.9,6.1,6.1h0.4c3.5,0,6.3-2.3,6.6-5.4l3.2-48.9c0.1-2.1-1.1-4.1-3-5.1c-2-1.1-4.4-1.3-6.5-0.4L173,24.2
	c-3.3,1.4-4.7,4.9-3.1,7.7c1.8,3,5.6,4.1,8.8,2.6L210.6,21c-55.8,84.2-198,128-199.5,128.4c-3.4,1.1-5.3,4.3-4,7.3
	C8.1,159.1,10.5,160.7,13.2,160.6z"/>
<path class="st1" d="M230.1,104.9h40.1V280h9.5V102.3c0-1.9-0.8-3.6-2-4.9c-1.2-1.2-3-2-4.9-2h-45.4c-1.9,0-3.6,0.8-4.9,2
	c-1.2,1.2-2,3-2,4.9V280h9.5L230.1,104.9L230.1,104.9z"/>
<path class="st1" d="M156.7,137.9h40.1V280h9.5V135.3c0-1.9-0.8-3.6-2-4.9c-1.2-1.2-3-2-4.9-2H154c-1.9,0-3.6,0.8-4.9,2
	c-1.2,1.2-2,3-2,4.9V280h9.5L156.7,137.9L156.7,137.9z"/>
<path class="st1" d="M83.2,179.7h40.1V280h9.5V177.1c0-1.9-0.8-3.6-2-4.9c-1.2-1.2-3-2-4.9-2H80.6c-1.9,0-3.6,0.8-4.9,2
	c-1.2,1.2-2,3-2,4.9V280h9.5V179.7z"/>
<path class="st1" d="M9.7,208.8h40.1V280h9.5v-73.9c0-1.9-0.8-3.6-2-4.9c-1.2-1.2-3-2-4.9-2H7.1c-1.9,0-3.6,0.8-4.9,2
	c-1.2,1.2-2,3-2,4.9V280h9.5V208.8z"/>
</svg>
