<?xml version="1.0" encoding="utf-8"?>
<!-- Generator: Adobe Illustrator 21.0.0, SVG Export Plug-In . SVG Version: 6.00 Build 0)  -->
<svg version="1.1" id="Layer_1" xmlns="http://www.w3.org/2000/svg" xmlns:xlink="http://www.w3.org/1999/xlink" x="0px" y="0px"
	 viewBox="0 0 280 280" style="enable-background:new 0 0 280 280;" xml:space="preserve">
<style type="text/css">
	.st0{fill-opacity:0;}
	.st1{fill:#C0C87A;}
</style>
<title>btn-icons-qualitative</title>
<rect class="st0" width="280" height="280"/>
<g>
	<path class="st1" d="M0,81.7h81.7v-4.5V0H0V81.7z M9.1,9.1h63.5v63.5H9.1V9.1z"/>
	<path class="st1" d="M198.3,0v81.7H280v-4.5V0H198.3z M270.9,72.6h-63.5V9.1h63.5V72.6z"/>
	<path class="st1" d="M99.2,81.7h81.7v-4.5V0H99.2V81.7z M108.3,9.1h63.5v63.5h-63.5V9.1z"/>
	<path class="st1" d="M0,280h81.7v-4.5v-77.1H0V280z M9.1,207.4h63.5v63.5H9.1V207.4z"/>
	<path class="st1" d="M198.3,280H280v-4.5v-77.1h-81.7V280z M207.4,207.4h63.5v63.5h-63.5V207.4z"/>
	<path class="st1" d="M99.2,280h81.7v-4.5v-77.1H99.2V280z M108.3,207.4h63.5v63.5h-63.5V207.4z"/>
	<path class="st1" d="M0,180.8h81.7v-4.5V99.2H0V180.8z M9.1,108.3h63.5v63.5H9.1V108.3z"/>
	<path class="st1" d="M198.3,180.8H280v-4.5V99.2h-81.7V180.8z M207.4,108.3h63.5v63.5h-63.5V108.3z"/>
	<polygon class="st1" points="99.2,180.8 180.8,180.8 180.8,176.3 180.8,99.2 99.2,99.2 	"/>
</g>
</svg>
