<?xml version="1.0" encoding="utf-8"?>
<!-- Generator: Adobe Illustrator 21.0.0, SVG Export Plug-In . SVG Version: 6.00 Build 0)  -->
<svg version="1.1" id="Layer_1" xmlns="http://www.w3.org/2000/svg" xmlns:xlink="http://www.w3.org/1999/xlink" x="0px" y="0px"
	 viewBox="0 0 280 280" style="enable-background:new 0 0 280 280;" xml:space="preserve">
<style type="text/css">
	.st0{fill:#CCCCCC;}
</style>
<title>btn-icons-team</title>
<path class="st0" d="M230.3,167.9L230.3,167.9c-0.1-3.4-1.3-6.6-3.4-9.2l-0.6-0.7l-0.7-0.7c-2.4-2.4-5.6-3.8-9-4l0,0
	c-5.9-0.2-11.8-0.3-17.7-0.3c-5.5,0-11,0.1-16.5,0.3l0,0c-3.1,0.2-6,1.3-8.4,3.3l-1.6,1.6l-0.6,0.7c-2.2,2.7-3.4,6-3.4,9.5l0,0v33.3
	h11.2v-16.9c0-5.8,0-11.6,0.1-17.4c0-0.3,0.1-0.5,0.2-0.8c1-1.6,2.6-2.6,4.5-2.7c4.8-0.1,9.6-0.1,14.4-0.1c5.3,0,10.7,0,16,0.1
	c2.6,0.2,4.6,2.3,4.7,4.9v0.1c-0.1,4.8-0.2,9.6-0.2,14.4c0,5.9,0.1,11.8,0.1,17.6v0.9h11.2v-17.7
	C230.4,178.7,230.4,173.3,230.3,167.9z"/>
<path class="st0" d="M199.3,110.4c-10.4,0-18.9,8.5-18.9,18.9s8.5,18.9,18.9,18.9s18.9-8.5,18.9-18.9l0,0
	C218.2,118.9,209.7,110.4,199.3,110.4z M199.3,138.2c-4.9,0-8.9-4-8.9-8.9c0-4.9,4-8.9,8.9-8.9s8.9,4,8.9,8.9l0,0
	C208.2,134.2,204.2,138.2,199.3,138.2z"/>
<path class="st0" d="M171,101.8L171,101.8c-0.1-3.4-1.3-6.6-3.4-9.2l-0.6-0.7l-0.7-0.7c-2.4-2.4-5.6-3.8-9-4l0,0
	c-5.9-0.2-11.8-0.3-17.7-0.3c-5.5,0-11,0.1-16.5,0.3l0,0c-3.1,0.2-6,1.3-8.4,3.3l-1.6,1.6l-0.6,0.7c-2.2,2.7-3.4,6-3.4,9.5l0,0v33.3
	h11.2v-17.1c0-5.8,0-11.6,0.1-17.4c0-0.3,0.1-0.5,0.2-0.8c1-1.6,2.6-2.6,4.5-2.7c4.8-0.1,9.6-0.1,14.4-0.1c5.3,0,10.7,0,16,0.1
	c2.6,0.2,4.6,2.3,4.7,4.9v0.1c-0.1,4.8-0.2,9.6-0.2,14.4c0,5.9,0.1,11.8,0.1,17.6v0.9h11.2v-17.8C171.1,112.6,171.1,107.2,171,101.8
	z"/>
<path class="st0" d="M140,44.3c-10.4,0-18.9,8.5-18.9,18.9s8.5,18.9,18.9,18.9s18.9-8.5,18.9-18.9l0,0
	C158.9,52.8,150.4,44.3,140,44.3z M140,72.1c-4.9,0-8.9-4-8.9-8.9s4-8.9,8.9-8.9s8.9,4,8.9,8.9l0,0C148.9,68.1,144.9,72.1,140,72.1z
	"/>
<path class="st0" d="M111.8,167.9L111.8,167.9c-0.1-3.4-1.3-6.6-3.4-9.2l-0.6-0.7l-0.7-0.7c-2.4-2.4-5.6-3.8-9-4l0,0
	c-5.9-0.2-11.8-0.3-17.7-0.3c-5.5,0-11,0.1-16.5,0.3l0,0c-3.1,0.2-6,1.3-8.4,3.3l-1.6,1.6l-0.6,0.7c-2.2,2.7-3.4,6-3.4,9.5l0,0v33.3
	h11.2v-16.9c0-5.8,0-11.6,0.1-17.4c0-0.3,0.1-0.5,0.2-0.8c1-1.6,2.6-2.6,4.5-2.7c4.8-0.1,9.6-0.1,14.4-0.1c5.3,0,10.7,0,16,0.1
	c2.6,0.2,4.6,2.3,4.7,4.9v0.1c-0.1,4.8-0.2,9.6-0.2,14.4c0,5.9,0.1,11.8,0.1,17.6v0.9h11.2v-17.7
	C111.8,178.7,111.8,173.3,111.8,167.9z"/>
<path class="st0" d="M80.7,110.4c-10.4,0-18.9,8.5-18.9,18.9s8.5,18.9,18.9,18.9s18.9-8.5,18.9-18.9S91.1,110.4,80.7,110.4z
	 M80.7,138.2c-4.9,0-8.9-4-8.9-8.9c0-4.9,4-8.9,8.9-8.9s8.9,4,8.9,8.9l0,0C89.6,134.2,85.6,138.2,80.7,138.2z"/>
<g>
	<path class="st0" d="M239,40.6c-21.8-21.8-50.9-36.5-83.3-40.1v9.1c29.9,3.6,56.7,17.2,76.9,37.4c23.7,23.7,38.4,56.4,38.4,92.6
		c0,18.3-3.7,35.6-10.5,51.4l7.9,4.5c7.5-17.1,11.7-36.1,11.7-56C280,101,264.3,66,239,40.6z"/>
	<path class="st0" d="M232.6,232.3c-20.2,20.2-47,33.9-76.9,37.4c-5.1,0.6-10.4,0.9-15.7,0.9s-10.6-0.3-15.7-0.9
		c-29.9-3.6-56.7-17.2-76.9-37.4c-4.4-4.4-8.4-9.1-12.1-14l-7.9,4.5c4.2,5.6,8.7,10.9,13.6,15.8c21.8,21.8,50.9,36.5,83.3,40.1
		c2.9,0.3,5.9,0.6,8.9,0.7h13.6c3-0.1,6-0.4,8.9-0.7c32.4-3.6,61.5-18.3,83.3-40.1c4.9-4.9,9.5-10.2,13.6-15.8l-7.9-4.5
		C241,223.2,237,227.9,232.6,232.3z"/>
	<path class="st0" d="M47.4,47c20.2-20.2,47-33.9,76.9-37.4V0.5C91.9,4.1,62.8,18.8,41,40.6C15.7,66,0,101,0,139.6
		c0,19.9,4.2,38.8,11.7,56l7.9-4.5C12.8,175.3,9,157.9,9,139.6C9,103.5,23.7,70.7,47.4,47z"/>
</g>
</svg>
