<?xml version="1.0" encoding="utf-8"?>
<!-- Generator: Adobe Illustrator 21.0.0, SVG Export Plug-In . SVG Version: 6.00 Build 0)  -->
<svg version="1.1" id="Layer_1" xmlns="http://www.w3.org/2000/svg" xmlns:xlink="http://www.w3.org/1999/xlink" x="0px" y="0px"
	 viewBox="0 0 280 280" style="enable-background:new 0 0 280 280;" xml:space="preserve">
<style type="text/css">
	.st0{fill-opacity:0;}
	.st1{fill:#BE7AC8;}
</style>
<title>btn-icons-qualitative</title>
<g id="Layer_1-2">
	<rect class="st0" width="280" height="280"/>
</g>
<g>
	<path class="st1" d="M18,154.5"/>
	<g>
		<path class="st1" d="M278.1,147.3l-7.8-11l0,0c-0.4-0.6-0.7-1.3-0.8-2c-0.2-0.9-0.4-1.8-0.4-2.7c0-0.6,0.1-1.1,0.2-1.7v-0.1
			l4-12.9l0,0c0.9-3.2,0.3-6.6-1.6-9.3c-1.3-1.8-3.1-3.2-5.2-4l-12.8-4.4c-0.4-0.2-0.8-0.4-1.1-0.6c-0.8-0.5-1.5-1.2-2.1-2
			c-0.5-0.6-0.9-1.2-1.1-2l0,0L245,81.8l0,0c-1.5-4.3-5.6-7.2-10.2-7.3c-1.1,0-2.1,0.2-3.1,0.4l-12.9,4c-0.5,0.1-1.1,0.2-1.7,0.2
			c-0.9,0-1.8-0.1-2.7-0.4c-0.7-0.2-1.4-0.5-2-0.8l-10.8-7.4c-1.8-1.2-4-1.9-6.1-1.9c-1.6,0-3.2,0.4-4.7,1c-1.5,0.7-2.8,1.8-3.9,3.1
			l0,0l-8.1,10.8c-0.3,0.3-0.6,0.7-0.9,0.9c-0.8,0.6-1.6,1.1-2.5,1.5c-0.7,0.3-1.4,0.5-2.2,0.5l-13.5,0.2
			c-5.7,0.2-10.4,4.8-10.5,10.5l-0.2,13.5c0,0.5-0.1,0.9-0.2,1.4c-0.3,0.9-0.7,1.8-1.1,2.6c-0.4,0.6-0.9,1.2-1.5,1.8l-10.8,8.1
			c-2.7,2-4.2,5.2-4.2,8.5c0,2.2,0.6,4.3,1.9,6.1v0.1l7.7,11c0.4,0.6,0.7,1.3,0.8,2c0.2,0.9,0.4,1.8,0.4,2.7c0,0.6-0.1,1.1-0.2,1.7
			l-4,12.9l0,0c-0.9,3.2-0.3,6.6,1.6,9.3c1.3,1.8,3.1,3.2,5.2,4l0,0l12.8,4.4l0,0c0.2,0.1,0.4,0.1,0.5,0.2l-23.5,47.1l29.8,4.6
			l21.6,21l2.8-5.7l9-17.8l10.7,39.9l25.3-16.4l30.1,1.5l-1.7-6.1L246.9,200l4.7-0.1c5.7-0.2,10.4-4.8,10.5-10.5l0.2-13.5
			c0-0.5,0.1-0.9,0.2-1.4c0.3-0.9,0.7-1.8,1.1-2.6c0.4-0.6,0.9-1.2,1.5-1.8l10.8-8.1c2.7-2,4.2-5.2,4.2-8.5
			C280,151.2,279.4,149.1,278.1,147.3z M182.8,244.5l-14.6-14.3l-20.1-3.1l15.2-30.4l2.6,7.7l0,0c0.7,2.1,2.1,3.9,4,5.2
			c1.8,1.3,3.9,2,6.1,2c1.1,0,2.1-0.2,3.1-0.4l0,0l10.3-3.1l4.1,15L182.8,244.5z M251,251.7l-20.3-1l-17.1,11L203.5,224l-1.8-6.8
			l-1.9-6.8l-0.4-1.6l0.8,0.6l3.9,2.7l3.9,2.7l1.5,1c1.8,1.2,4,1.9,6.1,1.9c1.6,0,3.2-0.4,4.7-1c1.5-0.7,2.8-1.8,3.9-3.1l8.1-10.8
			l0,0c0.3-0.3,0.6-0.7,0.9-0.9c0.8-0.6,1.6-1.1,2.5-1.5c0.5-0.2,1-0.3,1.5-0.4L251,251.7z M270.6,154c-0.1,0.2-0.2,0.3-0.4,0.4
			l-10.8,8.1c-1,0.8-1.9,1.7-2.7,2.7c-1.1,1.5-2.1,3.1-2.7,4.8c-0.7,1.7-1.1,3.6-1.1,5.5v0.1l-0.2,13.4c-0.1,0.7-0.6,1.3-1.4,1.4
			l-7,0.1l-4.8,0.1h-1.7c-1,0-2,0.1-3,0.4l-0.7,0.2c-1.8,0.5-3.4,1.3-5,2.3s-3,2.3-4.2,3.7l-8.1,10.8c-0.1,0.2-0.3,0.3-0.4,0.4
			c-0.2,0.1-0.4,0.1-0.6,0.1c-0.3,0-0.5-0.1-0.7-0.2l-2.6-1.9l-3.9-2.7l-3.9-2.7l-0.7-0.5c-1.4-1-3.1-1.8-4.8-2.2
			c-0.8-0.2-1.7-0.4-2.5-0.5c-0.9-0.1-1.8-0.2-2.7-0.2c-0.7,0-1.5,0-2.2,0.1c-0.8,0.1-1.6,0.2-2.3,0.5l-2.3,0.7l-10.6,3.2h-0.3
			c-0.3,0-0.6-0.1-0.8-0.3s-0.4-0.4-0.5-0.6l-4.4-12.8l0,0c-0.4-1.1-0.9-2.1-1.5-3c-0.1-0.1-0.1-0.2-0.2-0.4c-0.9-1.3-1.9-2.5-3-3.5
			c-0.2-0.2-0.5-0.4-0.7-0.6c-1-0.8-2-1.5-3.1-2.1c-0.5-0.3-1.1-0.5-1.7-0.7l-12.8-4.4l0,0c-0.3-0.1-0.5-0.3-0.6-0.5
			c-0.2-0.2-0.3-0.5-0.3-0.8v-0.3l0,0l4-12.9c0.4-1.4,0.6-2.9,0.6-4.4c0-1.8-0.2-3.5-0.7-5.2c-0.4-1.7-1.2-3.3-2.2-4.8l-7.8-11l0,0
			c-0.1-0.2-0.2-0.5-0.2-0.7s0.1-0.4,0.1-0.6c0.1-0.2,0.2-0.3,0.4-0.4l10.8-8.1l0,0c1-0.8,1.9-1.7,2.7-2.7c1.1-1.5,2.1-3.1,2.7-4.8
			c0.7-1.7,1.1-3.6,1.1-5.5l0,0l0.2-13.4c0.1-0.7,0.6-1.3,1.4-1.4l13.5-0.2c1.3,0,2.5-0.2,3.7-0.6c1.8-0.5,3.4-1.3,5-2.3
			s3-2.3,4.2-3.7l8.1-10.8l0,0c0.1-0.2,0.3-0.3,0.4-0.4c0.2-0.1,0.4-0.1,0.6-0.1c0.3,0,0.5,0.1,0.7,0.2l11,7.8
			c1.4,1,3.1,1.8,4.8,2.2c1.7,0.5,3.4,0.7,5.2,0.7c1.5,0,3-0.2,4.4-0.6l12.9-4h0.3c0.3,0,0.6,0.1,0.8,0.3c0.2,0.2,0.4,0.4,0.5,0.6
			l4.4,12.8l0,0c0.5,1.2,1,2.3,1.7,3.3c1,1.5,2.3,2.9,3.7,4.1c1.5,1.2,3.1,2.2,4.9,2.9l12.8,4.4c0.3,0.1,0.5,0.3,0.6,0.5
			c0.2,0.2,0.3,0.5,0.3,0.8v0.3l0,0l-4,12.9l0,0c-0.4,1.4-0.6,2.9-0.6,4.4c0,1.8,0.2,3.5,0.7,5.2c0.4,1.7,1.2,3.3,2.2,4.8l0,0
			l7.8,11c0.1,0.2,0.2,0.5,0.2,0.7C270.8,153.6,270.8,153.8,270.6,154L270.6,154z"/>
		<path class="st1" d="M205.4,98.4c-24.8,0-44.8,20.1-44.8,44.9c0,11.9,4.7,23.3,13.1,31.6l0.3,0.3c17,16.7,44,17.2,61.6,1.1
			c0.5-0.5,1.1-0.9,1.6-1.5c0.8-0.8,1.6-1.7,2.3-2.5c16.2-18.8,14.1-47.1-4.7-63.2C226.6,102.3,216.2,98.5,205.4,98.4L205.4,98.4z
			 M232.1,163c-1,1.3-2,2.5-3.1,3.6l-0.5,0.5c-1,0.9-2,1.8-3,2.6c-12.5,9.4-29.9,8.7-41.7-1.6c-0.6-0.5-1.1-1-1.8-1.6
			c-0.8-0.8-1.6-1.7-2.3-2.6l0.3-0.6l-0.6,0.2c-0.9-1.2-1.9-2.6-2.7-4c-9.1-15.9-3.5-36.2,12.5-45.3s36.2-3.5,45.3,12.5
			c5,8.7,5.7,19.2,2,28.6l0,0"/>
	</g>
	<polygon class="st1" points="36.9,49 36.9,50.4 36.9,55.5 36.9,57.1 36.9,58.5 170.4,58.5 170.4,47.4 36.9,47.4 	"/>
	<polygon class="st1" points="119.9,96.2 36.9,96.2 36.9,97.7 36.9,99.3 36.9,104.4 36.9,105.8 36.9,107.4 119.9,107.4 	"/>
	<polygon class="st1" points="36.9,146.5 36.9,147.9 36.9,152.9 36.9,154.4 36.9,155.8 105.7,155.8 105.7,145 36.9,145 	"/>
	<polygon class="st1" points="272.5,3.5 0,3.5 0,163 0,192 0,214 118.6,214 125.1,202.8 11.1,202.8 11.1,192 11.1,163 11.1,14.8 
		262.8,14.8 262.8,75.5 274.1,79.1 274.1,3.5 	"/>
</g>
</svg>
