<?xml version="1.0" encoding="utf-8"?>
<!-- Generator: Adobe Illustrator 21.1.0, SVG Export Plug-In . SVG Version: 6.00 Build 0)  -->
<svg version="1.1" id="Layer_1" xmlns="http://www.w3.org/2000/svg" xmlns:xlink="http://www.w3.org/1999/xlink" x="0px" y="0px"
	 viewBox="0 0 40 41" style="enable-background:new 0 0 40 41;" xml:space="preserve">
<style type="text/css">
	.st0{opacity:0;fill:#FFFFFF;fill-opacity:0;}
	.st1{fill:#FFFFFF;}
	.st2{fill:#007BFE;}
</style>
<polygon class="st0" points="39.5,40.5 39.5,40 1,40 1,1.7 39,1.7 39,40.5 39.5,40.5 39.5,40 39.5,40.5 40,40.5 40,0.7 0,0.7 0,41 
	40,41 40,40.5 "/>
<polygon class="st1" points="31.8,31.8 31.8,31.4 8.6,31.4 8.6,8.6 31.4,8.6 31.4,31.8 31.8,31.8 31.8,31.4 31.8,31.8 32.3,31.8 
	32.3,7.7 7.7,7.7 7.7,32.3 32.3,32.3 32.3,31.8 "/>
<path class="st2" d="M40,0.7c-8.8,8.3-15.5,18-20.9,28.8L9.6,18.9c0.4,0.1,0.6,0.3,0.9,0.4c1.3,0.7,2.7,1.5,4,2.2
	c0.9,0.5,1.8,1,2.7,1.5c0.2,0.1,0.3,0.1,0.4-0.1c0.8-1.1,1.7-2.3,2.6-3.4c0.8-1,1.6-2,2.4-3c1.1-1.3,2.2-2.5,3.3-3.7
	c0.6-0.6,1.1-1.2,1.7-1.8c0.8-0.8,1.6-1.5,2.4-2.3c1.3-1.3,2.7-2.5,4.2-3.7c1.2-1,2.4-2,3.7-2.9C38.6,1.6,39.3,1.1,40,0.7L40,0.7z"
	/>
</svg>
