<?xml version="1.0" encoding="utf-8"?>
<!-- Generator: Adobe Illustrator 21.0.0, SVG Export Plug-In . SVG Version: 6.00 Build 0)  -->
<svg version="1.1" id="Layer_1" xmlns="http://www.w3.org/2000/svg" xmlns:xlink="http://www.w3.org/1999/xlink" x="0px" y="0px"
	 viewBox="0 0 110.2 110.2" style="enable-background:new 0 0 110.2 110.2;" xml:space="preserve">
<style type="text/css">
	.st0{fill:#FFFFFF;}
</style>
<title>fullscreen-icon-exit</title>
<path class="st0" d="M62,37.2H11c-6.1,0-11,4.9-11,11v51c0,6.1,4.9,11,11,11h51c6.1,0,11-4.9,11-11v-51C73,42.2,68.1,37.2,62,37.2z
	 M62,106.2H11c-3.9,0-7-3.1-7-7v-51c0-3.9,3.1-7,7-7h51c3.9,0,7,3.1,7,7v51C69,103.1,65.9,106.2,62,106.2z"/>
<path class="st0" d="M99.2,0H11C4.9,0,0,4.9,0,11v18.2c0.8-0.5,1.6-0.9,2.4-1.2c0.5-0.2,1-0.4,1.6-0.6V11c0-3.9,3.1-7,7-7h88.2
	c3.9,0,7,3.1,7,7v88.2c0,3.9-3.1,7-7,7H84v4h15.2c6.1,0,11-4.9,11-11V11C110.2,4.9,105.3,0,99.2,0z"/>
<g>
	<path class="st0" d="M78.2,32c-0.7-0.8-0.7-2,0-2.8L102,5.5c0.7-0.8,1.9-0.9,2.7-0.2s0.9,1.9,0.2,2.7c-0.1,0.1-0.1,0.1-0.2,0.2
		L81,32C80.2,32.7,79,32.7,78.2,32z"/>
	<g>
		<path class="st0" d="M78.5,33.7c-1.1,0-1.9-0.9-1.9-2V14.3c-0.1-1.1,0.7-2,1.8-2.1c1.1-0.1,2,0.7,2.1,1.8c0,0.1,0,0.2,0,0.3v17.4
			C80.4,32.7,79.6,33.6,78.5,33.7z"/>
		<path class="st0" d="M76.6,31.7c0-1.1,0.9-1.9,2-1.9H96c1.1-0.1,2,0.7,2.1,1.8s-0.7,2-1.8,2.1c-0.1,0-0.2,0-0.3,0H78.6
			C77.5,33.7,76.6,32.8,76.6,31.7z"/>
	</g>
</g>
</svg>
