<?xml version="1.0" encoding="utf-8"?>
<!-- Generator: Adobe Illustrator 21.0.0, SVG Export Plug-In . SVG Version: 6.00 Build 0)  -->
<svg version="1.1" id="Layer_1" xmlns="http://www.w3.org/2000/svg" xmlns:xlink="http://www.w3.org/1999/xlink" x="0px" y="0px"
	 viewBox="0 0 110.2 110.2" style="enable-background:new 0 0 110.2 110.2;" xml:space="preserve">
<style type="text/css">
	.st0{fill:#FFFFFF;}
</style>
<title>fullscreen-icon</title>
<path class="st0" d="M71,99.2h-2c0,3.9-3.1,7-7,7H11c-3.9,0-7-3.1-7-7v-51c0-3.9,3.1-7,7-7l0,0h51c3.9,0,7,3.1,7,7l0,0v51h4v-51
	c0-6.1-4.9-11-11-11H11c-6.1,0-11,4.9-11,11v51c0,6.1,4.9,11,11,11h51c6.1,0,11-4.9,11-11H71z"/>
<g>
	<path class="st0" d="M94.7,15.5c0.7,0.8,0.7,2-0.1,2.8L71,42c-0.8,0.8-2,0.8-2.7,0c-0.8-0.8-0.8-2,0-2.7L92,15.5
		C92.7,14.8,94,14.8,94.7,15.5z"/>
	<g>
		<path class="st0" d="M94.5,13.9c1.1,0,1.9,0.9,1.9,2v17.4c0.1,1.1-0.7,2-1.8,2.1s-2-0.7-2.1-1.8c0-0.1,0-0.2,0-0.3V15.9
			C92.5,14.8,93.4,13.9,94.5,13.9z"/>
		<path class="st0" d="M96.4,15.8c0,1.1-0.9,1.9-2,1.9H77c-1.1,0.1-2-0.7-2.1-1.8s0.7-2,1.8-2.1c0.1,0,0.2,0,0.3,0h17.4
			C95.5,13.9,96.3,14.7,96.4,15.8z"/>
	</g>
</g>
<path class="st0" d="M99.2,0H11C4.9,0,0,4.9,0,11v18.2c0.8-0.5,1.6-0.9,2.4-1.2c0.5-0.2,1-0.4,1.6-0.6V11c0-3.9,3.1-7,7-7h88.2
	c3.9,0,7,3.1,7,7v88.2c0,3.9-3.1,7-7,7H84v4h15.2c6.1,0,11-4.9,11-11V11C110.2,4.9,105.3,0,99.2,0z"/>
</svg>
