<svg id="Layer_1" data-name="Layer 1" xmlns="http://www.w3.org/2000/svg" width="122.82" height="110.25" viewBox="0 0 122.82 110.25">
  <title>print-icon</title>
  <g>
    <path d="M94,68.36a2,2,0,0,1-2,1.92H42.42a1.92,1.92,0,1,1,0-3.83H92A2,2,0,0,1,94,68.36Z" transform="translate(-5.8 -1.46)" style="fill: #fff"/>
    <path d="M94,83.63a2,2,0,0,1-2,1.92H42.42a1.92,1.92,0,1,1,0-3.83H92A2,2,0,0,1,94,83.63Z" transform="translate(-5.8 -1.46)" style="fill: #fff"/>
    <path d="M94,98.9a2,2,0,0,1-2,1.92H42.42a1.92,1.92,0,1,1,0-3.83H92A2,2,0,0,1,94,98.9Z" transform="translate(-5.8 -1.46)" style="fill: #fff"/>
  </g>
  <g>
    <rect x="93.91" y="106.25" width="2" height="2" style="fill: #fff"/>
    <polygon points="24.91 53.13 24.91 76.67 28.91 76.67 28.91 57.13 93.91 57.13 93.91 76.67 97.91 76.67 97.91 53.13 24.91 53.13" style="fill: #fff"/>
    <polygon points="93.91 106.25 95.91 106.25 95.91 108.25 97.91 108.25 97.91 80.54 93.91 80.54 93.91 106.25" style="fill: #fff"/>
    <polygon points="93.91 108.25 93.91 106.25 28.91 106.25 28.91 80.54 24.91 80.54 24.91 110.25 97.91 110.25 97.91 108.25 95.91 108.25 93.91 108.25" style="fill: #fff"/>
  </g>
  <path d="M124.17,71.36a6.33,6.33,0,0,1-2.29,4.78,8.39,8.39,0,0,1-5.51,2H103.71V82h12.66c6.75,0,12.25-4.77,12.25-10.64h-4.46Z" transform="translate(-5.8 -1.46)" style="fill: #fff"/>
  <path d="M116.37,23.39H103.71v3.87h12.66a8.39,8.39,0,0,1,5.51,2A6.33,6.33,0,0,1,124.17,34V71.36h4.46V34C128.62,28.16,123.13,23.4,116.37,23.39Z" transform="translate(-5.8 -1.46)" style="fill: #fff"/>
  <rect x="28.91" y="21.93" width="65" height="3.87" style="fill: #fff"/>
  <path d="M18.06,78.13a8.39,8.39,0,0,1-5.51-2,6.33,6.33,0,0,1-2.29-4.78V34a6.33,6.33,0,0,1,2.29-4.78,8.39,8.39,0,0,1,5.51-2H30.72V23.39H18.06C11.3,23.4,5.81,28.16,5.8,34V71.36C5.81,77.23,11.3,82,18.06,82H30.72V78.13Z" transform="translate(-5.8 -1.46)" style="fill: #fff"/>
  <path d="M34.72,12.46a7,7,0,0,1,7-7h51a7,7,0,0,1,7,7V23.39h4V12.46a11,11,0,0,0-11-11h-51a11,11,0,0,0-11,11V23.39h4Z" transform="translate(-5.8 -1.46)" style="fill: #fff"/>
  <rect x="24.91" y="21.93" width="4" height="3.87" style="fill: #fff"/>
  <rect x="93.91" y="21.93" width="4" height="3.87" style="fill: #fff"/>
  <rect x="24.91" y="76.67" width="4" height="3.87" style="fill: #fff"/>
  <rect x="93.91" y="76.67" width="4" height="3.87" style="fill: #fff"/>
</svg>
