<?xml version="1.0" encoding="utf-8"?>
<!-- Generator: Adobe Illustrator 21.1.0, SVG Export Plug-In . SVG Version: 6.00 Build 0)  -->
<svg version="1.1" id="Layer_1" xmlns="http://www.w3.org/2000/svg" xmlns:xlink="http://www.w3.org/1999/xlink" x="0px" y="0px"
	 viewBox="0 0 40 41" style="enable-background:new 0 0 40 41;" xml:space="preserve">
<style type="text/css">
	.st0{opacity:0;fill:#FFFFFF;fill-opacity:0;}
	.st1{fill:#FFFFFF;}
</style>
<polygon class="st0" points="39.5,40.5 39.5,40 1,40 1,1.7 39,1.7 39,40.5 39.5,40.5 39.5,40 39.5,40.5 40,40.5 40,0.7 0,0.7 0,41 
	40,41 40,40.5 "/>
<polygon class="st1" points="31.8,31.8 31.8,31.4 8.6,31.4 8.6,8.6 31.4,8.6 31.4,31.8 31.8,31.8 31.8,31.4 31.8,31.8 32.3,31.8 
	32.3,7.7 7.7,7.7 7.7,32.3 32.3,32.3 32.3,31.8 "/>
</svg>
