<?xml version="1.0" encoding="utf-8"?>
<!-- Generator: Adobe Illustrator 24.1.2, SVG Export Plug-In . SVG Version: 6.00 Build 0)  -->
<svg version="1.1" id="Layer_9" xmlns="http://www.w3.org/2000/svg" xmlns:xlink="http://www.w3.org/1999/xlink" x="0px" y="0px"
	 viewBox="0 0 110.2 110.2" style="enable-background:new 0 0 110.2 110.2;" xml:space="preserve">
<style type="text/css">
	.st0{fill:#FFFFFF;fill-opacity:0;}
	.st1{fill:#FFFFFF;}
</style>
<rect class="st0" width="110.2" height="110.2"/>
<path class="st1" d="M103,96.2L89.9,80.2c17.2-20,14.9-50.1-5.1-67.3C67.3-2.2,41.3-2.5,23.4,12.3l0,0C3,28.9,0,59,16.7,79.3
	c0,0,0,0.1,0.1,0.1l0,0C31.4,97.3,56.8,102.1,77,90.8l13.1,15.9c2,2.4,5.4,2.7,7.8,0.8l4.3-3.5C104.6,102,104.9,98.5,103,96.2z
	 M62.9,75.5c-3,1-6.1,1.5-9.2,1.5c-4,0-8-0.9-11.7-2.5c-3.8-1.8-7.2-4.4-9.8-7.6l0,0c-9.8-11.9-8.1-29.4,3.8-39.2c0,0,0,0,0.1,0l0,0
	c11.9-9.8,29.5-8,39.2,3.9s8,29.5-3.9,39.2l0,0C68.8,72.8,66,74.4,62.9,75.5z"/>
</svg>
