<?xml version="1.0" encoding="utf-8"?>
<!-- Generator: Adobe Illustrator 19.2.1, SVG Export Plug-In . SVG Version: 6.00 Build 0)  -->
<svg version="1.1" id="Layer_1" xmlns="http://www.w3.org/2000/svg" xmlns:xlink="http://www.w3.org/1999/xlink" x="0px" y="0px"
	 viewBox="0 0 45.8 63" style="enable-background:new 0 0 45.8 63;" xml:space="preserve">
<style type="text/css">
	.st0{fill:#ED1C24;}
</style>
<title>standard_adobe_logo_-_2-color_red_and_white</title>
<polygon class="st0" points="28.9,0 45.8,0 45.8,40.5 "/>
<polygon class="st0" points="17,0 0,0 0,40.5 "/>
<polygon class="st0" points="22.9,14.9 33.7,40.5 26.6,40.5 23.4,32.3 15.5,32.3 "/>
<path d="M3.2,59.2l-0.7,3.5c0,0.1-0.1,0.2-0.1,0.2c0,0,0,0,0,0H0.2c-0.1,0-0.2,0-0.2-0.2l3-12.8c0.1-0.4,0.1-0.8,0.1-1.2
	c0-0.1,0-0.1,0.1-0.1c0,0,0,0,0,0h3.1c0.1,0,0.2,0.1,0.2,0.1c0,0,0,0,0,0l3.5,14c0,0.1,0,0.2-0.1,0.2H7.4c-0.1,0-0.2-0.1-0.2-0.1
	c0,0,0,0,0,0l-0.8-3.5L3.2,59.2L3.2,59.2z M5.9,56.7C5.6,55.1,5,52.6,4.8,51l0,0c-0.2,1.6-0.6,3.8-1,5.7H5.9z"/>
<path d="M10.3,57.3c0-3.2,1.9-5.8,5-5.8h0.4v-3.8c0-0.1,0-0.1,0.1-0.1c0,0,0,0,0,0h2.4c0.1,0,0.1,0,0.1,0.1c0,0,0,0,0,0v12.8
	c0,0.5,0,1,0.1,1.5c0,0.1,0,0.1-0.1,0.2c-1,0.5-2.1,0.8-3.2,0.8C12.2,63,10.3,61.2,10.3,57.3z M15.6,53.9c-0.2-0.1-0.3-0.1-0.5-0.1
	c-1.2,0-2.2,1.2-2.2,3.4s0.9,3.3,2.2,3.3c0.2,0,0.3,0,0.5-0.1L15.6,53.9L15.6,53.9z"/>
<path d="M27.8,57.2c0,3.5-1.5,5.8-4.1,5.8c-2.9,0-4.1-2.5-4.1-5.8s1.5-5.7,4.1-5.7S27.8,53.7,27.8,57.2z M22.2,57.2
	c0,2.1,0.5,3.4,1.5,3.4s1.4-1.2,1.4-3.4c0-2.1-0.4-3.4-1.4-3.4S22.3,54.9,22.2,57.2L22.2,57.2z"/>
<path d="M31.7,47.6c0.1,0,0.1,0,0.1,0.1v3.9c0.4-0.1,0.8-0.1,1.2-0.1c2.3,0,4.1,1.8,4.1,5.2c0,4-2.3,6.2-5.2,6.2
	c-0.9,0-1.8-0.1-2.6-0.4c-0.1,0-0.1-0.1-0.1-0.2V47.8c0-0.1,0-0.1,0.1-0.1c0,0,0,0,0,0L31.7,47.6L31.7,47.6z M32.6,53.9
	c-0.3,0-0.5,0-0.8,0.1v6.6c0.2,0,0.3,0,0.5,0c1,0,2.2-1,2.2-3.8C34.5,54.7,33.6,53.9,32.6,53.9L32.6,53.9z"/>
<path d="M40.7,57.9c0,1.7,0.7,2.8,2.4,2.8c0.6,0,1.2-0.1,1.7-0.3c0.1,0,0.2,0,0.2,0.1v1.8c0,0.1,0,0.2-0.2,0.3
	c-0.7,0.3-1.5,0.4-2.2,0.4c-3.3,0-4.6-2.4-4.6-5.6c0-3.3,1.5-5.9,4.1-5.9s3.5,2.4,3.5,4.4c0,0.6,0,1.1-0.1,1.7
	c0,0.1-0.1,0.2-0.2,0.2c-0.2,0-0.9,0.1-2.1,0.1H40.7z M42.6,55.8c0.2,0,0.4,0,0.7,0c0-0.1,0-0.2,0-0.2c0-0.8-0.3-1.7-1.2-1.7
	s-1.2,0.9-1.4,2L42.6,55.8L42.6,55.8z"/>
</svg>
