<svg id="Layer_1" data-name="Layer 1" xmlns="http://www.w3.org/2000/svg" width="202" height="196.48" viewBox="0 0 202 196.48">
  <defs>
    <style>
      .cls-1 {
        fill: #fff;
      }
    </style>
  </defs>
  <title>fullscreen-icon</title>
  <path class="cls-1" d="M152.22,169.61c-.54.56-1,1.06-1.47,1.53q-7.74,7.53-15.48,15.05c-2.44,2.35-3.3,5.12-2,8.22a7.4,7.4,0,0,0,7.36,4.8q26.73,0,53.46,0c4.77,0,7.9-3.09,7.91-7.76,0-17.26,0-34.53,0-51.79a7.29,7.29,0,0,0-4.82-7.26c-3.24-1.32-6.14-.47-8.62,2-5.58,5.47-11.19,10.92-16.94,16.51-.61-.57-1.17-1.06-1.7-1.58L132.56,113c-2.94-2.86-4.49-2.86-7.41,0q-6,5.85-12.06,11.72c-2.61,2.55-2.62,4.25,0,6.78l37.5,36.48C151.11,168.45,151.62,169,152.22,169.61Z" transform="translate(0 -2.74)"/>
  <path class="cls-1" d="M30.71,50.78a16.58,16.58,0,0,0,1.52,2Q50.82,70.91,69.43,89c2.95,2.87,4.5,2.88,7.42.05l11.9-11.58c2.84-2.76,2.85-4.34,0-7.07L51.44,34.05c-.54-.52-1-1.07-1.66-1.69.54-.56,1-1.06,1.47-1.53q7.72-7.53,15.48-15c2.43-2.35,3.3-5.11,2-8.21A7.4,7.4,0,0,0,61.4,2.75q-26.73,0-53.46,0C3.17,2.78,0,5.85,0,10.51,0,27.78,0,45,0,62.31a7.29,7.29,0,0,0,4.81,7.26c3.24,1.32,6.15.48,8.63-1.95C19,62.14,24.63,56.7,30.71,50.78Z" transform="translate(0 -2.74)"/>
</svg>
