<svg id="Layer_1" data-name="Layer 1" xmlns="http://www.w3.org/2000/svg" width="110.16" height="110.16" viewBox="0 0 110.16 110.16">
  <title>send-icon</title>
  <g>
    <path d="M110.15,107.84l-.32-92.16-13,0L96.83,0,0,.23.32,94.48l13,0,.05,15.71,96.83-.23Zm-4.57-88,.29,85.9-88.3.21,0-11.53V90.27l-.24-70.19,75.35-.18H96.9ZM4.57,90.3,4.28,4.4l88.3-.21,0,11.53L13,15.91l.26,74.37Z" style="fill: #fff"/>
    <polygon points="30.3 35.55 30.3 40.08 92.7 40.08 92.86 40.08 92.86 35.55 92.69 35.55 30.3 35.55" style="fill: #fff"/>
    <polygon points="92.78 60.61 30.3 60.61 30.3 65.14 92.8 65.14 92.78 60.61" style="fill: #fff"/>
    <polygon points="30.3 85.67 30.3 90.2 44.73 90.2 92.86 90.08 92.86 86.11 92.86 85.67 30.3 85.67" style="fill: #fff"/>
  </g>
</svg>
