<svg id="Layer_1" data-name="Layer 1" xmlns="http://www.w3.org/2000/svg" viewBox="0 0 185.64 37.66"><defs><style>.cls-1{fill:#ed1c24;}.cls-2{fill:#fff;}</style></defs><title>adobe-logo</title><polygon class="cls-1" points="24.7 2.59 39.18 2.59 39.18 37.14 24.7 2.59"/><polygon class="cls-1" points="14.49 2.59 0 2.59 0 37.14 14.49 2.59"/><polygon class="cls-1" points="19.6 15.32 28.83 37.13 22.78 37.13 20.01 30.18 13.26 30.18 19.6 15.32"/><path class="cls-2" d="M369,606.92l-3.8,10.87a.37.37,0,0,1-.42.32H361c-.32,0-.37-.16-.32-.42,3-8.23,8-22.42,11.39-31.6a7.71,7.71,0,0,0,.32-2.22.28.28,0,0,1,.32-.32h5.38c.21,0,.26.05.32.26,4,11,8.23,22.79,12.24,33.87.11.26.05.42-.21.42h-4.27a.35.35,0,0,1-.37-.32l-4-10.87Zm11.82-3.59c-1.11-3.53-4.38-12.4-5.38-16h-.05c-.84,3.32-3.43,10.23-5.38,16Z" transform="translate(-307.86 -580.96)"/><path class="cls-2" d="M391.8,605.54c0-7.75,5.49-13.4,13.82-13.4a11.36,11.36,0,0,1,4,.53V581.28a.28.28,0,0,1,.32-.32h4c.26,0,.32.11.32.32v32c0,.84.05,2,.11,2.58,0,.21,0,.37-.26.47a20.36,20.36,0,0,1-9.39,2.27C397.28,618.63,391.8,614.3,391.8,605.54Zm17.78-9.18a8.13,8.13,0,0,0-4.06-.9c-5.7,0-9,4-9,9.92,0,7.17,4.33,9.76,8.6,9.76a9.65,9.65,0,0,0,4.43-.84Z" transform="translate(-307.86 -580.96)"/><path class="cls-2" d="M442.45,605.33c0,8.12-4.91,13.29-12.08,13.29-8.7,0-12.24-6.7-12.24-13.24,0-7.6,4.8-13.24,12.29-13.24S442.45,597.68,442.45,605.33Zm-19.62-.05c0,5.8,2.69,10,7.65,10,3.69,0,7.28-2.85,7.28-9.86,0-5.43-2.21-10-7.6-10C425.78,595.47,422.83,599.16,422.83,605.28Z" transform="translate(-307.86 -580.96)"/><path class="cls-2" d="M450.79,581c.26,0,.37.05.37.32v12.24a13.54,13.54,0,0,1,6.07-1.37c7.17,0,11.66,5.17,11.66,12.55,0,9.23-6.33,13.93-13.45,13.93a20.22,20.22,0,0,1-8.6-1.74.44.44,0,0,1-.32-.42V581.28a.28.28,0,0,1,.32-.32Zm5.64,14.66a10.74,10.74,0,0,0-5.28,1.37v17.35a10.16,10.16,0,0,0,4.54.95c4.38,0,8.44-3.06,8.44-10.23C464.13,599.16,461.34,595.63,456.43,595.63Z" transform="translate(-307.86 -580.96)"/><path class="cls-2" d="M476.3,605.7c-.16,5.54,2.74,9.34,8.6,9.34a14.22,14.22,0,0,0,6.49-1.37c.16-.11.26-.05.26.21v2.74c0,.26-.05.37-.26.47a15.72,15.72,0,0,1-7.39,1.53c-9.23,0-12.4-6.49-12.4-13,0-7.39,4.27-13.4,11.66-13.4,7.6,0,10.23,5.8,10.23,10.34a15,15,0,0,1-.16,2.59.41.41,0,0,1-.42.37c-.79.11-3.06.21-5.43.21Zm9.39-2.85a20.58,20.58,0,0,0,3.32-.11,5.72,5.72,0,0,0,.05-.95c0-2.48-1.21-6.44-6-6.44-4.17,0-6.33,3.53-6.7,7.49Z" transform="translate(-307.86 -580.96)"/></svg>