<?xml version="1.0" encoding="utf-8"?>
<!-- Generator: Adobe Illustrator 22.0.0, SVG Export Plug-In . SVG Version: 6.00 Build 0)  -->
<svg version="1.1" id="Layer_1" xmlns="http://www.w3.org/2000/svg" xmlns:xlink="http://www.w3.org/1999/xlink" x="0px" y="0px"
	 viewBox="0 0 110.2 110.2" style="enable-background:new 0 0 110.2 110.2;" xml:space="preserve">
<style type="text/css">
	.st0{fill:#FFFFFF;fill-opacity:0;}
	.st1{fill:#BDC600;}
</style>
<polyline class="st0" points="110.2,0 0,0 0,110.2 110.2,110.2 110.2,0 "/>
<g>
	<path class="st1" d="M19.5,13.4v0.5v82.8h71.2v-1.4V13.4H19.5z M30.6,19.6h-3.1v9h9v-1.4v-7.6h-3.1v-3.4H46v3.4h-3.1v9h9v-1.4v-7.6
		h-3.1v-3.4h12.6v3.4h-3.1v9h9v-1.4v-7.6h-3.1v-3.4h12.6v3.4h-3.1v9h9v-1.4v-7.6h-3.1v-3.4h8.3v77.7H22.3V16.2h8.3
		C30.6,16.2,30.6,19.6,30.6,19.6z M79.8,25.7h-3.4v-3.4h3.4V25.7z M64.4,25.7H61v-3.4h3.4V25.7z M49.1,25.7h-3.4v-3.4h3.4V25.7z
		 M33.7,25.7h-3.4v-3.4h3.4V25.7z"/>
	<path class="st1" d="M48.4,66.1L48.4,66.1L48.4,66.1z"/>
	<path class="st1" d="M45.6,79.8L45.6,79.8L45.6,79.8z"/>
	<path class="st1" d="M75,36.3L75,36.3L75,36.3z"/>
	<path class="st1" d="M84.9,44.4L84.9,44.4L84.9,44.4z"/>
	<path class="st1" d="M46.2,81.3L46.2,81.3c0.3,0.2,0.6,0.4,1,0.4c0.2,0,0.4,0,0.6-0.1l0,0l12.3-4.8l0.1-0.1l0,0h0.1l0,0l0,0
		c0.1-0.1,0.3-0.2,0.4-0.4l0,0l24.4-29.6l0,0c0.2-0.3,0.4-0.6,0.4-1v-0.1l0,0c0-0.4-0.2-0.8-0.6-1.1L75,36.3c-0.3-0.2-0.6-0.4-1-0.4
		h-0.1c-0.4,0-0.8,0.2-1.1,0.6L48.4,66.1c-0.1,0.2-0.2,0.3-0.3,0.5l0,0v0.1l0,0v0.1l0,0l-2.4,13c0,0.1,0,0.2,0,0.3
		C45.6,80.6,45.8,81,46.2,81.3z M77.2,51.3l-7.4-6.1l4.5-5.5l7.4,6.1L77.2,51.3z M51.8,66.9l15.9-19.3l7.4,6.1L59.3,73.1L51.8,66.9z
		 M49.3,77.6l1.4-7.5l5.7,4.7L49.3,77.6z"/>
</g>
</svg>
