<svg xmlns="http://www.w3.org/2000/svg" width="110.2" height="110.2" viewBox="0 0 110.2 110.2">
  <defs>
    <style>
      .cls-1 {
        fill: #fff;
        opacity: 0;
      }

      .cls-2 {
        fill: #231f20;
      }
    </style>
  </defs>
  <title>select-share</title>
  <g id="Layer_7" data-name="Layer 7">
    <rect class="cls-1" width="110.2" height="110.2"/>
  </g>
  <g id="Layer_10" data-name="Layer 10">
    <g>
      <path class="cls-2" d="M92.68,38.19a9.09,9.09,0,0,0-.84-2.62,8.13,8.13,0,0,0-3.13-3.34A9.26,9.26,0,0,0,84,31H34.11a9,9,0,0,0-4.16.94,8.66,8.66,0,0,0-3.67,3.81,19.77,19.77,0,0,0-1.55,4.41h0L17.65,69.49a8.34,8.34,0,0,0-.15,3.26,7.79,7.79,0,0,0,.87,2.52,7.57,7.57,0,0,0,2.94,2.92,8,8,0,0,0,4,1H75.56a10,10,0,0,0,6.26-2.31,10.3,10.3,0,0,0,3.61-5.55h0L92.52,42h0A9.82,9.82,0,0,0,92.68,38.19Zm-5.1,2h0L80.5,69.49a6.42,6.42,0,0,1-2.23,3.33,5.82,5.82,0,0,1-3.51,1.38H24.49a2.89,2.89,0,0,1-.95-.14,1.48,1.48,0,0,1-.68-.44,1.83,1.83,0,0,1-.36-.87,3.56,3.56,0,0,1,.09-1.41h0L29.67,42h0a12,12,0,0,1,1.75-4.35,4.12,4.12,0,0,1,1.39-1.22A4.53,4.53,0,0,1,34.9,36H84.75a4.41,4.41,0,0,1,1.47.22,1.88,1.88,0,0,1,1,.66,2.82,2.82,0,0,1,.51,1.31A5.13,5.13,0,0,1,87.58,40.16Z" transform="translate(0 0)"/>
      <polygon class="cls-2" points="17.65 69.49 17.65 69.49 17.65 69.48 17.65 69.49"/>
      <path class="cls-2" d="M79.59,41,54,56.82,36.59,41.44a2.51,2.51,0,0,0-3.54,0,2.56,2.56,0,0,0,.51,3.54l19,16.76a2.65,2.65,0,0,0,3.08.43L82.73,45.36A2.33,2.33,0,0,0,83.15,42,2.77,2.77,0,0,0,79.59,41Z" transform="translate(0 0)"/>
      <path class="cls-2" d="M38.56,58.08l-11.71,10a2.44,2.44,0,0,0,0,3.5,2.63,2.63,0,0,0,3.58.5l11.71-10a2.43,2.43,0,0,0,0-3.5A2.64,2.64,0,0,0,38.56,58.08Z" transform="translate(0 0)"/>
      <path class="cls-2" d="M68.82,58.7a2.7,2.7,0,0,0-3.58-.7,2.39,2.39,0,0,0-.14,3.47l8.22,10a2.68,2.68,0,0,0,3.58.69,2.38,2.38,0,0,0,.15-3.46Z" transform="translate(0 0)"/>
    </g>
  </g>
</svg>
