<svg id="Layer_1" data-name="Layer 1" xmlns="http://www.w3.org/2000/svg" width="45.79" height="63" viewBox="0 0 45.79 63">
  <defs>
    <style>
      .cls-1 {
        fill: #e1251b;
      }

      .cls-2 {
        fill: #fff;
      }
    </style>
  </defs>
  <title>adobe-logo-print-rev</title>
  <g>
    <polygon class="cls-1" points="28.88 0 45.79 0 45.79 40.49 28.88 0"/>
    <polygon class="cls-1" points="16.96 0 0.03 0 0.03 40.49 16.96 0"/>
    <polygon class="cls-1" points="22.92 14.92 33.69 40.49 26.63 40.49 23.41 32.35 15.52 32.35 22.92 14.92"/>
    <g>
      <path class="cls-2" d="M30.32,90.08l-.74,3.52c0,.13-.07.16-.18.16H27.25c-.13,0-.18-.05-.16-.23l3-12.75a4.62,4.62,0,0,0,.09-1.24.13.13,0,0,1,.14-.14h3.06c.12,0,.16,0,.19.16l3.45,14c0,.13,0,.18-.14.18H34.45a.16.16,0,0,1-.18-.16l-.79-3.52ZM33,87.66c-.32-1.64-.91-4.13-1.13-5.73h0c-.23,1.56-.66,3.75-1,5.73Z" transform="translate(-27.09 -30.93)"/>
      <path class="cls-2" d="M37.35,88.27c0-3.25,1.92-5.77,5-5.77h.35V78.67c0-.07,0-.12.14-.12H45.2c.09,0,.11,0,.11.12V91.51A9.92,9.92,0,0,0,45.38,93c0,.07,0,.11-.09.15a7.33,7.33,0,0,1-3.23.78C39.25,93.93,37.35,92.11,37.35,88.27Zm5.33-3.39a1.31,1.31,0,0,0-.49-.06C40.94,84.82,40,86,40,88.18s.93,3.35,2.16,3.35a1.66,1.66,0,0,0,.51-.07Z" transform="translate(-27.09 -30.93)"/>
      <path class="cls-2" d="M54.85,88.18c0,3.53-1.47,5.75-4.05,5.75-2.9,0-4.06-2.54-4.06-5.77s1.47-5.66,4.1-5.66S54.85,84.6,54.85,88.18Zm-5.5,0c0,2.08.44,3.44,1.45,3.44s1.42-1.16,1.42-3.41c0-2.1-.35-3.39-1.4-3.39S49.35,85.87,49.35,88.18Z" transform="translate(-27.09 -30.93)"/>
      <path class="cls-2" d="M58.77,78.55c.09,0,.12,0,.12.14v3.94a5.91,5.91,0,0,1,1.2-.13c2.32,0,4.08,1.78,4.08,5.24,0,4-2.3,6.19-5.17,6.19a8.43,8.43,0,0,1-2.59-.4.2.2,0,0,1-.13-.17V78.69c0-.09,0-.14.13-.14Zm.92,6.31a2.69,2.69,0,0,0-.8.11v6.58a2,2,0,0,0,.46,0c1,0,2.19-1,2.21-3.79C61.58,85.64,60.71,84.86,59.69,84.86Z" transform="translate(-27.09 -30.93)"/>
      <path class="cls-2" d="M67.78,88.83c0,1.72.65,2.76,2.45,2.76a4.47,4.47,0,0,0,1.7-.31c.11,0,.17,0,.17.11v1.85c0,.16,0,.25-.15.29a4.81,4.81,0,0,1-2.21.4c-3.28,0-4.55-2.4-4.55-5.55,0-3.34,1.48-5.88,4.08-5.88s3.55,2.43,3.55,4.41a13.11,13.11,0,0,1-.11,1.68.21.21,0,0,1-.2.17c-.23,0-.92.07-2.12.07Zm1.89-2.1a4,4,0,0,0,.67,0,.72.72,0,0,0,0-.24c0-.85-.27-1.74-1.19-1.74s-1.24.91-1.36,2Z" transform="translate(-27.09 -30.93)"/>
    </g>
  </g>
</svg>
