<svg id="Layer_1" data-name="Layer 1" xmlns="http://www.w3.org/2000/svg" width="202" height="196.48" viewBox="0 0 202 196.48">
  <defs>
    <style>
      .cls-1 {
        fill: #fff;
      }
    </style>
  </defs>
  <title>fullscreen-icon-exit</title>
  <path class="cls-1" d="M160.9,140.42c.54-.56,1-1.06,1.48-1.53q7.73-7.53,15.48-15c2.43-2.35,3.29-5.12,2-8.21a7.4,7.4,0,0,0-7.36-4.81c-17.82,0-35.64,0-53.47,0-4.76,0-7.89,3.09-7.9,7.75,0,17.26,0,34.53,0,51.8a7.28,7.28,0,0,0,4.81,7.25c3.24,1.32,6.15.47,8.63-2,5.57-5.48,11.19-10.92,16.93-16.52.62.57,1.17,1.07,1.7,1.58l37.36,36.33c2.95,2.86,4.5,2.87,7.42,0L200,185.37c2.61-2.55,2.62-4.24,0-6.78l-37.51-36.48C162,141.59,161.5,141,160.9,140.42Z" transform="translate(0 -2.74)"/>
  <path class="cls-1" d="M60.18,43.12a16.58,16.58,0,0,0-1.52-2Q40.08,23,21.46,4.91C18.51,2,17,2,14,4.86q-6,5.78-11.9,11.58C-.7,19.2-.71,20.78,2.09,23.51L39.45,59.85c.54.52,1,1.07,1.66,1.69-.54.56-1,1.06-1.47,1.53Q31.92,70.6,24.16,78.12c-2.43,2.35-3.3,5.11-2,8.21a7.4,7.4,0,0,0,7.36,4.81q26.73,0,53.46,0c4.77,0,7.91-3.09,7.92-7.74,0-17.27,0-34.54,0-51.8a7.28,7.28,0,0,0-4.81-7.26c-3.24-1.33-6.15-.48-8.63,2C71.88,31.76,66.26,37.2,60.18,43.12Z" transform="translate(0 -2.74)"/>
</svg>
