<svg id="Layer_9" data-name="Layer 9" xmlns="http://www.w3.org/2000/svg" width="110.2" height="110.2" viewBox="0 0 110.2 110.2">
  <defs>
    <style>
      .cls-1 {
        fill: #fff;
        opacity: 0;
      }
    </style>
  </defs>
  <title>select-search</title>
  <rect class="cls-1" width="110.2" height="110.2"/>
  <path d="M103,96.15,89.92,80.22a47.71,47.71,0,0,0-66.5-67.94h0a47.66,47.66,0,0,0-6.64,67.15h0A47.63,47.63,0,0,0,77,90.79L90.1,106.72a5.57,5.57,0,0,0,7.82.77l4.29-3.52A5.57,5.57,0,0,0,103,96.15ZM62.91,75.47A27.73,27.73,0,0,1,53.7,77,28.12,28.12,0,0,1,42,74.46a27.66,27.66,0,0,1-9.81-7.62h0A27.82,27.82,0,0,1,36,27.63h0A27.86,27.86,0,1,1,71.35,70.72h0A27.84,27.84,0,0,1,62.91,75.47Z" transform="translate(0 0)"/>
</svg>
