<?xml version="1.0" encoding="UTF-8"?><svg id="Layer_1" xmlns="http://www.w3.org/2000/svg" viewBox="0 0 172.95 168.97"><defs><style>.cls-1{fill:none;}</style></defs><path class="cls-1" d="M39.98,69.47c-.52-.29-1.1-.49-1.76-.59-.66-.11-1.33-.16-2-.16h-4.54v8.21h4.54c.67,0,1.34-.05,2-.16,.66-.11,1.25-.31,1.76-.59,.52-.29,.93-.7,1.24-1.24,.31-.54,.47-1.24,.47-2.11s-.16-1.57-.47-2.11c-.31-.54-.73-.95-1.24-1.24Z"/><path d="M130.98,42.21c6.33,9.98,9.98,21.79,9.89,34.41-.1,15.18-5.44,29.07-14.29,40,3.3,2.69,6.61,5.37,9.91,8.06,26.3-34.94,18.91-76.11-4.07-100.55,.02,5.97-.45,12.02-1.44,18.09Z"/><path d="M76.89,12.26c14.06,.04,27.06,4.64,37.64,12.37,0-.04,0-.07,0-.1,.04-5.12-.36-10.14-1.13-15.04C85.51-5.75,50.38-2.65,26.12,18.92-2.26,44.14-8.2,85.26,11.69,116.82c3.01,.3,6.05,.46,9.13,.47,2.1,0,4.18-.07,6.24-.2-9.21-11.15-14.74-25.45-14.68-40.99,.14-35.36,29.01-63.93,64.51-63.84Z"/><path d="M76.37,140.47c-10.96-.02-21.27-2.82-30.3-7.72-6.02,1.39-12.15,2.25-18.39,2.56,8.7,7.33,18.91,12.5,30.67,15.33,23.79,5.73,45.43,.77,65.02-13.36-3.39-2.74-6.78-5.48-10.18-8.23-10.44,7.22-23.12,11.45-36.82,11.42Z"/><path d="M127.16,19.05c-4.3-3.74-8.93-6.92-13.76-9.57,.77,4.9,1.17,9.93,1.13,15.04,0,.04,0,.07,0,.1,6.53,4.77,12.12,10.74,16.45,17.58,1-6.07,1.46-12.12,1.44-18.09-1.67-1.78-3.43-3.47-5.26-5.07Z"/><path d="M27.06,117.09c-2.06,.13-4.14,.2-6.24,.2-3.08,0-6.13-.17-9.13-.47,.56,.89,1.13,1.78,1.74,2.65,4.18,6.07,8.93,11.36,14.25,15.84,6.24-.31,12.38-1.17,18.39-2.56-7.3-3.96-13.76-9.3-19.01-15.66Z"/><path d="M134.09,127.74c.83-1.02,1.63-2.04,2.4-3.07-3.3-2.69-6.6-5.37-9.91-8.06-3.85,4.75-8.36,8.94-13.4,12.43,3.39,2.74,6.79,5.49,10.18,8.23,.46-.33,.92-.66,1.38-1.01,13.54,10.95,26.92,21.76,40.44,32.7,2.64-3.27,5.17-6.41,7.76-9.63-13.01-10.58-25.85-21.03-38.85-31.6Z"/><g><path d="M48.77,65.6v15.62c0,.79,.11,1.61,.32,2.47,.22,.85,.58,1.64,1.08,2.36,.5,.72,1.16,1.31,1.98,1.76,.82,.46,1.82,.68,3.02,.68s2.21-.23,3.02-.68c.82-.46,1.48-1.04,1.98-1.76,.5-.72,.86-1.51,1.08-2.36,.22-.85,.32-1.67,.32-2.47v-15.62h3.46v16.16c0,1.49-.25,2.84-.76,4.05-.5,1.21-1.2,2.26-2.09,3.15-.89,.89-1.93,1.57-3.13,2.05-1.2,.48-2.5,.72-3.89,.72s-2.69-.24-3.89-.72c-1.2-.48-2.24-1.16-3.13-2.05-.89-.89-1.58-1.94-2.09-3.15s-.76-2.56-.76-4.05v-16.16h3.46Z"/><path d="M71.13,65.6h8.96c1.63,0,2.98,.22,4.03,.67,1.06,.44,1.89,1.01,2.5,1.69,.61,.68,1.04,1.45,1.28,2.3,.24,.85,.36,1.67,.36,2.47s-.14,1.6-.43,2.36-.7,1.44-1.24,2.05c-.54,.61-1.2,1.13-1.98,1.55s-1.65,.68-2.61,.77l7.24,11.63h-4.32l-6.48-11.23h-3.85v11.23h-3.46v-25.49Zm3.46,11.23h4.54c.67,0,1.34-.05,2-.16,.66-.11,1.25-.31,1.76-.59,.52-.29,.93-.7,1.24-1.24,.31-.54,.47-1.24,.47-2.11s-.16-1.57-.47-2.11c-.31-.54-.73-.95-1.24-1.24s-1.1-.49-1.76-.59c-.66-.11-1.33-.16-2-.16h-4.54v8.21Z"/><path d="M93.12,65.6h3.46v22.25h11.7v3.24h-15.16v-25.49Z"/></g></svg>