<?xml version="1.0" encoding="UTF-8"?><svg id="Layer_1" xmlns="http://www.w3.org/2000/svg" viewBox="0 0 172.95 168.97"><defs><style>.cls-1{fill:none;}</style></defs><path class="cls-1" d="M72.83,77.69c-.41-.44-.92-.79-1.53-1.04-.61-.25-1.33-.38-2.14-.38s-1.52,.15-2.18,.45c-.66,.3-1.22,.69-1.67,1.17-.46,.48-.81,1.01-1.06,1.6-.25,.59-.38,1.17-.38,1.75h10.22c-.02-.72-.14-1.38-.34-1.98-.2-.6-.51-1.12-.92-1.57Z"/><path class="cls-1" d="M39.98,69.47c-.52-.29-1.1-.49-1.76-.59-.66-.11-1.33-.16-2-.16h-4.54v8.21h4.54c.67,0,1.34-.05,2-.16,.66-.11,1.25-.31,1.76-.59,.52-.29,.93-.7,1.24-1.24,.31-.54,.47-1.24,.47-2.11s-.16-1.57-.47-2.11c-.31-.54-.73-.95-1.24-1.24Z"/><path d="M130.98,42.21c6.33,9.98,9.98,21.79,9.89,34.41-.1,15.18-5.44,29.07-14.29,40,3.3,2.69,6.61,5.37,9.91,8.06,26.3-34.94,18.91-76.11-4.07-100.55,.02,5.97-.45,12.02-1.44,18.09Z"/><path d="M76.89,12.26c14.06,.04,27.06,4.64,37.64,12.37,0-.04,0-.07,0-.1,.04-5.12-.36-10.14-1.13-15.04C85.51-5.75,50.38-2.65,26.12,18.92-2.26,44.14-8.2,85.26,11.69,116.82c3.01,.3,6.05,.46,9.13,.47,2.1,0,4.18-.07,6.24-.2-9.21-11.15-14.74-25.45-14.68-40.99,.14-35.36,29.01-63.93,64.51-63.84Z"/><path d="M76.37,140.47c-10.96-.02-21.27-2.82-30.3-7.72-6.02,1.39-12.15,2.25-18.39,2.56,8.7,7.33,18.91,12.5,30.67,15.33,23.79,5.73,45.43,.77,65.02-13.36-3.39-2.74-6.78-5.48-10.18-8.23-10.44,7.22-23.12,11.45-36.82,11.42Z"/><path d="M89.73,87.38s.03-.06,.04-.08c-.17,.18-.34,.36-.51,.54,.18-.14,.34-.28,.47-.46Z"/><path d="M127.16,19.05c-4.3-3.74-8.93-6.92-13.76-9.57,.77,4.9,1.17,9.93,1.13,15.04,0,.04,0,.07,0,.1,6.53,4.77,12.12,10.74,16.45,17.58,1-6.07,1.46-12.12,1.44-18.09-1.67-1.78-3.43-3.47-5.26-5.07Z"/><path d="M27.06,117.09c-2.06,.13-4.14,.2-6.24,.2-3.08,0-6.13-.17-9.13-.47,.56,.89,1.13,1.78,1.74,2.65,4.18,6.07,8.93,11.36,14.25,15.84,6.24-.31,12.38-1.17,18.39-2.56-7.3-3.96-13.76-9.3-19.01-15.66Z"/><path d="M134.09,127.74c.83-1.02,1.63-2.04,2.4-3.07-3.3-2.69-6.6-5.37-9.91-8.06-3.85,4.75-8.36,8.94-13.4,12.43,3.39,2.74,6.79,5.49,10.18,8.23,.46-.33,.92-.66,1.38-1.01,13.54,10.95,26.92,21.76,40.44,32.7,2.64-3.27,5.17-6.41,7.76-9.63-13.01-10.58-25.85-21.03-38.85-31.6Z"/><path d="M43.72,68.05c-.61-.68-1.45-1.25-2.5-1.69-1.06-.44-2.4-.67-4.03-.67h-8.96v25.49h3.46v-11.23h5.51c1.63,0,2.98-.22,4.03-.67,1.06-.44,1.89-1.01,2.5-1.69,.61-.68,1.04-1.45,1.28-2.3,.24-.85,.36-1.67,.36-2.47s-.12-1.61-.36-2.47c-.24-.85-.67-1.62-1.28-2.3Zm-2.5,6.88c-.31,.54-.73,.95-1.24,1.24-.52,.29-1.1,.49-1.76,.59-.66,.11-1.33,.16-2,.16h-4.54v-8.21h4.54c.67,0,1.34,.05,2,.16,.66,.11,1.25,.31,1.76,.59s.93,.7,1.24,1.24c.31,.54,.47,1.24,.47,2.11s-.16,1.57-.47,2.11Z"/><path d="M55.58,73.91c-.53,.16-1.01,.37-1.46,.63-.44,.26-.85,.58-1.21,.95-.36,.37-.65,.79-.86,1.24h-.07v-2.63h-3.24v17.06h3.24v-8.57c0-1.87,.42-3.25,1.26-4.14,.84-.89,2.05-1.33,3.64-1.33,.26,0,.53,.02,.79,.07,.26,.05,.53,.11,.79,.18l.14-3.49c-.43-.14-.91-.22-1.44-.22s-1.06,.08-1.58,.23Z"/><path d="M75.64,76.54c-.67-.85-1.53-1.54-2.57-2.07-1.04-.53-2.32-.79-3.83-.79-1.27,0-2.45,.23-3.53,.68-1.08,.46-2.01,1.09-2.79,1.89-.78,.8-1.39,1.75-1.84,2.84-.44,1.09-.67,2.27-.67,3.55s.2,2.45,.61,3.55c.41,1.09,.99,2.04,1.75,2.84,.76,.8,1.68,1.43,2.77,1.89,1.09,.46,2.31,.68,3.65,.68,3.24,0,5.76-1.16,7.56-3.49l-2.45-1.87c-.62,.77-1.31,1.39-2.05,1.85-.74,.47-1.62,.7-2.63,.7-.74,0-1.46-.12-2.16-.36-.7-.24-1.31-.58-1.84-1.01-.53-.43-.95-.95-1.28-1.57-.32-.61-.49-1.29-.49-2.03h13.68v-1.15c0-1.1-.15-2.19-.45-3.26-.3-1.07-.79-2.03-1.46-2.88Zm-11.77,4.7c0-.58,.13-1.16,.38-1.75,.25-.59,.61-1.12,1.06-1.6,.46-.48,1.01-.87,1.67-1.17,.66-.3,1.39-.45,2.18-.45s1.53,.13,2.14,.38c.61,.25,1.12,.6,1.53,1.04,.41,.44,.71,.97,.92,1.57,.2,.6,.32,1.26,.34,1.98h-10.22Z"/><path d="M89.26,87.84c-.1,.08-.21,.16-.32,.23-.32,.18-.7,.31-1.12,.4s-.83,.13-1.24,.13c-.94,0-1.73-.2-2.38-.61-.65-.41-1.24-.88-1.76-1.4l-2.45,2.02c.84,1.15,1.79,1.94,2.86,2.38,.8,.32,1.7,.53,2.7,.61,1.27-1.21,2.5-2.45,3.7-3.73Z"/><path d="M90.49,81.89c-.61-.24-1.27-.44-1.96-.61-.36-.07-.79-.16-1.3-.25-.5-.1-.98-.24-1.42-.43-.44-.19-.83-.44-1.15-.76-.32-.31-.49-.72-.49-1.22,0-.62,.28-1.1,.85-1.42,.56-.32,1.23-.49,2-.49,.82,0,1.51,.16,2.07,.49,.56,.32,1.04,.73,1.42,1.21l2.52-1.91c-.62-1.01-1.46-1.73-2.52-2.16-1.06-.43-2.16-.65-3.31-.65-.79,0-1.58,.11-2.36,.32-.78,.22-1.48,.54-2.09,.97-.61,.43-1.1,.98-1.48,1.64-.37,.66-.56,1.43-.56,2.32,0,.82,.14,1.5,.43,2.05,.29,.55,.67,1.01,1.15,1.37,.48,.36,1.03,.65,1.66,.86s1.28,.41,1.98,.58c.36,.07,.77,.16,1.24,.27,.47,.11,.91,.25,1.33,.43,.42,.18,.78,.43,1.08,.74,.3,.31,.45,.71,.45,1.19,0,.33-.1,.61-.26,.87,1.06-1.14,2.08-2.31,3.08-3.5-.22-.36-.47-.69-.79-.97-.44-.38-.97-.7-1.58-.94Z"/><path d="M89.73,87.38c-.13,.17-.29,.32-.47,.46-1.2,1.28-2.43,2.52-3.7,3.73,.33,.03,.67,.04,1.02,.04,.84,0,1.67-.1,2.5-.29,.83-.19,1.57-.5,2.21-.94,.65-.43,1.18-.99,1.58-1.67s.61-1.51,.61-2.47c0-.79-.13-1.46-.38-2.02-.07-.16-.17-.29-.26-.44-1,1.19-2.03,2.36-3.08,3.5-.02,.03-.02,.06-.04,.08Z"/><path d="M112.75,88.12l-.1-.08c-.2,.3-.41,.6-.61,.9,.25-.26,.49-.53,.71-.82Z"/><path d="M108.25,88.1c-.74,.47-1.62,.7-2.63,.7-.74,0-1.46-.12-2.16-.36-.7-.24-1.31-.58-1.84-1.01-.53-.43-.95-.95-1.28-1.57s-.49-1.29-.49-2.03h13.68v-1.15c0-1.1-.15-2.19-.45-3.26-.3-1.07-.79-2.03-1.46-2.88-.67-.85-1.53-1.54-2.57-2.07-1.04-.53-2.32-.79-3.83-.79-1.27,0-2.45,.23-3.53,.68-1.08,.46-2.01,1.09-2.79,1.89-.78,.8-1.39,1.75-1.84,2.84-.44,1.09-.67,2.27-.67,3.55s.2,2.45,.61,3.55c.41,1.09,.99,2.04,1.75,2.84,.76,.8,1.68,1.43,2.77,1.89,1.09,.46,2.31,.68,3.65,.68,2.83,0,5.11-.89,6.85-2.67,.2-.3,.41-.6,.61-.9l-2.34-1.79c-.62,.77-1.31,1.39-2.05,1.85Zm-8.01-8.6c.25-.59,.61-1.12,1.06-1.6,.46-.48,1.01-.87,1.67-1.17,.66-.3,1.39-.45,2.18-.45s1.53,.13,2.14,.38c.61,.25,1.12,.6,1.53,1.04,.41,.44,.71,.97,.92,1.57,.2,.6,.32,1.26,.34,1.98h-10.22c0-.58,.13-1.16,.38-1.75Z"/><path d="M118.69,85.81c0,.7,.03,1.39,.09,2.07s.25,1.3,.58,1.85c.32,.55,.83,1,1.51,1.35,.68,.35,1.65,.52,2.9,.52,.34,0,.81-.04,1.42-.13,.61-.08,1.11-.23,1.49-.45v-2.95c-.34,.19-.71,.32-1.12,.4-.41,.07-.8,.11-1.19,.11-.62,0-1.1-.11-1.42-.34-.32-.23-.56-.53-.72-.9-.16-.37-.25-.79-.27-1.26-.02-.47-.04-.94-.04-1.42v-7.74h4.64v-2.81h-4.64v-2.62c-1,2.17-2.08,4.33-3.24,6.48v7.84Z"/><path d="M118.69,69.32v4.79h-3.74v2.81h3.74v1.05c1.16-2.15,2.24-4.31,3.24-6.48v-2.17h-3.24Z"/></svg>