<svg id="Layer_18" data-name="Layer 18" xmlns="http://www.w3.org/2000/svg" width="110.2" height="110.2" viewBox="0 0 110.2 110.2">
  <defs>
    <style>
      .cls-1 {
        opacity: 0;
      }
    </style>
  </defs>
  <title>fullscreen-icon</title>
  <path d="M5.67,5.82a14.64,14.64,0,0,1,1.47-.15H52.66L35.25,23l18,17.85c-4.16,4.15-8,8-11.94,11.95L24,35.3,6.28,53.08l-.56-.25V5.76Z"/>
  <path d="M104.48,104.48l-44.57-.07H57.43L75.12,87.05c-6.37-6.31-12.29-12.15-18-17.85,4.13-4.12,8-8,11.92-11.89L86.37,74.78c6.09-6.09,11.9-11.91,18.06-18.09.06.92.1,1.26.1,1.6v45.13c0,.37-.07.74-.1,1.11Z"/>
  <rect class="cls-1" width="110.2" height="110.2"/>
</svg>
