<?xml version="1.0" encoding="utf-8"?>
<!-- Generator: Adobe Illustrator 24.1.2, SVG Export Plug-In . SVG Version: 6.00 Build 0)  -->
<svg version="1.1" id="Layer_22" xmlns="http://www.w3.org/2000/svg" xmlns:xlink="http://www.w3.org/1999/xlink" x="0px" y="0px"
	 viewBox="0 0 112 110.5" style="enable-background:new 0 0 112 110.5;" xml:space="preserve">
<style type="text/css">
	.st0{fill:#231F20;}
	.st1{fill:none;}
	.st2{fill:#FFFFFF;}
</style>
<polygon class="st0" points="17.3,1.8 17.3,1.8 17.3,1.8 "/>
<polygon class="st0" points="17.3,1.8 17.3,1.8 17.3,1.8 "/>
<polygon class="st0" points="17.3,71.3 17.3,71.3 17.3,71.3 "/>
<polygon class="st0" points="1.8,38.9 1.8,38.9 1.8,38.9 "/>
<polygon class="st0" points="1.8,38.9 1.8,38.9 1.8,38.9 "/>
<polygon class="st0" points="1.8,108.4 1.8,108.4 1.8,108.4 "/>
<path class="st1" d="M19,71.3c-1.1-1.1-1.7-2.6-1.7-4.2v-18h-5.6v49.5H83V73.1H23.1C21.6,73.1,20.1,72.4,19,71.3z"/>
<polygon class="st1" points="85.7,23.9 94.6,23.9 85.7,16 "/>
<path class="st2" d="M111.6,24.2c-0.3-0.9-0.9-1.6-1.6-2.3l0,0L87.1,1.5l0,0c-1.1-1-2.4-1.5-3.9-1.5H23.1c-1.6,0-3,0.6-4.1,1.7
	c-1.1,1.1-1.7,2.6-1.7,4.2v31.5H29V11.8h45.1v18c0,1.5,0.6,3,1.7,4.2c1.1,1.1,2.6,1.7,4.2,1.7h20.4v25.6h-6.2c0,0.1,0.1,0.2,0.1,0.3
	c0.3,0.7,0.4,1.4,0.4,2.2v9.3h11.5c1.6,0,3-0.6,4.1-1.8c1.1-1.1,1.7-2.6,1.7-4.2V26.3C112,25.6,111.8,24.9,111.6,24.2z M85.7,23.9
	V16l8.8,7.9L85.7,23.9z"/>
<path class="st2" d="M29,49.2H17.3v18c0,1.6,0.6,3,1.7,4.2c1.1,1.1,2.6,1.7,4.1,1.7H83l0,0H62.6c-1.6,0-3.1-0.6-4.2-1.8
	c-1.1-1.1-1.7-2.6-1.7-4.2v-5.9H29V49.2z"/>
<path class="st2" d="M83,73.4v25.3H11.7V49.2h5.6V37.4H5.8c-1.6,0-3,0.6-4.1,1.8C0.6,40.3,0,41.8,0,43.3v61.3c0,1.5,0.6,3,1.7,4.2
	c1.1,1.1,2.6,1.7,4.2,1.7h83c1.6,0,3-0.6,4.1-1.7c1.1-1.1,1.7-2.6,1.7-4.2V73.1H83V73.4z"/>
<polygon class="st2" points="27.2,49.2 29,49.2 29,37.4 27.2,37.4 17.3,37.4 17.3,49.2 "/>
<path class="st2" d="M94.3,61.6c0-0.1-0.1-0.2-0.1-0.3H56.8v5.9c0,1.5,0.6,3,1.7,4.2c1.1,1.1,2.6,1.7,4.2,1.8H83l0,0h11.7v-9.3
	C94.7,63,94.6,62.3,94.3,61.6z"/>
</svg>
