<?xml version="1.0" encoding="utf-8"?>
<!-- Generator: Adobe Illustrator 22.0.0, SVG Export Plug-In . SVG Version: 6.00 Build 0)  -->
<svg version="1.1" id="Layer_1" xmlns="http://www.w3.org/2000/svg" xmlns:xlink="http://www.w3.org/1999/xlink" x="0px" y="0px"
	 viewBox="0 0 600 600" style="enable-background:new 0 0 600 600;" xml:space="preserve">
<style type="text/css">
	.st0{opacity:0.2;fill:#F9F9F9;stroke:#000000;stroke-width:0.25;stroke-miterlimit:10;}
	.st1{fill:#F9F9F9;stroke:#000000;stroke-width:10;stroke-miterlimit:10;}
</style>
<circle class="st0" cx="261.3" cy="261" r="203.9"/>
<path class="st1" d="M542.5,513.8l-122-122c4.1-4.9,7.9-10.1,11.5-15.4c11-16.3,19.8-34.4,25.8-53.6s9.2-39.7,9.2-60.9h0
	c0-28.2-5.7-55.2-16.1-79.7c-15.6-36.8-41.5-68-74.2-90.1c-16.3-11-34.4-19.8-53.6-25.8s-39.7-9.2-60.9-9.2
	c-28.2,0-55.2,5.7-79.7,16.1c-36.8,15.6-68,41.5-90.1,74.2c-11,16.3-19.8,34.4-25.8,53.6s-9.2,39.7-9.2,60.9
	c0,28.2,5.7,55.2,16.1,79.7c15.6,36.8,41.5,68,74.2,90.1c16.3,11,34.4,19.8,53.6,25.8c19.2,6,39.7,9.2,60.9,9.2
	c28.2,0,55.2-5.7,79.7-16.1c18-7.6,34.6-17.7,49.5-29.8l122.1,122.1L542.5,513.8z M314.1,428.7c-16.4,5.1-33.8,7.8-51.9,7.8
	c-24.2,0-47.1-4.9-68-13.7c-31.3-13.2-58-35.4-76.8-63.3c-9.4-13.9-16.9-29.3-22-45.7c-5.1-16.4-7.8-33.8-7.8-51.9
	c0-24.2,4.9-47.1,13.7-68c13.2-31.3,35.4-58,63.3-76.8c13.9-9.4,29.3-16.9,45.7-22c16.4-5.1,33.8-7.8,51.9-7.8
	c24.2,0,47.1,4.9,68,13.7c31.3,13.2,58,35.4,76.8,63.3c9.4,13.9,16.9,29.3,22,45.7c5.1,16.4,7.8,33.8,7.8,51.9
	c0,24.2-4.9,47.1-13.7,68c-13.2,31.3-35.4,58-63.3,76.8C345.9,416.1,330.5,423.6,314.1,428.7z"/>
<polygon class="st1" points="378.5,246.7 277.4,246.7 277.4,145.7 247,145.7 247,246.7 146,246.7 146,277.1 247,277.1 247,378.2 
	277.4,378.2 277.4,277.1 378.5,277.1 "/>
</svg>
