<?xml version="1.0" encoding="utf-8"?>
<!-- Generator: Adobe Illustrator 24.1.2, SVG Export Plug-In . SVG Version: 6.00 Build 0)  -->
<svg version="1.1" id="Layer_19" xmlns="http://www.w3.org/2000/svg" xmlns:xlink="http://www.w3.org/1999/xlink" x="0px" y="0px"
	 viewBox="0 0 110.2 110.2" style="enable-background:new 0 0 110.2 110.2;" xml:space="preserve">
<style type="text/css">
	.st0{fill:#FFFFFF;}
</style>
<path class="st0" d="M47.6,47.3c-0.5,0.1-1,0.1-1.5,0.1H0.6L18,30.1L0,12.2L11.9,0.3l17.3,17.5L47,0l0.6,0.3L47.6,47.3L47.6,47.3z"
	/>
<path class="st0" d="M62.8,62.4l44.6,0.1h2.5L92.2,79.8l18,17.8l-11.9,11.9L80.9,92.1l-18.1,18.1c-0.1-0.9-0.1-1.3-0.1-1.6
	c0-15,0-30.1,0-45.1C62.8,63.1,62.8,62.7,62.8,62.4L62.8,62.4z"/>
</svg>
