<svg id="Layer_1" data-name="Layer 1" xmlns="http://www.w3.org/2000/svg" width="185.64" height="37.66" viewBox="0 0 185.64 37.66">
  <defs>
    <style>
      .cls-1 {
        fill: #ed1c24;
      }

      .cls-2 {
        fill: #231f20;
      }
    </style>
  </defs>
  <title>adobe-logo-default</title>
  <g>
    <polygon class="cls-1" points="24.7 2.59 39.18 2.59 39.18 37.14 24.7 2.59"/>
    <polygon class="cls-1" points="14.49 2.59 0 2.59 0 37.14 14.49 2.59"/>
    <polygon class="cls-1" points="19.6 15.32 28.83 37.13 22.78 37.13 20.01 30.18 13.26 30.18 19.6 15.32"/>
    <path class="cls-2" d="M368,407.92l-3.8,10.86a.37.37,0,0,1-.42.32H360c-.32,0-.37-.16-.32-.42,3-8.23,8-22.42,11.4-31.6a7.92,7.92,0,0,0,.31-2.22.28.28,0,0,1,.32-.31h5.38c.21,0,.26.05.32.26,4,11,8.22,22.79,12.23,33.87.11.26.06.42-.21.42h-4.27a.35.35,0,0,1-.37-.32l-4-10.86Zm11.81-3.59c-1.11-3.54-4.38-12.4-5.38-16h-.05c-.84,3.32-3.43,10.23-5.38,16Z" transform="translate(-306.86 -381.96)"/>
    <path class="cls-2" d="M390.8,406.54c0-7.75,5.48-13.39,13.82-13.39a11.32,11.32,0,0,1,3.95.52V382.28a.29.29,0,0,1,.32-.32h4c.26,0,.31.11.31.32v32c0,.84.06,1.95.11,2.58,0,.21,0,.37-.26.48a20.41,20.41,0,0,1-9.39,2.27C396.28,419.63,390.8,415.3,390.8,406.54Zm17.77-9.17a8.08,8.08,0,0,0-4.06-.9c-5.7,0-9,4-9,9.92,0,7.17,4.33,9.75,8.6,9.75a9.67,9.67,0,0,0,4.43-.84Z" transform="translate(-306.86 -381.96)"/>
    <path class="cls-2" d="M441.45,406.33c0,8.13-4.91,13.3-12.08,13.3-8.7,0-12.24-6.7-12.24-13.24,0-7.6,4.8-13.24,12.29-13.24S441.45,398.68,441.45,406.33Zm-19.62-.05c0,5.8,2.69,10,7.65,10,3.69,0,7.27-2.84,7.27-9.86,0-5.43-2.21-10-7.59-10C424.78,396.47,421.83,400.16,421.83,406.28Z" transform="translate(-306.86 -381.96)"/>
    <path class="cls-2" d="M449.79,382c.26,0,.37.06.37.32v12.24a13.44,13.44,0,0,1,6.06-1.37c7.18,0,11.66,5.17,11.66,12.55,0,9.23-6.33,13.93-13.45,13.93a20.16,20.16,0,0,1-8.6-1.75.43.43,0,0,1-.31-.42V382.28a.28.28,0,0,1,.31-.32Zm5.64,14.67a10.67,10.67,0,0,0-5.27,1.37v17.35a10.09,10.09,0,0,0,4.54.95c4.37,0,8.43-3.06,8.43-10.23C463.13,400.16,460.34,396.63,455.43,396.63Z" transform="translate(-306.86 -381.96)"/>
    <path class="cls-2" d="M475.3,406.7c-.16,5.54,2.74,9.34,8.6,9.34a14.26,14.26,0,0,0,6.49-1.37c.15-.11.26-.05.26.21v2.74c0,.26,0,.37-.26.48a15.74,15.74,0,0,1-7.39,1.53c-9.23,0-12.4-6.49-12.4-13,0-7.39,4.28-13.4,11.66-13.4,7.6,0,10.24,5.8,10.24,10.34a15.55,15.55,0,0,1-.16,2.58c-.06.21-.16.37-.42.37-.8.11-3.06.21-5.44.21Zm9.39-2.85a21.69,21.69,0,0,0,3.32-.1,6.05,6.05,0,0,0,.05-.95c0-2.48-1.21-6.44-6-6.44-4.17,0-6.33,3.54-6.7,7.49Z" transform="translate(-306.86 -381.96)"/>
  </g>
</svg>
