<?xml version="1.0" encoding="utf-8"?>
<!-- Generator: Adobe Illustrator 21.0.0, SVG Export Plug-In . SVG Version: 6.00 Build 0)  -->
<svg version="1.1" id="Layer_1" xmlns="http://www.w3.org/2000/svg" xmlns:xlink="http://www.w3.org/1999/xlink" x="0px" y="0px"
	 viewBox="0 0 110.2 110.2" style="enable-background:new 0 0 110.2 110.2;" xml:space="preserve">
<style type="text/css">
	.st0{opacity:0;fill:#6AB6FF;}
	.st1{fill:#94DCFF;}
</style>
<title>notes-icon-active</title>
<rect class="st0" width="110.2" height="110.2"/>
<g>
	<path class="st1" d="M19.5,13.4v0.5v82.8h71.2v-1.4V13.4H19.5z M30.6,19.6h-3.1v9h9v-1.4v-7.6h-3.1v-3.4H46v3.4h-3.1v9h9v-1.4v-7.6
		h-3.1v-3.4h12.6v3.4h-3.1v9h9v-1.4v-7.6h-3.1v-3.4h12.6v3.4h-3.1v9h9v-1.4v-7.6h-3.1v-3.4h8.3v77.7H22.3V16.2h8.3V19.6z M79.8,25.7
		h-3.4v-3.4h3.4V25.7z M64.4,25.7h-3.4v-3.4h3.4V25.7z M49.1,25.7h-3.4v-3.4h3.4V25.7z M33.7,25.7h-3.4v-3.4h3.4V25.7z"/>
	<polygon class="st1" points="82.6,48.4 82.6,46 28.3,46 28.3,48.9 82.6,48.9 	"/>
	<polygon class="st1" points="82.6,65 82.6,62.6 28.3,62.6 28.3,65.5 82.6,65.5 	"/>
	<polygon class="st1" points="82.6,81.6 82.6,79.2 28.3,79.2 28.3,82.1 82.6,82.1 	"/>
</g>
</svg>
