<?xml version="1.0" encoding="utf-8"?>
<!-- Generator: Adobe Illustrator 24.1.2, SVG Export Plug-In . SVG Version: 6.00 Build 0)  -->
<svg version="1.1" id="Layer_18" xmlns="http://www.w3.org/2000/svg" xmlns:xlink="http://www.w3.org/1999/xlink" x="0px" y="0px"
	 viewBox="0 0 110.2 110.2" style="enable-background:new 0 0 110.2 110.2;" xml:space="preserve">
<style type="text/css">
	.st0{fill:#FFFFFF;}
	.st1{fill:#FFFFFF;fill-opacity:0;}
</style>
<path class="st0" d="M5.7,5.8c0.5-0.1,1-0.1,1.5-0.2h45.5L35.2,23l18,17.8c-4.2,4.2-8,8-11.9,12L24,35.3L6.3,53.1l-0.6-0.2L5.7,5.8
	L5.7,5.8z"/>
<path class="st0" d="M104.5,104.5l-44.6-0.1h-2.5l17.7-17.4c-6.4-6.3-12.3-12.2-18-17.8c4.1-4.1,8-8,11.9-11.9l17.3,17.5
	c6.1-6.1,11.9-11.9,18.1-18.1c0.1,0.9,0.1,1.3,0.1,1.6v45.1C104.5,103.8,104.5,104.2,104.5,104.5L104.5,104.5z"/>
<rect class="st1" width="110.2" height="110.2"/>
</svg>
