<svg id="Layer_1" data-name="Layer 1" xmlns="http://www.w3.org/2000/svg" viewBox="0 0 181.28 174.43"><defs><style>.cls-1{fill:#fff;}.cls-2{fill:#545f68;}.cls-3{fill:#007bfe;}</style></defs><title>check2</title><polygon class="cls-1" points="124 172.93 124 171.43 3 171.43 3 51.93 122.5 51.93 122.5 172.93 124 172.93 124 171.43 124 172.93 125.5 172.93 125.5 48.93 0 48.93 0 174.43 125.5 174.43 125.5 172.93 124 172.93"/><polygon class="cls-2" points="100.14 149.07 100.14 147.57 26.86 147.57 26.86 75.78 98.64 75.78 98.64 149.07 100.14 149.07 100.14 147.57 100.14 149.07 101.64 149.07 101.64 72.78 23.86 72.78 23.86 150.57 101.64 150.57 101.64 149.07 100.14 149.07"/><path class="cls-3" d="M289.28,333.4c-50.8,47.42-90,102.81-121.28,164.1l-54.55-60.6c2.24.43,3.76,1.66,5.42,2.54,7.72,4.1,15.39,8.29,23.07,12.46,5.29,2.87,10.58,5.75,15.84,8.67,1.07.59,1.65.67,2.5-.47q7.31-9.69,14.83-19.23c4.51-5.73,9.23-11.31,14-16.88,6.14-7.23,12.53-14.24,18.93-21.25,3.24-3.55,6.61-7,10-10.39,4.49-4.46,9.07-8.83,13.63-13.21,7.75-7.43,15.82-14.52,24.13-21.36,7-5.73,14-11.31,21.41-16.56,3.87-2.76,7.8-5.44,11.7-8.15Z" transform="translate(-108 -333.07)"/></svg>