<?xml version="1.0" encoding="utf-8"?>
<!-- Generator: Adobe Illustrator 25.4.1, SVG Export Plug-In . SVG Version: 6.00 Build 0)  -->
<svg version="1.1" id="Layer_1" xmlns="http://www.w3.org/2000/svg" xmlns:xlink="http://www.w3.org/1999/xlink" x="0px" y="0px"
	 viewBox="0 0 181.3 174.4" style="enable-background:new 0 0 181.3 174.4;" xml:space="preserve">
<style type="text/css">
	.st0{fill:#FFFFFF;}
	.st1{opacity:0;}
	.st2{fill:#29D389;}
</style>
<rect x="23.9" y="48.9" class="st0" width="101.6" height="101.6"/>
<rect class="st1" width="181.3" height="174.4"/>
<polygon points="123.5,148.6 123.5,146.7 27.8,146.7 27.8,52.8 121.6,52.8 121.6,148.6 123.5,148.6 123.5,146.7 123.5,148.6 
	125.5,148.6 125.5,48.9 23.9,48.9 23.9,150.6 125.5,150.6 125.5,148.6 "/>
<g id="uypvqt_00000055693576606314617980000012112142836880141484_">
	<g>
		<path class="st2" d="M66.7,135.2c-2.8-0.4-5.7-0.7-8.4-1.3c-0.9-0.2-2-0.9-2.4-1.7c-2.3-4.2-4.8-8.4-6.5-12.9
			c-2.6-7-4.7-14.1-6.8-21.3c-1.5-5-0.7-6.9,3.6-9.9c3.9-2.7,8.1-4.6,13-4.5c2.2,0,3.8,0.8,4.8,2.8c2.1,4.1,4.1,8.2,6.2,12.3
			c0.8,1.5,1.7,3.1,2.6,4.5c1.1,1.6,2.4,1.8,3.6,0.2c3-3.8,6.1-7.5,8.8-11.5c16-23.1,33.2-45.3,51.5-66.6c2.5-2.9,4.5-6.2,7.3-8.7
			c4.7-4.1,10.2-7.4,16.5-8.5c3.6-0.6,7.2-0.9,10.9-0.9c3.4,0,4.2,1.3,2.3,4c-2.4,3.6-5.1,7.1-7.9,10.4
			c-7.9,9.4-16.2,18.5-23.9,28.1c-13.7,17-27.3,34.2-40.7,51.5c-7.3,9.5-14.3,19.2-21.2,29c-2.9,4.1-7,4.2-11.1,4.7
			c-0.8,0.1-1.6,0-2.4,0C66.7,135,66.7,135.1,66.7,135.2z"/>
	</g>
</g>
</svg>
