<?xml version="1.0" encoding="utf-8"?>
<!-- Generator: Adobe Illustrator 25.4.1, SVG Export Plug-In . SVG Version: 6.00 Build 0)  -->
<svg version="1.1" id="Layer_1" xmlns="http://www.w3.org/2000/svg" xmlns:xlink="http://www.w3.org/1999/xlink" x="0px" y="0px"
	 viewBox="0 0 181.3 174.4" style="enable-background:new 0 0 181.3 174.4;" xml:space="preserve">
<style type="text/css">
	.st0{fill:#FFFFFF;}
	.st1{fill:#545F68;}
	.st2{opacity:0;fill:#007BFE;}
</style>
<polygon class="st0" points="124,172.9 124,171.4 3,171.4 3,51.9 122.5,51.9 122.5,172.9 124,172.9 124,171.4 124,172.9 
	125.5,172.9 125.5,48.9 0,48.9 0,174.4 125.5,174.4 125.5,172.9 "/>
<polygon class="st1" points="100.1,149.1 100.1,147.6 26.9,147.6 26.9,75.8 98.6,75.8 98.6,149.1 100.1,149.1 100.1,147.6 
	100.1,149.1 101.6,149.1 101.6,72.8 23.9,72.8 23.9,150.6 101.6,150.6 101.6,149.1 "/>
<path class="st2" d="M181.3,0.3C130.5,47.8,91.3,103.1,60,164.4L5.4,103.8c2.2,0.4,3.8,1.7,5.4,2.5c7.7,4.1,15.4,8.3,23.1,12.5
	c5.3,2.9,10.6,5.8,15.8,8.7c1.1,0.6,1.6,0.7,2.5-0.5c4.9-6.5,9.8-12.9,14.8-19.2c4.5-5.7,9.2-11.3,14-16.9
	c6.1-7.2,12.5-14.2,18.9-21.2c3.2-3.5,6.6-7,10-10.4c4.5-4.5,9.1-8.8,13.6-13.2c7.8-7.4,15.8-14.5,24.1-21.4
	c7-5.7,14-11.3,21.4-16.6c3.9-2.8,7.8-5.4,11.7-8.1L181.3,0.3z"/>
</svg>
