<?xml version="1.0" encoding="utf-8"?>
<!-- Generator: Adobe Illustrator 22.0.0, SVG Export Plug-In . SVG Version: 6.00 Build 0)  -->
<svg version="1.1" id="Layer_1" xmlns="http://www.w3.org/2000/svg" xmlns:xlink="http://www.w3.org/1999/xlink" x="0px" y="0px"
	 viewBox="0 0 600 600" style="enable-background:new 0 0 600 600;" xml:space="preserve">
<path d="M551.6,300h-20c0,32-6.5,62.4-18.2,90.1c-17.6,41.5-47,76.9-83.9,101.9c-18.5,12.5-38.9,22.4-60.6,29.1
	c-21.7,6.8-44.8,10.4-68.9,10.4c-32,0-62.4-6.5-90.1-18.2c-41.5-17.6-76.9-47-101.9-83.9c-12.5-18.5-22.4-38.9-29.1-60.6
	C72.1,347.1,68.4,324,68.4,300c0-32,6.5-62.4,18.2-90.1c17.6-41.5,47-76.9,83.9-101.9c18.5-12.5,38.9-22.4,60.6-29.1
	c21.7-6.8,44.8-10.4,68.9-10.4c32,0,62.4,6.5,90.1,18.2c41.5,17.6,76.9,47,101.9,83.9c12.5,18.5,22.4,38.9,29.1,60.6
	c6.8,21.7,10.4,44.8,10.4,68.9H551.6h20c0-37.4-7.6-73.2-21.4-105.7c-20.6-48.8-55-90.2-98.4-119.5c-21.7-14.6-45.6-26.2-71.1-34.2
	c-25.5-7.9-52.7-12.2-80.8-12.2c-37.4,0-73.2,7.6-105.7,21.4c-48.8,20.6-90.2,55-119.5,98.4c-14.6,21.7-26.2,45.6-34.2,71.1
	c-7.9,25.5-12.2,52.7-12.2,80.8c0,37.4,7.6,73.2,21.4,105.7c20.6,48.8,55,90.2,98.4,119.5c21.7,14.6,45.6,26.2,71.1,34.2
	c25.5,7.9,52.7,12.2,80.8,12.2c37.4,0,73.2-7.6,105.7-21.4c48.8-20.6,90.2-55,119.5-98.4c14.6-21.7,26.2-45.6,34.2-71.1
	c7.9-25.5,12.2-52.7,12.2-80.8H551.6z"/>
<g>
	<path d="M482.1,300h-14.5c0,23.2-4.7,45.2-13.2,65.2c-12.7,30.1-34,55.7-60.7,73.8c-13.4,9-28.1,16.2-43.9,21.1
		c-15.7,4.9-32.5,7.5-49.9,7.5c-23.2,0-45.2-4.7-65.2-13.2c-30.1-12.7-55.7-34-73.8-60.7c-9-13.4-16.2-28.1-21.1-43.9
		c-4.9-15.7-7.5-32.5-7.5-49.9c0-23.2,4.7-45.2,13.2-65.2c12.7-30.1,34-55.7,60.7-73.8c13.4-9,28.1-16.2,43.9-21.1
		c15.7-4.9,32.5-7.5,49.9-7.5c23.2,0,45.2,4.7,65.2,13.2c30.1,12.7,55.7,34,73.8,60.7c9,13.4,16.2,28.1,21.1,43.9
		c4.9,15.7,7.5,32.5,7.5,49.9H482.1h14.5c0-27.1-5.5-53-15.5-76.5c-14.9-35.3-39.8-65.3-71.2-86.5c-15.7-10.6-33-19-51.5-24.7
		c-18.5-5.7-38.1-8.8-58.5-8.8c-27.1,0-53,5.5-76.5,15.5c-35.3,14.9-65.3,39.8-86.5,71.2c-10.6,15.7-19,33-24.7,51.5
		c-5.7,18.5-8.8,38.1-8.8,58.5c0,27.1,5.5,53,15.5,76.5c14.9,35.3,39.8,65.3,71.2,86.5c15.7,10.6,33,19,51.5,24.7
		c18.5,5.7,38.1,8.8,58.5,8.8c27.1,0,53-5.5,76.5-15.5c35.3-14.9,65.3-39.8,86.5-71.2c10.6-15.7,19-33,24.7-51.5
		c5.7-18.5,8.8-38.1,8.8-58.5H482.1z"/>
	<ellipse transform="matrix(0.2298 -0.9732 0.9732 0.2298 -60.9007 523.0489)" cx="300" cy="300" rx="97.6" ry="97.6"/>
</g>
</svg>
