<?xml version="1.0" encoding="utf-8"?>
<!-- Generator: Adobe Illustrator 22.0.0, SVG Export Plug-In . SVG Version: 6.00 Build 0)  -->
<svg version="1.1" id="Layer_1" xmlns="http://www.w3.org/2000/svg" xmlns:xlink="http://www.w3.org/1999/xlink" x="0px" y="0px"
	 viewBox="0 0 600 600" style="enable-background:new 0 0 600 600;" xml:space="preserve">
<g>
	<rect x="364.2" y="440" transform="matrix(0.7071 0.7071 -0.7071 0.7071 460.4239 -190.5091)" width="191.9" height="41.1"/>
	<path d="M451.9,261.9h-15.1c0,24.2-4.9,47.1-13.7,68c-13.2,31.3-35.4,58-63.3,76.8c-13.9,9.4-29.3,16.9-45.7,22
		c-16.4,5.1-33.8,7.8-51.9,7.8c-24.2,0-47.1-4.9-68-13.7c-31.3-13.2-58-35.4-76.8-63.3c-9.4-13.9-16.9-29.3-22-45.7
		c-5.1-16.4-7.8-33.8-7.8-51.9c0-24.2,4.9-47.1,13.7-68c13.2-31.3,35.4-58,63.3-76.8c13.9-9.4,29.3-16.9,45.7-22
		c16.4-5.1,33.8-7.8,51.9-7.8c24.2,0,47.1,4.9,68,13.7c31.3,13.2,58,35.4,76.8,63.3c9.4,13.9,16.9,29.3,22,45.7
		c5.1,16.4,7.8,33.8,7.8,51.9H451.9H467c0-28.2-5.7-55.2-16.1-79.7c-15.6-36.8-41.5-68-74.2-90.1c-16.3-11-34.4-19.8-53.6-25.8
		c-19.2-6-39.7-9.2-60.9-9.2c-28.2,0-55.2,5.7-79.7,16.1c-36.8,15.6-68,41.5-90.1,74.2c-11,16.3-19.8,34.4-25.8,53.6
		c-6,19.2-9.2,39.7-9.2,60.9c0,28.2,5.7,55.2,16.1,79.7c15.6,36.8,41.5,68,74.2,90.1c16.3,11,34.4,19.8,53.6,25.8
		c19.2,6,39.7,9.2,60.9,9.2c28.2,0,55.2-5.7,79.7-16.1c36.8-15.6,68-41.5,90.1-74.2c11-16.3,19.8-34.4,25.8-53.6
		c6-19.2,9.2-39.7,9.2-60.9H451.9z"/>
	<rect x="146" y="246.7" width="232.5" height="30.4"/>
	<rect x="146" y="246.7" transform="matrix(-1.836970e-16 1 -1 -1.836970e-16 524.119 -0.3495)" width="232.5" height="30.4"/>
</g>
</svg>
