<svg xmlns="http://www.w3.org/2000/svg" width="300" height="196.01" viewBox="0 0 300 196.01">
  <defs>
    <style>
      .cls-1 {
        fill: #00627c;
        opacity: 0;
      }

      .cls-2 {
        fill: red;
      }

      .cls-3 {
        fill: #fff;
      }
    </style>
  </defs>
  <title>acs-admin-logo</title>
  <g id="Layer_1" data-name="Layer 1">
    <rect class="cls-1" width="300" height="196.01"/>
  </g>
  <g id="Layer_5" data-name="Layer 5">
    <g>
      <g>
        <path class="cls-2" d="M36.49,121.16c1.68-5.52,3.84-12.47,4.8-16.49h.06c1,4.25,3.72,12.47,4.86,16.49ZM48,127.46l3.3,10.14a.52.52,0,0,0,.54.36h6.42c.36,0,.42-.18.36-.48L45.67,99.15c-.06-.3-.18-.36-.42-.36h-8c-.24,0-.36.18-.36.42a8.05,8.05,0,0,1-.48,3.12L24.91,137.42q-.18.54.36.54H31a.58.58,0,0,0,.6-.42l3.12-10.08Z" transform="translate(0 -33.41)"/>
        <path class="cls-2" d="M87.85,131.6c0-.36-.18-.36-.42-.24a20.48,20.48,0,0,1-6.72.9c-5.88,0-13-3.42-13-14,0-8.51,5.1-13.79,13-13.79a16.62,16.62,0,0,1,7.08,1.26c.24.06.48.06.48-.42V99.81a.64.64,0,0,0-.36-.66c-1.38-.6-3.66-1-7.14-1-12.3,0-20.22,8.28-20.22,20.27,0,13.8,8.94,20,19.32,20a22.43,22.43,0,0,0,7.62-1,.68.68,0,0,0,.42-.72Z" transform="translate(0 -33.41)"/>
        <path class="cls-2" d="M167.35,99.15l-2.22,38.33c0,.42.12.48.48.48h5.7c.3,0,.42-.06.42-.42.54-12.78,1.08-28,1.08-33.53h.12c1.56,7.07,6.06,24.53,8.45,33.53.12.36.24.42.61.42h5.69c.24,0,.42-.06.54-.42,2.34-8.28,8.16-28,9.36-33.42h.06c-.06,3.48.06,20.58.3,33.42,0,.3.12.42.48.42h6.3c.3,0,.48-.12.42-.48l-1.56-38.33c-.06-.3-.12-.36-.42-.36h-8.94c-.3,0-.36.18-.48.42-1.74,6.06-7.32,23.87-8.52,29.09h-.06c-1.08-5.76-5.93-23.22-7.62-29.09a.53.53,0,0,0-.6-.42h-9.12C167.53,98.79,167.4,98.85,167.35,99.15Zm-7.08,33c0-.36,0-.48-.42-.48h-17V121.1h14.52c.23,0,.42-.06.42-.42v-5.39c0-.37-.12-.49-.42-.49H142.87v-9.72h16c.35,0,.47-.23.42-.47l-.66-5.4c-.07-.36-.12-.42-.54-.42H136.39c-.36,0-.48.12-.48.48v38.21c0,.36.12.48.48.48h22.5c.35,0,.47-.12.54-.48Zm-57.42,6.36c8.58,0,13.92-4.5,13.92-11.34,0-4.56-2-8.28-9.48-11.7l-2.16-1c-4.44-2-5.76-3.59-5.76-5.75s1.62-4.32,6.54-4.32a17.21,17.21,0,0,1,8.4,1.86c.3.24.48,0,.48-.25v-5.63c0-.36-.06-.6-.36-.72-1.8-1-4.86-1.5-8.52-1.5-8.7,0-13.26,4.86-13.26,11.1,0,4.43,1.86,8.09,8.76,11.33l2.58,1.14c4.38,2.16,5.7,3.84,5.7,6,0,2.58-2,4.56-6.66,4.56a18.64,18.64,0,0,1-10-2.94c-.24-.12-.42,0-.42.24v6c0,.48.06.72.36.9A21.68,21.68,0,0,0,102.85,138.5Z" transform="translate(0 -33.41)"/>
        <path class="cls-2" d="M237.36,132.14c.06-.36,0-.48-.42-.48H220V121.1h14.52c.24,0,.42-.06.42-.42v-5.39c0-.37-.12-.49-.42-.49H220v-9.72h16c.36,0,.48-.23.42-.47l-.66-5.4c-.06-.36-.12-.42-.54-.42H213.49c-.37,0-.49.12-.49.48v38.21c0,.36.12.48.49.48H236c.36,0,.48-.12.54-.48Z" transform="translate(0 -33.41)"/>
        <path class="cls-2" d="M251.94,121.16c1.68-5.52,3.84-12.47,4.8-16.49h.06c1,4.25,3.72,12.47,4.86,16.49Zm11.46,6.3,3.3,10.14a.52.52,0,0,0,.54.36h6.42c.36,0,.42-.18.36-.48l-12.9-38.33c-.06-.3-.18-.36-.42-.36h-8c-.24,0-.36.18-.36.42a7.85,7.85,0,0,1-.48,3.12l-11.46,35.09c-.12.36,0,.54.37.54h5.76a.57.57,0,0,0,.59-.42l3.12-10.08Z" transform="translate(0 -33.41)"/>
      </g>
      <g>
        <path class="cls-3" d="M25.68,171c-.18,0-.27,0-.27-.28V151.2c0-.15.06-.21.21-.21h4.29a.32.32,0,0,1,.36.21c2.25,4,6.9,12.59,8,14.87h0c0-.85-.09-1.85-.09-4.71V151.23c0-.15.09-.24.27-.24h2.92c.21,0,.27.09.27.28v19.42c0,.21-.09.28-.3.28H37.48a.4.4,0,0,1-.4-.22c-1.58-3.1-7.14-12.92-8.33-15.87h0c.12,1.55.15,2.89.15,5.66v10.15c0,.18-.06.28-.24.28Z" transform="translate(0 -33.41)"/>
        <path class="cls-3" d="M59.35,163.4c0,4.71-3,7.87-7.3,7.87-5.07,0-7.32-3.92-7.32-7.78,0-4.32,2.82-7.82,7.38-7.82S59.35,159.23,59.35,163.4Zm-10.92,0c0,2.79,1.37,4.74,3.68,4.74,1.89,0,3.5-1.55,3.5-4.68,0-2.53-1.1-4.75-3.68-4.75C49.89,158.74,48.43,160.54,48.43,163.43Z" transform="translate(0 -33.41)"/>
        <path class="cls-3" d="M62.46,171c-.18,0-.25-.1-.25-.28V159.2c0-1.19-.06-2.43-.12-3,0-.15.06-.21.25-.21h2.79a.29.29,0,0,1,.31.18,5.2,5.2,0,0,1,.18,1.22,6.49,6.49,0,0,1,4.44-1.71,4.26,4.26,0,0,1,3.92,2,7.53,7.53,0,0,1,5-2c2.52,0,5.13,1.34,5.13,5.93v9.12a.24.24,0,0,1-.27.25H80.7c-.21,0-.27-.1-.27-.28v-8.75c0-1.74-.7-3.1-2.56-3.1a4.31,4.31,0,0,0-3,1.24,14.25,14.25,0,0,1,.09,1.8v8.84c0,.15,0,.25-.21.25H71.61c-.18,0-.27-.07-.27-.28v-8.84c0-2-.92-3-2.56-3A4.3,4.3,0,0,0,65.89,160v10.73c0,.18-.06.25-.24.25Z" transform="translate(0 -33.41)"/>
        <path class="cls-3" d="M87.74,151.84a2,2,0,0,1,2.09-2.09,2,2,0,0,1,2.07,2.09,2.08,2.08,0,1,1-4.16,0Zm.21,4.35c0-.15.09-.21.24-.21h3.23c.18,0,.24,0,.24.21v14.53c0,.18-.06.25-.28.25H88.25c-.21,0-.3-.1-.3-.28Z" transform="translate(0 -33.41)"/>
        <path class="cls-3" d="M95.4,159.47c0-1-.06-2.67-.12-3.28,0-.15,0-.21.21-.21h2.77c.21,0,.3.06.36.21a5.7,5.7,0,0,1,.22,1.16,6.66,6.66,0,0,1,4.41-1.68c2.28,0,5.07,1.16,5.07,6v9c0,.21-.09.28-.24.28h-3.16a.25.25,0,0,1-.28-.28V162c0-2-.85-3.16-2.61-3.16a3.89,3.89,0,0,0-3,1.24v10.61a.23.23,0,0,1-.24.25h-3.2c-.18,0-.24-.1-.24-.25Z" transform="translate(0 -33.41)"/>
        <path class="cls-3" d="M123.41,167.86c0,.68,0,1.28.06,1.92,0,.06,0,.09-.06.12a14.7,14.7,0,0,1-6.32,1.37c-3.32,0-6-1.55-6-5,0-3.22,2.89-4.83,6.84-4.83.91,0,1.61,0,1.88.06v-.36c0-.7-.39-2.28-3.07-2.28a9,9,0,0,0-4,.85.18.18,0,0,1-.24-.19v-2.64a.29.29,0,0,1,.18-.3,11.27,11.27,0,0,1,4.62-.92c4.23,0,6,2.65,6,6Zm-3.56-3.58a12.57,12.57,0,0,0-1.67-.09c-2.4,0-3.46.79-3.46,2.09,0,1.13.79,2.1,3,2.1a5.64,5.64,0,0,0,2.16-.36Z" transform="translate(0 -33.41)"/>
        <path class="cls-3" d="M134.18,170.48c0,.18,0,.3-.18.36a6.87,6.87,0,0,1-2.59.43c-2.49,0-4-1.21-4-4.23v-8h-1.92c-.15,0-.21-.09-.21-.28v-2.55c0-.18.06-.24.25-.24h1.91a30.18,30.18,0,0,1,.31-3.74A.29.29,0,0,1,128,152l3.07-.42c.15,0,.21,0,.21.15-.09,1-.15,2.8-.15,4.29h3c.15,0,.21.06.21.21v2.65c0,.15-.06.21-.21.21h-3v7.2c0,1.34.43,2,1.73,2a5.26,5.26,0,0,0,1.16-.12c.09,0,.18,0,.18.18Z" transform="translate(0 -33.41)"/>
        <path class="cls-3" d="M136.65,151.84a2,2,0,0,1,2.1-2.09,2,2,0,0,1,2.06,2.09,2.08,2.08,0,1,1-4.16,0Zm.21,4.35c0-.15.09-.21.24-.21h3.23c.18,0,.24,0,.24.21v14.53c0,.18-.06.25-.27.25h-3.14c-.21,0-.3-.1-.3-.28Z" transform="translate(0 -33.41)"/>
        <path class="cls-3" d="M158.09,163.4c0,4.71-3,7.87-7.3,7.87-5.08,0-7.33-3.92-7.33-7.78,0-4.32,2.83-7.82,7.39-7.82S158.09,159.23,158.09,163.4Zm-10.92,0c0,2.79,1.37,4.74,3.68,4.74,1.89,0,3.5-1.55,3.5-4.68,0-2.53-1.1-4.75-3.68-4.75C148.63,158.74,147.17,160.54,147.17,163.43Z" transform="translate(0 -33.41)"/>
        <path class="cls-3" d="M161,159.47c0-1-.06-2.67-.12-3.28,0-.15,0-.21.21-.21h2.77c.21,0,.3.06.36.21a5.7,5.7,0,0,1,.22,1.16,6.66,6.66,0,0,1,4.41-1.68c2.28,0,5.07,1.16,5.07,6v9c0,.21-.09.28-.24.28h-3.16a.25.25,0,0,1-.28-.28V162c0-2-.85-3.16-2.61-3.16a3.89,3.89,0,0,0-3,1.24v10.61a.23.23,0,0,1-.24.25H161.2a.22.22,0,0,1-.25-.25Z" transform="translate(0 -33.41)"/>
        <path class="cls-3" d="M185.26,171c-.19,0-.25-.07-.25-.25V151.3c0-.16,0-.28.22-.28,2.4-.06,3.67-.09,6-.09,4.87,0,7.73,2.1,7.73,6a5.65,5.65,0,0,1-3.92,5.35c1,1.4,4.65,6.84,5.53,8.36.09.18.12.34-.06.34h-3.8a.51.51,0,0,1-.43-.16c-.88-1.36-3-4.86-4.35-7-.21-.36-.36-.52-.7-.52h-2.61v7.42c0,.18-.09.25-.24.25Zm6-10.8c2.46,0,4-1.09,4-3s-1.61-3-4.2-3c-1,0-2,0-2.49.06v6Z" transform="translate(0 -33.41)"/>
        <path class="cls-3" d="M204.94,164.31c.09,2.13,1.49,3.83,4.59,3.83a9.56,9.56,0,0,0,3.77-.73c.09-.06.18,0,.18.12v2.53a.32.32,0,0,1-.18.33,10.06,10.06,0,0,1-4.56.88c-5.54,0-7.51-3.89-7.51-7.63,0-4.23,2.55-8,7.14-8s6.23,3.53,6.23,6.42a9.25,9.25,0,0,1-.12,1.88.27.27,0,0,1-.24.22,23.48,23.48,0,0,1-3.13.12Zm4.53-2.62a15.09,15.09,0,0,0,1.67,0v-.24a2.82,2.82,0,0,0-2.92-2.83,3.31,3.31,0,0,0-3.28,3.1Z" transform="translate(0 -33.41)"/>
        <path class="cls-3" d="M222.4,158.62c-1.62,0-2.16.67-2.16,1.31s.45,1.12,2.4,1.88c3.46,1.28,4.65,2.65,4.65,4.81,0,2.86-2.25,4.65-6,4.65a9.36,9.36,0,0,1-4.29-.85.33.33,0,0,1-.21-.34V167.2A.16.16,0,0,1,217,167a8.21,8.21,0,0,0,4.35,1.22c1.58,0,2.34-.55,2.34-1.34s-.57-1.24-2.46-2c-3.31-1.22-4.5-2.59-4.5-4.78s1.88-4.47,5.68-4.47a9.48,9.48,0,0,1,3.84.61.37.37,0,0,1,.18.37v2.67c0,.15-.09.25-.27.18A8.79,8.79,0,0,0,222.4,158.62Z" transform="translate(0 -33.41)"/>
        <path class="cls-3" d="M242.62,167.62a27.36,27.36,0,0,0,.18,3.13c0,.15-.06.22-.24.22h-2.8c-.21,0-.27-.07-.3-.19a5.71,5.71,0,0,1-.22-1.06,6,6,0,0,1-4.22,1.55c-2.89,0-5.11-1.55-5.11-5.81v-9.27c0-.18.06-.21.24-.21h3.2c.18,0,.21.06.21.21V165c0,1.88.82,3,2.64,3A3.86,3.86,0,0,0,239,167V156.19c0-.15.06-.21.24-.21h3.19c.19,0,.22.06.22.21Z" transform="translate(0 -33.41)"/>
        <path class="cls-3" d="M246.49,149.56c0-.15.09-.24.27-.24h3.13c.19,0,.28.09.28.24V167c0,1,.33,1.25,1.06,1.25a4,4,0,0,0,.58,0c.09,0,.12,0,.12.18v2.28c0,.21,0,.25-.18.34a4.52,4.52,0,0,1-1.74.24c-1.94,0-3.52-.73-3.52-3.92Z" transform="translate(0 -33.41)"/>
        <path class="cls-3" d="M261.94,170.48c0,.18,0,.3-.18.36a6.94,6.94,0,0,1-2.59.43c-2.49,0-4-1.21-4-4.23v-8h-1.92c-.15,0-.21-.09-.21-.28v-2.55c0-.18.06-.24.24-.24h1.92a32.41,32.41,0,0,1,.3-3.74c0-.15.09-.25.24-.28l3.08-.42c.15,0,.21,0,.21.15-.09,1-.15,2.8-.15,4.29h2.94c.16,0,.22.06.22.21v2.65c0,.15-.06.21-.22.21h-3v7.2c0,1.34.42,2,1.73,2a5.26,5.26,0,0,0,1.16-.12c.08,0,.18,0,.18.18Z" transform="translate(0 -33.41)"/>
        <path class="cls-3" d="M269.7,158.62c-1.61,0-2.16.67-2.16,1.31s.45,1.12,2.4,1.88c3.47,1.28,4.65,2.65,4.65,4.81,0,2.86-2.25,4.65-6,4.65a9.29,9.29,0,0,1-4.28-.85c-.16-.09-.22-.15-.22-.34V167.2a.16.16,0,0,1,.24-.16,8.24,8.24,0,0,0,4.35,1.22c1.58,0,2.34-.55,2.34-1.34s-.57-1.24-2.46-2c-3.31-1.22-4.5-2.59-4.5-4.78s1.89-4.47,5.69-4.47a9.46,9.46,0,0,1,3.83.61.37.37,0,0,1,.18.37v2.67c0,.15-.09.25-.27.18A8.79,8.79,0,0,0,269.7,158.62Z" transform="translate(0 -33.41)"/>
      </g>
    </g>
  </g>
</svg>
