<svg id="Layer_22" data-name="Layer 22" xmlns="http://www.w3.org/2000/svg" width="112" height="110.49" viewBox="0 0 112 110.49">
  <defs>
    <style>
      .cls-1 {
        fill: #231f20;
      }

      .cls-2 {
        fill: none;
      }
    </style>
  </defs>
  <title>print-icon</title>
  <polygon class="cls-1" points="17.31 1.76 17.33 1.75 17.33 1.75 17.31 1.76"/>
  <polygon class="cls-1" points="17.33 1.75 17.33 1.75 17.33 1.75 17.33 1.75"/>
  <polygon class="cls-1" points="17.33 71.33 17.33 71.33 17.33 71.33 17.33 71.33"/>
  <polygon class="cls-1" points="1.8 38.88 1.81 38.87 1.81 38.87 1.8 38.88"/>
  <polygon class="cls-1" points="1.81 38.87 1.81 38.87 1.81 38.87 1.81 38.87"/>
  <polygon class="cls-1" points="1.81 108.45 1.81 108.45 1.81 108.45 1.81 108.45"/>
  <path class="cls-2" d="M18.88,71.33a5.91,5.91,0,0,1-1.69-4.15v-18H11.54V98.7H82.9V73.08H23A5.84,5.84,0,0,1,18.88,71.33Z" transform="translate(0.13 0)"/>
  <polygon class="cls-2" points="85.74 23.86 94.58 23.86 85.74 15.96 85.74 23.86"/>
  <path d="M111.46,24.17a5.78,5.78,0,0,0-1.56-2.26h0L87,1.48h0A5.8,5.8,0,0,0,83.14,0H23a5.83,5.83,0,0,0-4.14,1.74,5.93,5.93,0,0,0-1.69,4.15V37.41H28.85V11.79H73.94v18a6,6,0,0,0,1.69,4.15,5.83,5.83,0,0,0,4.15,1.74h20.43V61.29H94c0,.1.09.19.13.29a5.84,5.84,0,0,1,.41,2.16v9.34H106a5.85,5.85,0,0,0,4.14-1.75,5.91,5.91,0,0,0,1.69-4.15V26.32A5.83,5.83,0,0,0,111.46,24.17Zm-25.85-.31V16l8.85,7.9Z" transform="translate(0.13 0)"/>
  <path d="M28.85,49.2H17.19v18a5.91,5.91,0,0,0,1.69,4.15A5.84,5.84,0,0,0,23,73.08H82.9v0H62.47a5.88,5.88,0,0,1-4.15-1.75,6,6,0,0,1-1.69-4.15V61.29H28.85Z" transform="translate(0.13 0)"/>
  <path d="M82.9,73.37V98.7H11.54V49.2h5.65V37.41H5.71a5.84,5.84,0,0,0-4.14,1.75A5.91,5.91,0,0,0-.12,43.31V104.6a6,6,0,0,0,1.68,4.15,5.83,5.83,0,0,0,4.15,1.74h83a5.84,5.84,0,0,0,4.14-1.74,5.93,5.93,0,0,0,1.69-4.15V73.08H82.9Z" transform="translate(0.13 0)"/>
  <polygon points="27.18 49.2 28.98 49.2 28.98 37.41 27.18 37.41 17.31 37.41 17.31 49.2 27.18 49.2"/>
  <path d="M94.15,61.58c0-.1-.09-.19-.13-.29H56.63v5.87a6,6,0,0,0,1.69,4.15,5.88,5.88,0,0,0,4.15,1.75H82.9v0H94.56V63.74A5.84,5.84,0,0,0,94.15,61.58Z" transform="translate(0.13 0)"/>
</svg>
